<?xml version="1.0" standalone="no"?>
<!DOCTYPE svg PUBLIC "-//W3C//DTD SVG 1.1//EN" "http://www.w3.org/Graphics/SVG/1.1/DTD/svg11.dtd" >
<svg xmlns="http://www.w3.org/2000/svg" xmlns:xlink="http://www.w3.org/1999/xlink" version="1.1">
<metadata>
Created by FontForge 20170731 at Tue Oct 15 17:57:30 2019
 By Aleksey,,,
Copyright (c) 2016 Premier League. All rights reserved.
</metadata>
<defs>
<font id="iCielPremierLeague-Light" horiz-adv-x="0" >
  <font-face 
    font-family="iCiel Premier League Light"
    font-weight="300"
    font-stretch="normal"
    units-per-em="1000"
    panose-1="2 11 8 4 2 2 3 2 2 4"
    ascent="800"
    descent="-200"
    x-height="500"
    cap-height="690"
    bbox="-609 -236 1224 1141.13"
    underline-thickness="50"
    underline-position="-375"
    unicode-range="U+0020-FEFF"
  />
<missing-glyph horiz-adv-x="478" 
d="M0 0v760h478v-760h-478zM41 40h396v680h-396v-680z" />
    <glyph glyph-name="fi" unicode="fi" horiz-adv-x="562" 
d="M113 0v452h-93v48h93v120q0 67 35 107q35 39 97 39q44 0 86 -21l-20 -47q-35 18 -65 18q-42 0 -62 -24q-21 -26 -21 -76v-116h145v-48h-145v-452h-50zM445 647q-17 0 -28 12q-12 11 -12 28t12 29q11 11 28 11q16 0 29 -11q11 -13 11 -29q0 -17 -11 -28q-12 -12 -29 -12z
M420 0v500h50v-500h-50z" />
    <glyph glyph-name="fl" unicode="fl" horiz-adv-x="562" 
d="M113 0v452h-93v48h93v120q0 67 35 107q35 39 97 39q44 0 86 -21l-20 -47q-35 18 -65 18q-42 0 -62 -24q-21 -26 -21 -76v-116h145v-48h-145v-452h-50zM420 0v760h50v-760h-50z" />
    <glyph glyph-name=".notdef" horiz-adv-x="478" 
d="M0 0v760h478v-760h-478zM41 40h396v680h-396v-680z" />
    <glyph glyph-name=".null" 
 />
    <glyph glyph-name="nonmarkingreturn" horiz-adv-x="240" 
 />
    <glyph glyph-name="space" unicode=" " horiz-adv-x="240" 
 />
    <glyph glyph-name="exclam" unicode="!" horiz-adv-x="230" 
d="M95 188l-13 502h66l-13 -502h-40zM115 -10q-19 0 -32 13t-13 32q0 20 13 33q13 12 32 12t33 -12q12 -14 12 -33t-12 -32q-13 -13 -33 -13z" />
    <glyph glyph-name="quotedbl" unicode="&#x22;" horiz-adv-x="307" 
d="M72 440l-12 250h57l-12 -250h-33zM202 440l-12 250h57l-12 -250h-33z" />
    <glyph glyph-name="numbersign" unicode="#" horiz-adv-x="732" 
d="M140 0l39 186h-134l9 46h134l47 226h-134l9 46h134l39 186h49l-38 -186h209l39 186h49l-38 -186h134l-9 -46h-135l-46 -226h134l-9 -46h-135l-38 -186h-50l39 186h-210l-38 -186h-50zM238 232h209l47 226h-210z" />
    <glyph glyph-name="dollar" unicode="$" horiz-adv-x="540" 
d="M248 -70v80q-55 1 -106 18q-53 17 -89 46l31 43q70 -54 164 -57v271q-64 21 -96 38q-39 20 -63 53q-26 34 -26 85q0 69 51 116q49 46 134 54v83h48v-83q52 -3 98 -21t83 -49l-34 -43q-71 57 -147 63v-258q57 -19 97 -39q39 -19 65 -55q26 -35 26 -89q0 -70 -51 -117
q-51 -46 -137 -57v-82h-48zM248 385v242q-63 -8 -97 -39q-36 -33 -36 -81t34 -73q37 -27 99 -49zM296 62q66 7 101 41q35 33 35 82q0 51 -35 80q-32 27 -101 50v-253z" />
    <glyph glyph-name="percent" unicode="%" horiz-adv-x="924" 
d="M263 -23l-40 23l438 713l40 -23zM230 360q-46 0 -86 23q-39 22 -61 61q-23 40 -23 86q0 45 23 85t61 62q40 23 86 23q44 0 85 -23q39 -23 62 -62q23 -40 23 -85q0 -46 -23 -86q-22 -38 -62 -61q-41 -23 -85 -23zM230 400q32 0 60 18q28 16 45 47q16 29 16 65q0 35 -16 64
q-17 30 -45 48t-60 18q-33 0 -60 -18q-26 -17 -44 -47q-17 -31 -17 -65q0 -36 16 -65q17 -32 44 -47q28 -18 61 -18zM694 -10q-44 0 -84 23q-40 22 -63 62t-23 85q0 46 23 86t63 62q38 22 84 22q48 0 86 -22q39 -23 62 -62q22 -38 22 -86q0 -47 -22 -85q-23 -39 -62 -62
q-40 -23 -86 -23zM694 30q32 0 61 18q28 19 44 48q16 28 16 64t-16 65q-17 31 -44 48q-29 17 -61 17q-31 0 -60 -17q-27 -17 -44 -48t-17 -65q0 -33 17 -64t44 -48q28 -18 60 -18z" />
    <glyph glyph-name="ampersand" unicode="&#x26;" horiz-adv-x="643" 
d="M270 -11q-109 0 -170 49q-62 48 -62 132q0 65 41 114q42 48 133 88q-54 60 -74 96q-21 36 -21 74q0 42 22 79q21 36 61 58q38 22 92 22q79 0 126 -43q48 -44 48 -111q0 -57 -37 -100q-38 -45 -136 -89l214 -209q53 77 53 188h48q0 -62 -17 -119q-18 -58 -51 -101l93 -90
l-32 -37l-93 90q-45 -45 -104 -67q-60 -24 -134 -24zM258 391l2 1q86 36 121 73q33 35 33 82q0 42 -31 73t-91 31q-54 0 -88 -31q-35 -32 -35 -78q0 -32 20 -66q19 -33 69 -85zM272 39q127 0 203 73l-226 220l-5 5q-79 -34 -116 -74q-38 -41 -38 -91q0 -64 49 -98
q50 -35 133 -35z" />
    <glyph glyph-name="quotesingle" unicode="'" horiz-adv-x="177" 
d="M72 440l-12 250h57l-12 -250h-33z" />
    <glyph glyph-name="parenleft" unicode="(" horiz-adv-x="374" 
d="M274 -210q-184 193 -184 485t184 485h60q-99 -97 -147 -221q-49 -122 -49 -264t49 -264q48 -124 147 -221h-60z" />
    <glyph glyph-name="parenright" unicode=")" horiz-adv-x="374" 
d="M40 -210q98 96 148 221q48 123 48 264t-48 264q-50 125 -148 221h60q184 -193 184 -485t-184 -485h-60z" />
    <glyph glyph-name="asterisk" unicode="*" horiz-adv-x="379" 
d="M115 396l-34 25l87 107l-133 34l14 41l127 -51l-7 138h42l-8 -138l128 51l13 -41l-133 -34l87 -107l-34 -25l-75 116z" />
    <glyph glyph-name="plus" unicode="+" horiz-adv-x="540" 
d="M249 102v185h-184v41h184v185h43v-185h184v-41h-184v-185h-43z" />
    <glyph glyph-name="comma" unicode="," horiz-adv-x="186" 
d="M6 -150l76 250h59l-100 -250h-35z" />
    <glyph glyph-name="hyphen" unicode="-" horiz-adv-x="428" 
d="M50 267v50h328v-50h-328z" />
    <glyph glyph-name="period" unicode="." horiz-adv-x="210" 
d="M105 -10q-19 0 -32 13t-13 32q0 20 13 33q13 12 32 12t33 -12q12 -14 12 -33t-12 -32q-13 -13 -33 -13z" />
    <glyph glyph-name="slash" unicode="/" horiz-adv-x="424" 
d="M-11 -210l392 970h54l-392 -970h-54z" />
    <glyph glyph-name="zero" unicode="0" horiz-adv-x="540" 
d="M270 -10q-107 0 -162 76q-56 76 -56 218v122q0 142 56 219q56 75 162 75t162 -75q56 -77 56 -219v-122q0 -142 -56 -218q-55 -76 -162 -76zM270 40q80 0 124 63q42 62 42 181v122q0 119 -42 182q-44 62 -124 62q-81 0 -123 -62q-43 -62 -43 -182v-122q0 -120 43 -181
q42 -63 123 -63z" />
    <glyph glyph-name="one" unicode="1" horiz-adv-x="540" 
d="M63 0v50h192v578l-192 -71v53l242 90v-650h172v-50h-414z" />
    <glyph glyph-name="two" unicode="2" horiz-adv-x="540" 
d="M68 0v30q0 50 24 92q23 40 59 72q29 26 93 74q58 44 91 73q34 30 58 70q23 41 23 88q0 69 -42 110q-43 40 -115 40q-61 0 -101 -32q-40 -34 -56 -99l-50 12q21 82 74 126q52 43 133 43q63 0 110 -25q48 -27 73 -70q26 -47 26 -105q0 -60 -26 -107q-27 -49 -64 -81
q-34 -31 -100 -80q-72 -52 -109 -91q-38 -40 -44 -90h354v-50h-411z" />
    <glyph glyph-name="three" unicode="3" horiz-adv-x="540" 
d="M246 -11q-78 0 -134 37q-57 36 -78 100l46 19q18 -51 61 -78t105 -27q84 0 133 43q48 44 48 119q0 48 -24 86t-67 60q-44 21 -99 21q-29 0 -46 -4v38l188 237h-316v50h386v-42l-182 -229q61 -6 110 -35q48 -30 75 -77t27 -105q0 -62 -29 -111q-28 -49 -82 -75
q-52 -27 -122 -27z" />
    <glyph glyph-name="four" unicode="4" horiz-adv-x="540" 
d="M354 0v215h-344v58l335 417h61v-425h124v-50h-124v-215h-52zM66 265h288v358z" />
    <glyph glyph-name="five" unicode="5" horiz-adv-x="540" 
d="M249 -10q-63 0 -116 27q-54 27 -84 74l44 28q23 -38 64 -58q40 -21 92 -21q79 0 128 48t49 125q0 73 -46 119q-46 45 -122 45q-72 0 -136 -40l-32 20l29 333h332v-50h-284l-21 -238q57 26 112 26q64 0 113 -27q52 -30 79 -77q28 -49 28 -111q0 -65 -29 -115
q-30 -51 -82 -79q-51 -29 -118 -29z" />
    <glyph glyph-name="six" unicode="6" horiz-adv-x="540" 
d="M270 -10q-62 0 -114 31t-82 85q-31 52 -31 117q0 69 29 132q31 66 107 164l133 171h64l-222 -285q49 38 116 38q63 0 117 -30q53 -30 84 -81q31 -52 31 -114t-31 -114q-32 -53 -84 -83q-53 -31 -117 -31zM270 40q49 0 91 24q41 24 65 65t24 89t-24 88q-23 39 -65 64
q-43 23 -91 23t-88 -22t-63 -62q-24 -39 -24 -86q0 -50 24 -92q23 -42 63 -66q40 -25 88 -25z" />
    <glyph glyph-name="seven" unicode="7" horiz-adv-x="540" 
d="M104 0l327 640h-393v50h454v-47l-333 -643h-55z" />
    <glyph glyph-name="eight" unicode="8" horiz-adv-x="540" 
d="M270 -10q-68 0 -119 24q-51 23 -80 69q-28 43 -28 102q0 63 33 109q31 45 90 68q-46 21 -72 62t-26 96q0 82 55 131t147 49t147 -49t55 -131q0 -56 -25 -96q-26 -41 -73 -62q59 -23 91 -68q32 -47 32 -109q0 -59 -28 -102q-29 -45 -79 -69q-52 -24 -120 -24zM270 384
q68 0 109 36t41 97q0 59 -41 97q-40 36 -109 36q-68 0 -109 -36q-41 -38 -41 -97q0 -61 41 -97q40 -36 109 -36zM270 40q78 0 127 41q48 41 48 108q0 66 -48 107q-47 40 -127 40t-127 -40q-48 -41 -48 -107q0 -67 48 -108q49 -41 127 -41z" />
    <glyph glyph-name="nine" unicode="9" horiz-adv-x="540" 
d="M164 0l222 285q-49 -38 -116 -38q-64 0 -116 30q-54 30 -85 82q-31 50 -31 113t31 115q31 51 85 83q52 30 116 30q62 0 114 -31q51 -31 83 -84q30 -54 30 -118q0 -72 -28 -132q-29 -63 -108 -164l-133 -171h-64zM270 297q47 0 88 23q40 22 64 61q23 40 23 86q0 49 -23 92
q-24 42 -64 67q-40 24 -88 24q-50 0 -90 -24q-42 -24 -66 -64t-24 -90q0 -48 24 -88t66 -63q40 -24 90 -24z" />
    <glyph glyph-name="colon" unicode=":" horiz-adv-x="210" 
d="M105 420q-19 0 -32 13t-13 32q0 20 13 33q14 12 32 12q19 0 33 -12q12 -14 12 -33t-12 -32q-13 -13 -33 -13zM105 -10q-19 0 -32 13t-13 32q0 20 13 33q13 12 32 12t33 -12q12 -14 12 -33t-12 -32q-13 -13 -33 -13z" />
    <glyph glyph-name="semicolon" unicode=";" horiz-adv-x="210" 
d="M105 420q-19 0 -32 13t-13 32q0 20 13 33q14 12 32 12q19 0 33 -12q12 -14 12 -33t-12 -32q-13 -13 -33 -13zM6 -150l76 250h59l-100 -250h-35z" />
    <glyph glyph-name="less" unicode="&#x3c;" horiz-adv-x="540" 
d="M476 100l-411 181v53l411 181v-45l-364 -162v-1l364 -162v-45z" />
    <glyph glyph-name="equal" unicode="=" horiz-adv-x="540" 
d="M65 357v40h411v-40h-411zM65 217v40h411v-40h-411z" />
    <glyph glyph-name="greater" unicode="&#x3e;" horiz-adv-x="540" 
d="M65 100v45l364 162v1l-364 162v45l411 -181v-53z" />
    <glyph glyph-name="question" unicode="?" horiz-adv-x="508" 
d="M213 188l-4 135q119 18 162 66q43 47 43 113q0 68 -45 108q-45 39 -122 39q-71 0 -117 -31q-47 -32 -71 -94l-49 16q62 159 237 159q65 0 115 -24q48 -25 77 -70q27 -45 27 -103q0 -74 -46 -135t-165 -81l-2 -98h-40zM233 -10q-19 0 -32 13t-13 32q0 20 13 33
q13 12 32 12t33 -12q12 -14 12 -33t-12 -32q-13 -13 -33 -13z" />
    <glyph glyph-name="at" unicode="@" horiz-adv-x="841" 
d="M421 -90q-113 0 -196 44q-83 43 -129 127q-45 83 -45 195q0 111 47 205q47 92 132 146q86 54 195 54t192 -44q82 -43 128 -124q45 -81 45 -187q0 -80 -21 -135q-21 -56 -55 -84q-35 -29 -77 -29q-40 0 -65 25q-27 25 -31 63q-27 -42 -63 -64q-38 -24 -86 -24
q-49 0 -88 24q-39 22 -62 66q-22 43 -22 100q0 65 23 122q22 54 67 86q44 32 105 32q53 0 93 -29q39 -29 57 -81l14 102h41l-41 -297q-1 -3 -1 -14q0 -29 17 -49q16 -19 47 -19q32 0 57 24q26 24 42 70q15 47 15 111q0 96 -41 170q-40 70 -115 112q-75 39 -175 39
q-102 0 -178 -49q-78 -49 -120 -134q-42 -86 -42 -188q0 -103 41 -179q40 -74 117 -115q77 -39 178 -39q121 0 213 59l16 -28q-103 -64 -229 -64zM394 121q47 0 81 25q36 27 55 67q19 41 19 92q0 72 -37 116q-38 44 -99 44q-72 0 -109 -55q-38 -56 -38 -139q0 -69 36 -110
q34 -40 92 -40z" />
    <glyph glyph-name="A" unicode="A" horiz-adv-x="641" 
d="M10 0l278 690h64l279 -690h-55l-93 235h-325l-93 -235h-55zM178 285h285l-142 358z" />
    <glyph glyph-name="B" unicode="B" horiz-adv-x="643" 
d="M100 0v690h212q98 0 154 -49q56 -50 56 -133q0 -54 -24 -92q-26 -39 -70 -60q68 -15 106 -59q37 -43 37 -111q0 -86 -58 -135q-59 -51 -156 -51h-257zM152 374h163q74 0 115 35q40 34 40 98q0 65 -40 99t-115 34h-163v-266zM152 50h208q77 0 118 35t41 101q0 67 -41 103
q-41 35 -118 35h-208v-274z" />
    <glyph glyph-name="C" unicode="C" horiz-adv-x="705" 
d="M415 -11q-105 0 -185 46q-81 44 -128 126q-46 80 -46 184t46 184q47 81 128 127q81 45 185 45q154 0 250 -102l-37 -36q-88 88 -213 88q-88 0 -158 -38q-70 -39 -109 -108q-40 -70 -40 -160q0 -91 40 -159q39 -71 109 -108q69 -39 158 -39q125 0 213 88l37 -36
q-96 -102 -250 -102z" />
    <glyph glyph-name="D" unicode="D" horiz-adv-x="709" 
d="M100 0v690h189q114 0 197 -44q81 -43 125 -122q42 -78 42 -179t-42 -179q-44 -79 -125 -122q-83 -44 -197 -44h-189zM152 50h137q100 0 171 38t106 104q35 67 35 153t-35 154q-37 67 -106 104q-70 37 -171 37h-137v-590z" />
    <glyph glyph-name="E" unicode="E" horiz-adv-x="598" 
d="M100 0v690h444v-50h-392v-262h355v-49h-355v-279h392v-50h-444z" />
    <glyph glyph-name="F" unicode="F" horiz-adv-x="562" 
d="M100 0v690h434v-50h-382v-271h345v-50h-345v-319h-52z" />
    <glyph glyph-name="G" unicode="G" horiz-adv-x="817" 
d="M412 -11q-103 0 -183 46q-82 45 -127 126q-46 80 -46 184q0 102 47 184q47 81 128 127q83 45 186 45q154 0 250 -102l-37 -36q-88 88 -213 88q-88 0 -158 -38q-70 -39 -109 -108q-40 -70 -40 -160t39 -159q37 -70 107 -108q69 -39 156 -39q82 0 147 34q66 34 106 95
q39 60 47 141h-305v50h360v-14q0 -103 -45 -184q-47 -81 -127 -126q-80 -46 -183 -46z" />
    <glyph glyph-name="H" unicode="H" horiz-adv-x="732" 
d="M100 0v690h52v-313h428v313h52v-690h-52v327h-428v-327h-52z" />
    <glyph glyph-name="I" unicode="I" horiz-adv-x="252" 
d="M100 0v690h52v-690h-52z" />
    <glyph glyph-name="J" unicode="J" horiz-adv-x="391" 
d="M93 -8q-55 0 -93 23l23 44q32 -17 69 -17q147 0 147 179v469h52v-473q0 -106 -52 -165q-53 -60 -146 -60z" />
    <glyph glyph-name="K" unicode="K" horiz-adv-x="605" 
d="M100 0v690h52v-315h72l304 315h71l-328 -338l344 -352h-75l-317 325h-71v-325h-52z" />
    <glyph glyph-name="L" unicode="L" horiz-adv-x="510" 
d="M100 0v690h52v-640h348v-50h-400z" />
    <glyph glyph-name="M" unicode="M" horiz-adv-x="862" 
d="M100 0v690h56l275 -374l275 374h56v-690h-52v610l-276 -376h-6l-276 376v-610h-52z" />
    <glyph glyph-name="N" unicode="N" horiz-adv-x="762" 
d="M100 0v690h58l452 -612v612h52v-690h-59l-451 610v-610h-52z" />
    <glyph glyph-name="O" unicode="O" horiz-adv-x="821" 
d="M411 -10q-103 0 -183 46q-81 45 -126 126q-46 80 -46 183t46 183q45 80 126 126q81 45 183 45t183 -45q80 -46 126 -126q45 -81 45 -183t-45 -183q-46 -81 -126 -126q-80 -46 -183 -46zM411 40q86 0 155 39t108 109q39 69 39 157t-39 157t-107 108q-69 39 -156 39
t-156 -39t-108 -108t-39 -157t39 -157q39 -70 108 -109t156 -39z" />
    <glyph glyph-name="P" unicode="P" horiz-adv-x="603" 
d="M100 0v690h231q107 0 168 -54q62 -56 62 -148q0 -93 -62 -149q-61 -55 -168 -55h-179v-284h-52zM152 334h183q85 0 129 40q45 40 45 114q0 72 -45 113q-45 39 -129 39h-183v-306z" />
    <glyph glyph-name="Q" unicode="Q" horiz-adv-x="821" 
d="M758 -29l-111 102q-46 -40 -106 -61q-59 -22 -130 -22q-103 0 -183 46q-81 45 -126 126q-46 80 -46 183t46 183q45 80 126 126q81 45 183 45t183 -45q80 -46 126 -126q45 -81 45 -183q0 -70 -21 -130q-23 -62 -62 -107l108 -99zM411 40q57 0 107 18q48 16 90 50l-163 149
l32 38l166 -152q34 40 52 92q18 51 18 110q0 88 -39 157t-107 108q-69 39 -156 39t-156 -39t-108 -108t-39 -157t39 -157q39 -70 108 -109t156 -39z" />
    <glyph glyph-name="R" unicode="R" horiz-adv-x="616" 
d="M100 0v690h222q107 0 171 -53q63 -53 63 -144q0 -79 -50 -131q-51 -53 -139 -63l211 -299h-63l-208 296h-155v-296h-52zM152 345h174q86 0 133 39q45 38 45 109q0 73 -45 110q-44 37 -133 37h-174v-295z" />
    <glyph glyph-name="S" unicode="S" horiz-adv-x="594" 
d="M276 -11q-62 0 -121 18q-59 17 -103 50l28 45q88 -61 197 -61q97 0 148 39t51 105q0 44 -25 70q-25 27 -63 42q-35 13 -103 30q-73 18 -116 36q-44 16 -75 52q-31 34 -31 94q0 57 30 100q28 42 83 67q54 24 123 24q62 0 119 -19q56 -19 103 -57l-31 -46q-91 71 -191 71
q-85 0 -134 -39q-49 -40 -49 -101q0 -40 25 -65q23 -24 60 -38q35 -14 99 -30q71 -17 119 -36q47 -18 78 -55t31 -99q0 -59 -31 -102q-31 -45 -88 -70t-133 -25z" />
    <glyph glyph-name="T" unicode="T" horiz-adv-x="592" 
d="M270 0v642h-260v48h572v-48h-260v-642h-52z" />
    <glyph glyph-name="U" unicode="U" horiz-adv-x="711" 
d="M355 -10q-79 0 -138 34q-61 35 -92 97q-33 61 -33 145v424h52v-420q0 -108 57 -169t154 -61q98 0 155 61t57 169v420h52v-424q0 -84 -33 -145q-32 -62 -92 -97q-59 -34 -139 -34z" />
    <glyph glyph-name="V" unicode="V" horiz-adv-x="642" 
d="M289 0l-279 690h56l255 -645l255 645h56l-279 -690h-64z" />
    <glyph glyph-name="W" unicode="W" horiz-adv-x="954" 
d="M224 0l-214 690h55l188 -616l196 616h56l196 -616l188 616h55l-214 -690h-58l-195 614l-195 -614h-58z" />
    <glyph glyph-name="X" unicode="X" horiz-adv-x="622" 
d="M12 0l267 353l-255 337h65l223 -300l221 300h65l-254 -337l266 -353h-65l-233 317l-235 -317h-65z" />
    <glyph glyph-name="Y" unicode="Y" horiz-adv-x="586" 
d="M267 0v288l-257 402h61l222 -351l222 351h61l-257 -402v-288h-52z" />
    <glyph glyph-name="Z" unicode="Z" horiz-adv-x="640" 
d="M61 0v60l447 578h-435v52h495v-60l-448 -578h460v-52h-519z" />
    <glyph glyph-name="bracketleft" unicode="[" horiz-adv-x="363" 
d="M90 -210v970h233v-44h-185v-882h185v-44h-233z" />
    <glyph glyph-name="backslash" unicode="\" horiz-adv-x="424" 
d="M381 -210l-392 970h54l392 -970h-54z" />
    <glyph glyph-name="bracketright" unicode="]" horiz-adv-x="363" 
d="M40 -210v44h185v882h-185v44h233v-970h-233z" />
    <glyph glyph-name="asciicircum" unicode="^" horiz-adv-x="404" 
d="M13 360l161 331h57l161 -331h-50l-139 288h-2l-139 -288h-49z" />
    <glyph glyph-name="underscore" unicode="_" horiz-adv-x="500" 
d="M0 -140v48h500v-48h-500z" />
    <glyph glyph-name="grave" unicode="`" horiz-adv-x="600" 
d="M163 587l-133 153h73l113 -153h-53z" />
    <glyph glyph-name="a" unicode="a" horiz-adv-x="639" 
d="M301 -8q-73 0 -129 33q-57 33 -89 92t-32 133q0 75 32 134q31 57 89 91q56 33 129 33q63 0 116 -29q51 -29 80 -80l8 101h42v-500h-42l-8 101q-30 -52 -80 -79q-53 -30 -116 -30zM301 40q53 0 97 25q45 24 72 70q27 47 27 108v14q0 61 -27 108q-26 45 -72 71
q-45 24 -97 24q-58 0 -104 -26q-45 -26 -71 -74q-25 -47 -25 -110t25 -109q26 -49 71 -74q45 -27 104 -27z" />
    <glyph glyph-name="b" unicode="b" horiz-adv-x="639" 
d="M338 -8q-64 0 -116 30q-50 27 -80 79l-8 -101h-42v760h50v-360q29 51 81 79q53 29 115 29q73 0 130 -33q57 -34 88 -91q32 -59 32 -134q0 -74 -32 -133q-31 -58 -88 -92q-57 -33 -130 -33zM338 40q58 0 105 27q44 25 70 74q25 46 25 109t-25 110q-26 48 -70 74
q-47 26 -105 26q-52 0 -97 -24q-46 -26 -72 -71q-27 -47 -27 -108v-14q0 -61 27 -108q27 -46 72 -70q44 -25 97 -25z" />
    <glyph glyph-name="c" unicode="c" horiz-adv-x="513" 
d="M311 -8q-75 0 -134 33q-60 33 -93 92t-33 133q0 76 33 134t93 91q58 33 134 33q55 0 101 -18q46 -20 81 -57l-35 -34q-61 61 -147 61q-59 0 -108 -26q-48 -27 -75 -74q-27 -48 -27 -110t27 -109q27 -49 75 -74q48 -27 108 -27q86 0 147 61l35 -34q-35 -38 -81 -56
q-45 -19 -101 -19z" />
    <glyph glyph-name="d" unicode="d" horiz-adv-x="639" 
d="M301 -8q-73 0 -129 33q-57 33 -89 92t-32 133q0 75 32 134q31 57 89 91q56 33 129 33q62 0 115 -29q52 -28 81 -79v360h50v-760h-42l-8 101q-30 -52 -80 -79q-53 -30 -116 -30zM301 40q53 0 97 25q45 24 72 70q27 47 27 108v14q0 61 -27 108q-26 45 -72 71q-45 24 -97 24
q-58 0 -104 -26q-45 -26 -71 -74q-25 -47 -25 -110t25 -109q26 -49 71 -74q45 -27 104 -27z" />
    <glyph glyph-name="e" unicode="e" horiz-adv-x="580" 
d="M311 -8q-75 0 -134 33q-60 33 -93 92t-33 133q0 76 31 134q32 59 86 91q54 33 124 33q69 0 122 -31q52 -31 85 -88q30 -57 30 -129q0 -21 -1 -27h-426q3 -58 31 -101q30 -45 74 -68q46 -24 104 -24q89 0 157 60l29 -42q-39 -33 -86 -49q-49 -17 -100 -17zM103 281h374
q-10 81 -60 131q-49 48 -125 48t-128 -49t-61 -130z" />
    <glyph glyph-name="f" unicode="f" horiz-adv-x="328" 
d="M113 0v452h-93v48h93v120q0 67 35 107q35 39 97 39q44 0 86 -21l-20 -47q-35 18 -65 18q-42 0 -62 -24q-21 -26 -21 -76v-116h145v-48h-145v-452h-50z" />
    <glyph glyph-name="g" unicode="g" horiz-adv-x="639" 
d="M291 -218q-98 0 -184 44l21 45q41 -20 84 -32q38 -9 79 -9q98 0 153 53q53 55 53 152v65q-29 -51 -81 -79q-53 -29 -115 -29q-73 0 -130 33q-56 32 -88 92q-32 59 -32 133q0 75 32 134q31 58 88 91t130 33q63 0 116 -29q51 -29 80 -80l8 101h42v-465q0 -120 -67 -187
q-68 -66 -189 -66zM301 40q53 0 97 25q45 24 72 70q27 47 27 108v14q0 61 -27 108q-26 45 -72 71q-45 24 -97 24q-57 0 -102 -27q-47 -29 -72 -76q-26 -49 -26 -107t26 -107q25 -48 72 -75q44 -28 102 -28z" />
    <glyph glyph-name="h" unicode="h" horiz-adv-x="584" 
d="M92 0v760h50v-340q55 88 165 88q89 0 142 -56q53 -58 53 -152v-300h-50v296q0 80 -38 123q-38 41 -107 41q-77 0 -120 -49q-45 -49 -45 -142v-269h-50z" />
    <glyph glyph-name="i" unicode="i" horiz-adv-x="234" 
d="M117 647q-17 0 -28 12q-12 11 -12 28t12 29q11 11 28 11q16 0 29 -11q11 -13 11 -29q0 -17 -11 -28q-12 -12 -29 -12zM92 0v500h50v-500h-50z" />
    <glyph glyph-name="j" unicode="j" horiz-adv-x="234" 
d="M117 647q-17 0 -28 12q-12 11 -12 28t12 29q11 11 28 11q16 0 29 -11q11 -13 11 -29q0 -17 -11 -28q-12 -12 -29 -12zM-5 -218q-34 0 -58 10l16 45q17 -7 41 -7q98 0 98 110v560h50v-562q0 -73 -39 -115q-39 -41 -108 -41z" />
    <glyph glyph-name="k" unicode="k" horiz-adv-x="501" 
d="M92 0v760h50v-482h55l223 222h71l-246 -245l266 -255h-72l-240 230h-57v-230h-50z" />
    <glyph glyph-name="l" unicode="l" horiz-adv-x="234" 
d="M92 0v760h50v-760h-50z" />
    <glyph glyph-name="m" unicode="m" horiz-adv-x="904" 
d="M92 0v500h42l7 -81q50 89 156 89q63 0 107 -29q45 -31 64 -84q51 113 169 113q85 0 135 -53q50 -55 50 -145v-310h-50v306q0 75 -35 115q-35 39 -100 39q-71 0 -113 -49t-42 -142v-269h-50v306q0 75 -35 115q-35 39 -100 39q-71 0 -113 -49t-42 -142v-269h-50z" />
    <glyph glyph-name="n" unicode="n" horiz-adv-x="584" 
d="M92 0v500h42l7 -82q52 90 166 90q89 0 142 -56q53 -58 53 -152v-300h-50v296q0 80 -38 123q-38 41 -107 41q-77 0 -120 -49q-45 -49 -45 -142v-269h-50z" />
    <glyph glyph-name="o" unicode="o" horiz-adv-x="618" 
d="M309 -8q-75 0 -133 33q-59 33 -92 92t-33 133q0 76 33 134q32 57 92 91q58 33 133 33t134 -33q58 -33 91 -91t33 -134q0 -74 -33 -133q-34 -60 -91 -92q-59 -33 -134 -33zM309 40q60 0 108 27q47 27 74 75q26 47 26 108q0 60 -26 109q-27 47 -74 74q-48 27 -108 27
t-107 -27q-48 -27 -74 -74q-27 -48 -27 -109q0 -62 27 -108q25 -48 74 -75q47 -27 107 -27z" />
    <glyph glyph-name="p" unicode="p" horiz-adv-x="639" 
d="M92 -210v710h42l8 -101q29 51 80 80q53 29 116 29q73 0 130 -33q57 -34 88 -91q32 -59 32 -134q0 -74 -32 -133q-31 -58 -88 -92q-57 -33 -130 -33q-62 0 -115 29q-52 28 -81 79v-310h-50zM338 40q58 0 105 27q44 25 70 74q25 46 25 109t-25 110q-26 48 -70 74
q-47 26 -105 26q-52 0 -97 -24q-46 -26 -72 -71q-27 -47 -27 -108v-14q0 -61 27 -108q27 -46 72 -70q44 -25 97 -25z" />
    <glyph glyph-name="q" unicode="q" horiz-adv-x="639" 
d="M497 -210v310q-29 -51 -81 -79q-53 -29 -115 -29q-73 0 -129 33q-57 33 -89 92t-32 133q0 75 32 134q31 57 89 91q56 33 129 33q63 0 116 -29q51 -29 80 -80l8 101h42v-710h-50zM301 40q53 0 97 25q45 24 72 70q27 47 27 108v14q0 61 -27 108q-26 45 -72 71
q-45 24 -97 24q-58 0 -104 -26q-45 -26 -71 -74q-25 -47 -25 -110t25 -109q26 -49 71 -74q45 -27 104 -27z" />
    <glyph glyph-name="r" unicode="r" horiz-adv-x="361" 
d="M92 0v500h42l6 -73q27 42 62 62q34 19 81 19q26 0 58 -8v-52q-29 10 -60 10q-64 0 -101 -37q-38 -38 -38 -112v-309h-50z" />
    <glyph glyph-name="s" unicode="s" horiz-adv-x="450" 
d="M209 -8q-46 0 -88 13q-41 11 -76 35l25 43q61 -43 139 -43q66 0 101 26t35 68q0 28 -17 47q-17 17 -44 28q-20 8 -70 22q-47 12 -84 28q-32 13 -54 39q-23 26 -23 70q0 62 49 101q48 39 125 39q43 0 87 -14q40 -13 76 -41l-28 -42q-64 49 -138 49q-57 0 -88 -25
q-33 -25 -33 -66q0 -26 17 -43q18 -18 41 -26q27 -11 68 -21q48 -12 87 -28q32 -14 56 -41q23 -29 23 -74q0 -64 -51 -104q-50 -40 -135 -40z" />
    <glyph glyph-name="t" unicode="t" horiz-adv-x="388" 
d="M260 -8q-69 0 -108 43t-39 119v298h-93v48h93v144h50v-144h200v-48h-200v-294q0 -61 25 -89q24 -29 75 -29t94 28l20 -44q-55 -32 -117 -32z" />
    <glyph glyph-name="u" unicode="u" horiz-adv-x="570" 
d="M285 -8q-91 0 -147 57q-56 56 -56 151v300h50v-296q0 -77 41 -121q40 -43 112 -43t112 43q41 44 41 121v296h50v-300q0 -96 -55 -151q-56 -57 -148 -57z" />
    <glyph glyph-name="v" unicode="v" horiz-adv-x="486" 
d="M209 0l-199 500h54l179 -459l179 459h54l-199 -500h-68z" />
    <glyph glyph-name="w" unicode="w" horiz-adv-x="790" 
d="M184 0l-174 500h53l152 -444l151 444h58l151 -444l152 444h53l-174 -500h-62l-149 438l-149 -438h-62z" />
    <glyph glyph-name="x" unicode="x" horiz-adv-x="491" 
d="M10 0l206 256l-196 244h63l163 -206l162 206h63l-195 -244l205 -256h-63l-172 219l-173 -219h-63z" />
    <glyph glyph-name="y" unicode="y" horiz-adv-x="490" 
d="M62 -214q-21 0 -33 4l9 49q11 -3 25 -3q42 0 68 13q27 14 49 44q23 35 44 89l6 16l-220 502h54l192 -445l171 445h53l-209 -537q-37 -98 -85 -138q-48 -39 -124 -39z" />
    <glyph glyph-name="z" unicode="z" horiz-adv-x="519" 
d="M60 0v55l330 397h-320v48h379v-55l-330 -397h340v-48h-399z" />
    <glyph glyph-name="braceleft" unicode="{" horiz-adv-x="404" 
d="M344 -210q-88 0 -141 56q-52 55 -52 153v114q0 62 -32 100q-33 37 -89 37v50q56 0 89 37q32 38 32 100v114q0 98 52 153q53 56 141 56h20v-44h-20q-67 0 -106 -44q-39 -45 -39 -121v-114q0 -62 -26 -106q-26 -42 -74 -56q48 -14 74 -56q26 -44 26 -106v-114
q0 -76 39 -121q39 -44 106 -44h20v-44h-20z" />
    <glyph glyph-name="bar" unicode="|" horiz-adv-x="212" 
d="M80 -210v970h52v-970h-52z" />
    <glyph glyph-name="braceright" unicode="}" horiz-adv-x="404" 
d="M40 -210v44h20q67 0 106 44q39 45 39 121v114q0 63 27 106q25 42 73 56q-48 14 -73 56q-27 43 -27 106v114q0 76 -39 121q-39 44 -106 44h-20v44h20q88 0 141 -56q52 -55 52 -153v-114q0 -63 33 -100q31 -37 88 -37v-50q-57 0 -88 -37q-33 -37 -33 -100v-114
q0 -98 -52 -153q-53 -56 -141 -56h-20z" />
    <glyph glyph-name="asciitilde" unicode="~" horiz-adv-x="557" 
d="M402 225q-38 0 -67 17q-29 16 -66 48q-39 32 -59 44q-26 14 -56 14q-42 0 -67 -31t-25 -81h-38q0 69 36 111t95 42q39 0 67 -16q28 -17 66 -48q33 -30 58 -43q26 -15 57 -15q43 0 68 31q25 29 25 80h37q0 -69 -36 -111t-95 -42z" />
    <glyph glyph-name="uni00A0" unicode="&#xa0;" horiz-adv-x="240" 
 />
    <glyph glyph-name="exclamdown" unicode="&#xa1;" horiz-adv-x="230" 
d="M115 420q-19 0 -32 13t-13 32q0 20 13 33q13 12 32 12t33 -12q12 -14 12 -33t-12 -32q-13 -13 -33 -13zM82 -190l13 502h40l13 -502h-66z" />
    <glyph glyph-name="cent" unicode="&#xa2;" horiz-adv-x="540" 
d="M278 0v94q-67 7 -118 42q-52 34 -81 90t-29 124q0 69 29 125q29 55 81 90q49 33 118 41v84h48v-82q104 -7 166 -75l-35 -34q-56 56 -131 60v-418q75 4 131 60l35 -34q-62 -68 -166 -75v-92h-48zM278 142v416q-78 -10 -129 -67q-49 -55 -49 -141t49 -141q51 -57 129 -67z
" />
    <glyph glyph-name="sterling" unicode="&#xa3;" horiz-adv-x="540" 
d="M25 0v49q60 13 91 61q29 47 29 126v84h-101v50h101v124q0 95 50 151q49 55 136 55q53 0 95 -19q41 -18 71 -55l-39 -34q-49 58 -127 58q-65 0 -99 -40q-35 -41 -35 -116v-124h203v-50h-203v-84q0 -64 -17 -113q-16 -47 -53 -73h373v-50h-475z" />
    <glyph glyph-name="currency" unicode="&#xa4;" horiz-adv-x="601" 
d="M89 12l-39 40l67 65q-47 62 -47 146t46 145l-66 67l39 39l66 -67q61 46 145 46t145 -47l67 68l39 -39l-67 -68q46 -59 46 -144q0 -86 -46 -145l67 -66l-39 -40l-67 68q-61 -47 -145 -47t-145 46zM300 78q53 0 95 24t66 66q23 43 23 95t-23 95q-24 42 -66 66
q-43 23 -95 23t-95 -23q-43 -24 -66 -66q-24 -42 -24 -95t24 -95q23 -42 66 -66q42 -24 95 -24z" />
    <glyph glyph-name="yen" unicode="&#xa5;" horiz-adv-x="540" 
d="M244 0v190h-180v50h180v110h-180v50h153l-185 290h61l177 -281l177 281h61l-185 -290h153v-50h-180v-110h180v-50h-180v-190h-52z" />
    <glyph glyph-name="brokenbar" unicode="&#xa6;" horiz-adv-x="212" 
d="M80 410v350h52v-350h-52zM80 -210v350h52v-350h-52z" />
    <glyph glyph-name="section" unicode="&#xa7;" horiz-adv-x="492" 
d="M221 -108q-45 0 -88 12q-43 13 -76 36l25 43q61 -43 139 -43q67 0 101 25q35 26 35 69q0 29 -18 47q-19 18 -44 29q-36 14 -74 25q-58 17 -92 33q-35 15 -59 44q-25 28 -25 76q0 44 36 85q35 39 99 63q-49 19 -77 49q-28 28 -28 76q0 62 49 101q48 39 125 39q43 0 87 -14
q40 -13 76 -41l-28 -42q-64 49 -138 49q-57 0 -88 -25q-33 -26 -33 -66q0 -28 18 -44q17 -18 44 -29q28 -13 72 -26q57 -17 93 -33q34 -16 60 -45q25 -29 25 -76q0 -49 -36 -87q-36 -39 -97 -60q45 -18 76 -49q27 -29 27 -77q0 -64 -51 -104q-50 -40 -135 -40zM237 184
q70 16 110 49t40 74q0 30 -20 50q-23 21 -48 31q-6 2 -84 29q-71 -21 -105 -54q-35 -35 -35 -74q0 -30 19 -49q20 -20 46 -30q31 -12 77 -26z" />
    <glyph glyph-name="dieresis" unicode="&#xa8;" horiz-adv-x="336" 
d="M68 649q-16 0 -27 11t-11 27q0 17 11 28q10 10 27 10q18 0 28 -10t10 -28q0 -17 -10 -27q-11 -11 -28 -11zM268 649q-16 0 -27 11t-11 27q0 17 11 28q10 10 27 10q18 0 28 -10t10 -28q0 -17 -10 -27q-11 -11 -28 -11z" />
    <glyph glyph-name="copyright" unicode="&#xa9;" horiz-adv-x="822" 
d="M411 -10q-104 0 -183 46q-81 45 -126 126q-46 79 -46 183t46 184q45 79 126 126q80 45 183 45t184 -45q79 -47 126 -126q45 -81 45 -184t-45 -183q-47 -81 -126 -126q-80 -46 -184 -46zM411 35q90 0 160 40q70 39 111 110q39 70 39 160t-39 160q-40 71 -111 111
q-70 39 -160 39q-89 0 -160 -39q-71 -41 -110 -111q-40 -70 -40 -160t40 -160q39 -71 110 -110q70 -40 160 -40zM417 131q-62 0 -111 28q-49 27 -76 76q-28 47 -28 110q0 62 28 111q27 48 76 76q50 27 111 27q94 0 151 -63l-34 -35q-50 50 -117 50q-72 0 -118 -46
q-47 -47 -47 -120t47 -120q46 -46 118 -46q69 0 117 49l34 -34q-57 -63 -151 -63z" />
    <glyph glyph-name="ordfeminine" unicode="&#xaa;" horiz-adv-x="467" 
d="M213 334q-49 0 -89 23q-39 22 -61 64q-22 40 -22 93v2q0 53 22 93q22 42 61 64q40 23 89 23q41 0 76 -18q36 -21 56 -50l6 62h42v-350h-42l-6 62q-20 -30 -56 -49q-34 -19 -76 -19zM218 381q52 0 90 35q37 34 37 94v10q0 60 -37 94q-38 35 -90 35q-56 0 -92 -38
q-37 -37 -37 -95v-2q0 -58 37 -95q36 -38 92 -38z" />
    <glyph glyph-name="guillemotleft" unicode="&#xab;" horiz-adv-x="532" 
d="M220 95l-160 197l160 197h62l-160 -197l160 -197h-62zM400 95l-160 197l160 197h62l-160 -197l160 -197h-62z" />
    <glyph glyph-name="logicalnot" unicode="&#xac;" horiz-adv-x="540" 
d="M434 146v241h-369v43h411v-284h-42z" />
    <glyph glyph-name="uni00AD" unicode="&#xad;" horiz-adv-x="428" 
d="M50 267v50h328v-50h-328z" />
    <glyph glyph-name="registered" unicode="&#xae;" horiz-adv-x="600" 
d="M286 240q-66 0 -119 30q-53 28 -81 81q-30 53 -30 119t30 119q28 52 81 82q53 29 119 29t119 -29q52 -30 82 -82q29 -53 29 -119t-29 -119q-30 -53 -82 -81q-53 -30 -119 -30zM286 279q56 0 99 25q42 23 68 68q24 44 24 98q0 56 -24 99q-25 43 -68 68q-43 24 -99 24
q-54 0 -98 -24q-45 -26 -68 -68q-25 -43 -25 -99q0 -55 25 -98q24 -44 68 -68q43 -25 98 -25zM194 346v248h101q40 0 64 -21q23 -23 23 -59q0 -31 -16 -50q-17 -20 -43 -27l66 -91h-51l-64 88h-38v-88h-42zM236 471h56q22 0 36 12q13 10 13 31t-13 31q-14 11 -36 11h-56v-85
z" />
    <glyph glyph-name="macron" unicode="&#xaf;" horiz-adv-x="325" 
d="M30 633v48h265v-48h-265z" />
    <glyph glyph-name="degree" unicode="&#xb0;" horiz-adv-x="360" 
d="M180 430q-36 0 -67 19q-31 18 -49 49q-19 31 -19 67t19 67q17 30 49 50q31 18 67 18t67 -18q31 -19 50 -50q18 -32 18 -67t-18 -67q-20 -32 -50 -49q-31 -19 -67 -19zM180 475q37 0 64 27q26 26 26 63q0 36 -26 64q-28 26 -64 26q-37 0 -63 -26q-27 -27 -27 -64t27 -63
q25 -27 63 -27z" />
    <glyph glyph-name="plusminus" unicode="&#xb1;" horiz-adv-x="540" 
d="M250 112v180h-185v42h185v180h41v-180h185v-42h-185v-180h-41zM65 0v42h411v-42h-411z" />
    <glyph glyph-name="uni00B2" unicode="&#xb2;" horiz-adv-x="352" 
d="M51 449v17q0 44 27 74q28 31 78 65q49 33 70 57q23 26 23 59t-21 52q-23 18 -59 18q-34 0 -53 -16q-20 -17 -29 -50l-45 11q14 48 46 73q32 26 81 26q57 0 91 -31q35 -32 35 -83q0 -34 -15 -61q-17 -29 -38 -45q-21 -17 -58 -43q-31 -21 -55 -41q-18 -17 -26 -39h198v-43
h-250z" />
    <glyph glyph-name="uni00B3" unicode="&#xb3;" horiz-adv-x="353" 
d="M163 443q-46 0 -79 21q-34 19 -46 56l41 17q9 -24 31 -37t53 -13q41 0 67 20q24 19 24 56q0 35 -27 58q-28 22 -73 22q-15 0 -27 -2v32l93 112h-165v44h228v-33l-93 -112q50 -8 80 -41t30 -80q0 -54 -37 -87t-100 -33z" />
    <glyph glyph-name="acute" unicode="&#xb4;" horiz-adv-x="600" 
d="M30 587l113 153h73l-133 -153h-53z" />
    <glyph glyph-name="uni00B5" unicode="&#xb5;" horiz-adv-x="594" 
d="M92 -210v710h50v-296q0 -81 38 -122q38 -42 107 -42q76 0 121 49q44 50 44 142v269h50v-500h-42l-7 82q-53 -90 -166 -90q-47 0 -85 20t-60 57v-279h-50z" />
    <glyph glyph-name="paragraph" unicode="&#xb6;" horiz-adv-x="578" 
d="M300 -116v400h-44q-59 0 -108 25t-77 71q-29 47 -29 106q0 61 29 108t77 72q49 25 108 25h312v-50h-78v-757h-52v757h-86v-757h-52z" />
    <glyph glyph-name="periodcentered" unicode="&#xb7;" horiz-adv-x="210" 
d="M105 270q-19 0 -32 13t-13 32q0 20 13 33q14 12 32 12q19 0 33 -12q12 -14 12 -33t-12 -32q-13 -13 -33 -13z" />
    <glyph glyph-name="cedilla" unicode="&#xb8;" horiz-adv-x="167" 
d="M30 -200l46 150h61l-66 -150h-41z" />
    <glyph glyph-name="uni00B9" unicode="&#xb9;" horiz-adv-x="354" 
d="M55 449v43h103v280l-103 -36v45l148 53v-342h96v-43h-244z" />
    <glyph glyph-name="ordmasculine" unicode="&#xba;" horiz-adv-x="443" 
d="M221 334q-52 0 -93 23t-64 64t-23 93v2q0 52 23 93t64 64t93 23q51 0 94 -23q41 -23 64 -64t23 -93v-2q0 -52 -23 -93t-64 -64q-43 -23 -94 -23zM221 380q58 0 96 38q37 37 37 96v2q0 60 -37 97t-96 37q-58 0 -95 -37t-37 -97v-2q0 -59 37 -96q38 -38 95 -38z" />
    <glyph glyph-name="guillemotright" unicode="&#xbb;" horiz-adv-x="532" 
d="M70 95l160 197l-160 197h62l160 -197l-160 -197h-62zM250 95l160 197l-160 197h62l160 -197l-160 -197h-62z" />
    <glyph glyph-name="onequarter" unicode="&#xbc;" horiz-adv-x="884" 
d="M244 -23l-40 23l438 713l40 -23zM55 312v43h103v280l-103 -36v45l148 53v-342h96v-43h-244zM720 0v107h-192v49l186 224h51v-230h64v-43h-64v-107h-45zM574 150h146v176z" />
    <glyph glyph-name="onehalf" unicode="&#xbd;" horiz-adv-x="908" 
d="M244 -23l-40 23l438 713l40 -23zM55 312v43h103v280l-103 -36v45l148 53v-342h96v-43h-244zM603 0v17q0 44 27 74q28 31 78 65q49 33 70 57q23 26 23 59q0 32 -21 52q-22 18 -59 18q-34 0 -53 -16q-20 -17 -29 -50l-45 11q14 48 46 73q32 26 81 26q57 0 91 -31
q35 -32 35 -83q0 -34 -15 -61q-17 -29 -38 -45q-21 -17 -58 -43q-31 -21 -55 -41q-18 -17 -26 -39h198v-43h-250z" />
    <glyph glyph-name="threequarters" unicode="&#xbe;" horiz-adv-x="864" 
d="M263 -23l-40 23l438 713l40 -23zM163 306q-46 0 -79 21q-34 19 -46 56l41 17q9 -24 31 -37t53 -13q41 0 67 20q24 20 24 56t-27 58q-28 22 -73 22q-15 0 -27 -2v32l93 112h-165v44h228v-33l-93 -112q50 -8 80 -41t30 -80q0 -54 -37 -87t-100 -33zM729 0v107h-192v49
l186 224h51v-230h64v-43h-64v-107h-45zM583 150h146v176z" />
    <glyph glyph-name="questiondown" unicode="&#xbf;" horiz-adv-x="508" 
d="M275 420q-19 0 -32 13t-13 32q0 20 13 33q13 12 32 12t33 -12q12 -14 12 -33t-12 -32q-13 -13 -33 -13zM261 -199q-65 0 -114 24q-51 26 -77 70q-28 44 -28 103q0 73 47 135t164 81l2 98h40l4 -135q-119 -18 -162 -66q-43 -47 -43 -113q0 -68 45 -108q45 -39 122 -39
q72 0 118 31t70 94l49 -16q-62 -159 -237 -159z" />
    <glyph glyph-name="Agrave" unicode="&#xc0;" horiz-adv-x="641" 
d="M289 777l-133 153h73l113 -153h-53zM10 0l278 690h64l279 -690h-55l-93 235h-325l-93 -235h-55zM178 285h285l-142 358z" />
    <glyph glyph-name="Aacute" unicode="&#xc1;" horiz-adv-x="641" 
d="M298 777l113 153h73l-133 -153h-53zM10 0l278 690h64l279 -690h-55l-93 235h-325l-93 -235h-55zM178 285h285l-142 358z" />
    <glyph glyph-name="Acircumflex" unicode="&#xc2;" horiz-adv-x="641" 
d="M176 747l113 153h64l113 -153h-57l-88 119l-88 -119h-57zM10 0l278 690h64l279 -690h-55l-93 235h-325l-93 -235h-55zM178 285h285l-142 358z" />
    <glyph glyph-name="Atilde" unicode="&#xc3;" horiz-adv-x="641" 
d="M147 792q0 54 27 89q27 34 70 34q25 0 45 -11q16 -9 42 -31q23 -19 33 -25q14 -9 31 -9q54 0 54 76h45q0 -55 -27 -89t-70 -34q-24 0 -43 11q-20 11 -43 31q-19 16 -34 26q-14 8 -31 8q-54 0 -54 -76h-45zM10 0l278 690h64l279 -690h-55l-93 235h-325l-93 -235h-55z
M178 285h285l-142 358z" />
    <glyph glyph-name="Adieresis" unicode="&#xc4;" horiz-adv-x="641" 
d="M221 739q-16 0 -27 11t-11 27q0 17 11 28q10 10 27 10t27 -10q11 -11 11 -28q0 -16 -11 -27t-27 -11zM421 739q-16 0 -27 11t-11 27q0 17 11 28q10 10 27 10t27 -10q11 -11 11 -28q0 -16 -11 -27t-27 -11zM10 0l278 690h64l279 -690h-55l-93 235h-325l-93 -235h-55z
M178 285h285l-142 358z" />
    <glyph glyph-name="Aring" unicode="&#xc5;" horiz-adv-x="641" 
d="M10 0l272 676q-27 11 -44 35q-17 23 -17 52q0 39 30 67q28 28 70 28t71 -28q29 -29 29 -67q0 -30 -17 -53q-19 -25 -46 -35l273 -675h-55l-93 235h-325l-93 -235h-55zM321 708q26 0 43 16q17 17 17 39t-17 39q-17 16 -43 16t-42 -16q-18 -16 -18 -39t18 -39
q16 -16 42 -16zM178 285h285l-142 358z" />
    <glyph glyph-name="AE" unicode="&#xc6;" horiz-adv-x="875" 
d="M-10 0l348 690h483v-50h-342v-262h305v-49h-305v-279h342v-50h-394v235h-264l-117 -235h-56zM188 285h239v355h-63z" />
    <glyph glyph-name="Ccedilla" unicode="&#xc7;" horiz-adv-x="705" 
d="M415 -11q-105 0 -185 46q-81 44 -128 126q-46 80 -46 184t46 184q47 81 128 127q81 45 185 45q154 0 250 -102l-37 -36q-88 88 -213 88q-88 0 -158 -38q-70 -39 -109 -108q-40 -70 -40 -160q0 -91 40 -159q39 -71 109 -108q69 -39 158 -39q125 0 213 88l37 -36
q-96 -102 -250 -102zM342 -200l46 150h61l-66 -150h-41z" />
    <glyph glyph-name="Egrave" unicode="&#xc8;" horiz-adv-x="598" 
d="M267 777l-133 153h73l113 -153h-53zM100 0v690h444v-50h-392v-262h355v-49h-355v-279h392v-50h-444z" />
    <glyph glyph-name="Eacute" unicode="&#xc9;" horiz-adv-x="598" 
d="M276 777l113 153h73l-133 -153h-53zM100 0v690h444v-50h-392v-262h355v-49h-355v-279h392v-50h-444z" />
    <glyph glyph-name="Ecircumflex" unicode="&#xca;" horiz-adv-x="598" 
d="M154 747l113 153h64l113 -153h-57l-88 119l-88 -119h-57zM100 0v690h444v-50h-392v-262h355v-49h-355v-279h392v-50h-444z" />
    <glyph glyph-name="Edieresis" unicode="&#xcb;" horiz-adv-x="598" 
d="M222 739q-16 0 -27 11t-11 27q0 17 11 28q10 10 27 10t27 -10q11 -11 11 -28q0 -16 -11 -27t-27 -11zM422 739q-16 0 -27 11t-11 27q0 17 11 28q10 10 27 10t27 -10q11 -11 11 -28q0 -16 -11 -27t-27 -11zM100 0v690h444v-50h-392v-262h355v-49h-355v-279h392v-50h-444z
" />
    <glyph glyph-name="Igrave" unicode="&#xcc;" horiz-adv-x="252" 
d="M94 777l-133 153h73l113 -153h-53zM100 0v690h52v-690h-52z" />
    <glyph glyph-name="Iacute" unicode="&#xcd;" horiz-adv-x="252" 
d="M103 777l113 153h73l-133 -153h-53zM100 0v690h52v-690h-52z" />
    <glyph glyph-name="Icircumflex" unicode="&#xce;" horiz-adv-x="252" 
d="M-29 727l118 103h74l118 -103h-67l-88 77l-88 -77h-67zM100 0v690h52v-690h-52z" />
    <glyph glyph-name="Idieresis" unicode="&#xcf;" horiz-adv-x="252" 
d="M26 739q-15 0 -28 11q-10 10 -10 27q0 18 10 28q11 10 28 10t27 -10q11 -11 11 -28q0 -16 -11 -27t-27 -11zM226 739q-16 0 -27 11t-11 27q0 17 11 28q10 10 27 10t27 -10q11 -11 11 -28q0 -16 -11 -27t-27 -11zM100 0v690h52v-690h-52z" />
    <glyph glyph-name="Eth" unicode="&#xd0;" horiz-adv-x="709" 
d="M100 0v321h-100v48h100v321h189q114 0 197 -44q81 -43 125 -122q42 -78 42 -179t-42 -179q-44 -79 -125 -122q-83 -44 -197 -44h-189zM152 50h137q100 0 171 38t106 104q35 67 35 153t-35 154q-37 67 -106 104q-70 37 -171 37h-137v-271h165v-48h-165v-271z" />
    <glyph glyph-name="Ntilde" unicode="&#xd1;" horiz-adv-x="762" 
d="M207 722q0 50 27 82q27 31 70 31q26 0 45 -9q21 -12 42 -28q17 -13 33 -22q13 -7 31 -7q54 0 54 66h45q0 -50 -27 -82q-27 -31 -70 -31q-25 0 -43 9q-18 8 -43 27q-19 15 -34 23q-13 7 -31 7q-54 0 -54 -66h-45zM100 0v690h58l452 -612v612h52v-690h-59l-451 610v-610
h-52z" />
    <glyph glyph-name="Ograve" unicode="&#xd2;" horiz-adv-x="821" 
d="M379 777l-133 153h73l113 -153h-53zM411 -10q-103 0 -183 46q-81 45 -126 126q-46 80 -46 183t46 183q45 80 126 126q81 45 183 45t183 -45q80 -46 126 -126q45 -81 45 -183t-45 -183q-46 -81 -126 -126q-80 -46 -183 -46zM411 40q86 0 155 39t108 109q39 69 39 157
t-39 157t-107 108q-69 39 -156 39t-156 -39t-108 -108t-39 -157t39 -157q39 -70 108 -109t156 -39z" />
    <glyph glyph-name="Oacute" unicode="&#xd3;" horiz-adv-x="821" 
d="M388 777l113 153h73l-133 -153h-53zM411 -10q-103 0 -183 46q-81 45 -126 126q-46 80 -46 183t46 183q45 80 126 126q81 45 183 45t183 -45q80 -46 126 -126q45 -81 45 -183t-45 -183q-46 -81 -126 -126q-80 -46 -183 -46zM411 40q86 0 155 39t108 109q39 69 39 157
t-39 157t-107 108q-69 39 -156 39t-156 -39t-108 -108t-39 -157t39 -157q39 -70 108 -109t156 -39z" />
    <glyph glyph-name="Ocircumflex" unicode="&#xd4;" horiz-adv-x="821" 
d="M266 747l113 153h64l113 -153h-57l-88 119l-88 -119h-57zM411 -10q-103 0 -183 46q-81 45 -126 126q-46 80 -46 183t46 183q45 80 126 126q81 45 183 45t183 -45q80 -46 126 -126q45 -81 45 -183t-45 -183q-46 -81 -126 -126q-80 -46 -183 -46zM411 40q86 0 155 39
t108 109q39 69 39 157t-39 157t-107 108q-69 39 -156 39t-156 -39t-108 -108t-39 -157t39 -157q39 -70 108 -109t156 -39z" />
    <glyph glyph-name="Otilde" unicode="&#xd5;" horiz-adv-x="821" 
d="M237 792q0 54 27 89q27 34 70 34q25 0 45 -11q16 -9 42 -31q23 -19 33 -25q13 -9 31 -9q54 0 54 76h45q0 -55 -27 -89t-70 -34q-24 0 -43 11q-20 11 -43 31q-19 16 -34 26q-14 8 -31 8q-54 0 -54 -76h-45zM411 -10q-103 0 -183 46q-81 45 -126 126q-46 80 -46 183t46 183
q45 80 126 126q81 45 183 45t183 -45q80 -46 126 -126q45 -81 45 -183t-45 -183q-46 -81 -126 -126q-80 -46 -183 -46zM411 40q86 0 155 39t108 109q39 69 39 157t-39 157t-107 108q-69 39 -156 39t-156 -39t-108 -108t-39 -157t39 -157q39 -70 108 -109t156 -39z" />
    <glyph glyph-name="Odieresis" unicode="&#xd6;" horiz-adv-x="821" 
d="M311 739q-16 0 -27 11t-11 27q0 17 11 28q10 10 27 10t27 -10q11 -11 11 -28q0 -16 -11 -27t-27 -11zM511 739q-16 0 -27 11t-11 27q0 17 11 28q10 10 27 10t27 -10q11 -11 11 -28q0 -16 -11 -27t-27 -11zM411 -10q-103 0 -183 46q-81 45 -126 126q-46 80 -46 183t46 183
q45 80 126 126q81 45 183 45t183 -45q80 -46 126 -126q45 -81 45 -183t-45 -183q-46 -81 -126 -126q-80 -46 -183 -46zM411 40q86 0 155 39t108 109q39 69 39 157t-39 157t-107 108q-69 39 -156 39t-156 -39t-108 -108t-39 -157t39 -157q39 -70 108 -109t156 -39z" />
    <glyph glyph-name="multiply" unicode="&#xd7;" horiz-adv-x="540" 
d="M466 74l-195 195l-194 -194l-30 30l194 194l-194 195l30 29l194 -195l195 195l29 -29l-195 -195l195 -195z" />
    <glyph glyph-name="Oslash" unicode="&#xd8;" horiz-adv-x="821" 
d="M91 -10l-35 35l83 83q-40 46 -61 107q-22 59 -22 130q0 103 46 183q45 80 126 126q81 45 183 45q70 0 130 -21q61 -23 106 -62l84 84l35 -35l-84 -84q39 -45 62 -106q21 -60 21 -130q0 -102 -45 -183q-46 -81 -126 -126q-80 -46 -183 -46q-71 0 -130 22q-61 21 -107 61z
M176 145l435 435q-83 69 -200 69q-87 0 -156 -39t-108 -108t-39 -157q0 -58 18 -109q16 -49 50 -91zM411 40q86 0 155 39t108 109q39 69 39 157q0 116 -68 199l-434 -434q40 -34 91 -52t109 -18z" />
    <glyph glyph-name="Ugrave" unicode="&#xd9;" horiz-adv-x="711" 
d="M324 777l-133 153h73l113 -153h-53zM355 -10q-79 0 -138 34q-61 35 -92 97q-33 61 -33 145v424h52v-420q0 -108 57 -169t154 -61q98 0 155 61t57 169v420h52v-424q0 -84 -33 -145q-32 -62 -92 -97q-59 -34 -139 -34z" />
    <glyph glyph-name="Uacute" unicode="&#xda;" horiz-adv-x="711" 
d="M333 777l113 153h73l-133 -153h-53zM355 -10q-79 0 -138 34q-61 35 -92 97q-33 61 -33 145v424h52v-420q0 -108 57 -169t154 -61q98 0 155 61t57 169v420h52v-424q0 -84 -33 -145q-32 -62 -92 -97q-59 -34 -139 -34z" />
    <glyph glyph-name="Ucircumflex" unicode="&#xdb;" horiz-adv-x="711" 
d="M201 727l118 103h74l118 -103h-67l-88 77l-88 -77h-67zM355 -10q-79 0 -138 34q-61 35 -92 97q-33 61 -33 145v424h52v-420q0 -108 57 -169t154 -61q98 0 155 61t57 169v420h52v-424q0 -84 -33 -145q-32 -62 -92 -97q-59 -34 -139 -34z" />
    <glyph glyph-name="Udieresis" unicode="&#xdc;" horiz-adv-x="711" 
d="M256 739q-16 0 -27 11t-11 27q0 17 11 28q10 10 27 10t27 -10q11 -11 11 -28q0 -16 -11 -27t-27 -11zM456 739q-16 0 -27 11t-11 27q0 17 11 28q10 10 27 10t27 -10q11 -11 11 -28q0 -16 -11 -27t-27 -11zM355 -10q-79 0 -138 34q-61 35 -92 97q-33 61 -33 145v424h52
v-420q0 -108 57 -169t154 -61q98 0 155 61t57 169v420h52v-424q0 -84 -33 -145q-32 -62 -92 -97q-59 -34 -139 -34z" />
    <glyph glyph-name="Yacute" unicode="&#xdd;" horiz-adv-x="586" 
d="M270 777l113 153h73l-133 -153h-53zM267 0v288l-257 402h61l222 -351l222 351h61l-257 -402v-288h-52z" />
    <glyph glyph-name="Thorn" unicode="&#xde;" horiz-adv-x="603" 
d="M100 0v690h52v-137h179q107 0 168 -54q62 -56 62 -148q0 -93 -62 -149q-61 -55 -168 -55h-179v-147h-52zM152 197h183q85 0 129 40q45 41 45 114q0 72 -45 113q-45 39 -129 39h-183v-306z" />
    <glyph glyph-name="germandbls" unicode="&#xdf;" horiz-adv-x="610" 
d="M376 -8q-86 0 -154 48l25 43q29 -21 61 -32q31 -11 68 -11q57 0 93 41t36 105q0 68 -53 118q-52 47 -156 64v46q76 33 109 72q32 38 32 97q0 58 -39 97q-41 38 -107 38q-65 0 -107 -43t-42 -125v-550h-50v554q0 66 27 114q25 47 71 73q44 25 100 25q61 0 105 -25
q45 -25 69 -66q23 -43 23 -92q0 -64 -37 -110q-38 -48 -95 -74q94 -20 147 -76q53 -58 53 -135q0 -55 -23 -101q-23 -44 -65 -70q-40 -25 -91 -25z" />
    <glyph glyph-name="agrave" unicode="&#xe0;" horiz-adv-x="639" 
d="M288 587l-133 153h73l113 -153h-53zM301 -8q-73 0 -129 33q-57 33 -89 92t-32 133q0 75 32 134q31 57 89 91q56 33 129 33q63 0 116 -29q51 -29 80 -80l8 101h42v-500h-42l-8 101q-30 -52 -80 -79q-53 -30 -116 -30zM301 40q53 0 97 25q45 24 72 70q27 47 27 108v14
q0 61 -27 108q-26 45 -72 71q-45 24 -97 24q-58 0 -104 -26q-45 -26 -71 -74q-25 -47 -25 -110t25 -109q26 -49 71 -74q45 -27 104 -27z" />
    <glyph glyph-name="aacute" unicode="&#xe1;" horiz-adv-x="639" 
d="M297 587l113 153h73l-133 -153h-53zM301 -8q-73 0 -129 33q-57 33 -89 92t-32 133q0 75 32 134q31 57 89 91q56 33 129 33q63 0 116 -29q51 -29 80 -80l8 101h42v-500h-42l-8 101q-30 -52 -80 -79q-53 -30 -116 -30zM301 40q53 0 97 25q45 24 72 70q27 47 27 108v14
q0 61 -27 108q-26 45 -72 71q-45 24 -97 24q-58 0 -104 -26q-45 -26 -71 -74q-25 -47 -25 -110t25 -109q26 -49 71 -74q45 -27 104 -27z" />
    <glyph glyph-name="acircumflex" unicode="&#xe2;" horiz-adv-x="639" 
d="M175 557l113 153h64l113 -153h-57l-88 119l-88 -119h-57zM301 -8q-73 0 -129 33q-57 33 -89 92t-32 133q0 75 32 134q31 57 89 91q56 33 129 33q63 0 116 -29q51 -29 80 -80l8 101h42v-500h-42l-8 101q-30 -52 -80 -79q-53 -30 -116 -30zM301 40q53 0 97 25q45 24 72 70
q27 47 27 108v14q0 61 -27 108q-26 45 -72 71q-45 24 -97 24q-58 0 -104 -26q-45 -26 -71 -74q-25 -47 -25 -110t25 -109q26 -49 71 -74q45 -27 104 -27z" />
    <glyph glyph-name="atilde" unicode="&#xe3;" horiz-adv-x="639" 
d="M146 602q0 55 27 89t70 34q25 0 45 -11q16 -9 42 -31q23 -19 33 -25q13 -9 31 -9q54 0 54 76h45q0 -55 -27 -89t-70 -34q-24 0 -43 11q-20 11 -43 31q-19 16 -34 26q-14 8 -31 8q-54 0 -54 -76h-45zM301 -8q-73 0 -129 33q-57 33 -89 92t-32 133q0 75 32 134q31 57 89 91
q56 33 129 33q63 0 116 -29q51 -29 80 -80l8 101h42v-500h-42l-8 101q-30 -52 -80 -79q-53 -30 -116 -30zM301 40q53 0 97 25q45 24 72 70q27 47 27 108v14q0 61 -27 108q-26 45 -72 71q-45 24 -97 24q-58 0 -104 -26q-45 -26 -71 -74q-25 -47 -25 -110t25 -109
q26 -49 71 -74q45 -27 104 -27z" />
    <glyph glyph-name="adieresis" unicode="&#xe4;" horiz-adv-x="639" 
d="M199 649q-16 0 -27 11t-11 27q0 17 11 28q10 10 27 10t27 -10q11 -11 11 -28q0 -16 -11 -27t-27 -11zM399 649q-16 0 -27 11t-11 27q0 17 11 28q10 10 27 10t27 -10q11 -11 11 -28q0 -16 -11 -27t-27 -11zM301 -8q-73 0 -129 33q-57 33 -89 92t-32 133q0 75 32 134
q31 57 89 91q56 33 129 33q63 0 116 -29q51 -29 80 -80l8 101h42v-500h-42l-8 101q-30 -52 -80 -79q-53 -30 -116 -30zM301 40q53 0 97 25q45 24 72 70q27 47 27 108v14q0 61 -27 108q-26 45 -72 71q-45 24 -97 24q-58 0 -104 -26q-45 -26 -71 -74q-25 -47 -25 -110t25 -109
q26 -49 71 -74q45 -27 104 -27z" />
    <glyph glyph-name="aring" unicode="&#xe5;" horiz-adv-x="639" 
d="M299 558q-44 0 -74 31q-31 31 -31 74q0 44 31 75q30 30 74 30q43 0 74 -30q31 -31 31 -75q0 -43 -31 -74t-74 -31zM299 598q27 0 46 19t19 46t-19 46t-46 19t-46 -19t-19 -46t19 -46t46 -19zM301 -8q-73 0 -129 33q-57 33 -89 92t-32 133q0 75 32 134q31 57 89 91
q56 33 129 33q63 0 116 -29q51 -29 80 -80l8 101h42v-500h-42l-8 101q-30 -52 -80 -79q-53 -30 -116 -30zM301 40q53 0 97 25q45 24 72 70q27 47 27 108v14q0 61 -27 108q-26 45 -72 71q-45 24 -97 24q-58 0 -104 -26q-45 -26 -71 -74q-25 -47 -25 -110t25 -109
q26 -49 71 -74q45 -27 104 -27z" />
    <glyph glyph-name="ae" unicode="&#xe6;" horiz-adv-x="867" 
d="M230 -11q-84 0 -134 44q-51 43 -51 115t51 115q51 42 136 42q43 0 83 -14q37 -15 63 -42v64q0 69 -36 109q-37 40 -108 40q-42 0 -75 -15q-35 -17 -63 -50l-35 34q35 41 78 60q41 19 96 19q69 0 116 -33q45 -33 61 -94q28 60 76 92q50 33 111 33q63 0 112 -31
q47 -30 77 -88q28 -56 28 -129q0 -21 -1 -27h-386q3 -57 28 -100t67 -67t94 -24q78 0 137 58l29 -42q-37 -34 -77 -49q-45 -17 -89 -17q-66 0 -119 33q-53 32 -83 89q-13 -56 -63 -91q-49 -34 -123 -34zM430 281h334q-9 80 -53 129q-45 48 -112 48q-68 0 -114 -49
q-48 -51 -55 -128zM236 37q65 0 103 31q39 30 39 80t-39 81q-39 30 -103 30t-102 -30t-38 -81q0 -50 38 -80q37 -31 102 -31z" />
    <glyph glyph-name="ccedilla" unicode="&#xe7;" horiz-adv-x="513" 
d="M311 -8q-75 0 -134 33q-60 33 -93 92t-33 133q0 76 33 134t93 91q58 33 134 33q55 0 101 -18q46 -20 81 -57l-35 -34q-61 61 -147 61q-59 0 -108 -26q-48 -27 -75 -74q-27 -48 -27 -110t27 -109q27 -49 75 -74q48 -27 108 -27q86 0 147 61l35 -34q-35 -38 -81 -56
q-45 -19 -101 -19zM236 -200l46 150h61l-66 -150h-41z" />
    <glyph glyph-name="egrave" unicode="&#xe8;" horiz-adv-x="580" 
d="M258 587l-133 153h73l113 -153h-53zM311 -8q-75 0 -134 33q-60 33 -93 92t-33 133q0 76 31 134q32 59 86 91q54 33 124 33q69 0 122 -31q52 -31 85 -88q30 -57 30 -129q0 -21 -1 -27h-426q3 -58 31 -101q30 -45 74 -68q46 -24 104 -24q89 0 157 60l29 -42
q-39 -33 -86 -49q-49 -17 -100 -17zM103 281h374q-10 81 -60 131q-49 48 -125 48t-128 -49t-61 -130z" />
    <glyph glyph-name="eacute" unicode="&#xe9;" horiz-adv-x="580" 
d="M267 587l113 153h73l-133 -153h-53zM311 -8q-75 0 -134 33q-60 33 -93 92t-33 133q0 76 31 134q32 59 86 91q54 33 124 33q69 0 122 -31q52 -31 85 -88q30 -57 30 -129q0 -21 -1 -27h-426q3 -58 31 -101q30 -45 74 -68q46 -24 104 -24q89 0 157 60l29 -42
q-39 -33 -86 -49q-49 -17 -100 -17zM103 281h374q-10 81 -60 131q-49 48 -125 48t-128 -49t-61 -130z" />
    <glyph glyph-name="ecircumflex" unicode="&#xea;" horiz-adv-x="580" 
d="M145 557l113 153h64l113 -153h-57l-88 119l-88 -119h-57zM311 -8q-75 0 -134 33q-60 33 -93 92t-33 133q0 76 31 134q32 59 86 91q54 33 124 33q69 0 122 -31q52 -31 85 -88q30 -57 30 -129q0 -21 -1 -27h-426q3 -58 31 -101q30 -45 74 -68q46 -24 104 -24q89 0 157 60
l29 -42q-39 -33 -86 -49q-49 -17 -100 -17zM103 281h374q-10 81 -60 131q-49 48 -125 48t-128 -49t-61 -130z" />
    <glyph glyph-name="edieresis" unicode="&#xeb;" horiz-adv-x="580" 
d="M190 649q-16 0 -27 11t-11 27q0 17 11 28q10 10 27 10t27 -10q11 -11 11 -28q0 -16 -11 -27t-27 -11zM390 649q-16 0 -27 11t-11 27q0 17 11 28q10 10 27 10t27 -10q11 -11 11 -28q0 -16 -11 -27t-27 -11zM311 -8q-75 0 -134 33q-60 33 -93 92t-33 133q0 76 31 134
q32 59 86 91q54 33 124 33q69 0 122 -31q52 -31 85 -88q30 -57 30 -129q0 -21 -1 -27h-426q3 -58 31 -101q30 -45 74 -68q46 -24 104 -24q89 0 157 60l29 -42q-39 -33 -86 -49q-49 -17 -100 -17zM103 281h374q-10 81 -60 131q-49 48 -125 48t-128 -49t-61 -130z" />
    <glyph glyph-name="igrave" unicode="&#xec;" horiz-adv-x="234" 
d="M85 587l-133 153h73l113 -153h-53zM92 0v500h50v-500h-50z" />
    <glyph glyph-name="iacute" unicode="&#xed;" horiz-adv-x="234" 
d="M94 587l113 153h73l-133 -153h-53zM92 0v500h50v-500h-50z" />
    <glyph glyph-name="icircumflex" unicode="&#xee;" horiz-adv-x="234" 
d="M-5 587l92 153h58l92 -153h-51l-70 116l-70 -116h-51zM92 0v500h50v-500h-50z" />
    <glyph glyph-name="idieresis" unicode="&#xef;" horiz-adv-x="234" 
d="M47 649q-16 0 -27 11t-11 27q0 17 11 28q10 10 27 10t27 -10q11 -11 11 -28q0 -16 -11 -27t-27 -11zM187 649q-16 0 -27 11t-11 27q0 17 11 28q10 10 27 10t27 -10q11 -11 11 -28q0 -16 -11 -27t-27 -11zM92 0v500h50v-500h-50z" />
    <glyph glyph-name="eth" unicode="&#xf0;" horiz-adv-x="601" 
d="M299 -8q-72 0 -128 32q-57 31 -88 88q-32 56 -32 128q0 71 32 129q33 57 88 88t128 31q92 0 157 -69q-47 98 -152 220l-140 -83l-24 41l133 77q-27 30 -55 58l36 35q7 -7 16 -16.5t22.5 -24.5t23.5 -26l110 64l23 -39l-102 -61q101 -118 150 -222q50 -106 50 -202
q0 -73 -31 -128t-88 -88q-58 -32 -129 -32zM299 40q56 0 102 26q47 26 71 71q25 44 25 103q0 58 -25 104q-26 45 -71 71q-44 25 -102 25t-102 -25t-70 -71q-26 -47 -26 -104t26 -103q25 -45 70 -71q46 -26 102 -26z" />
    <glyph glyph-name="ntilde" unicode="&#xf1;" horiz-adv-x="584" 
d="M118 602q0 55 27 89t70 34q25 0 45 -11q16 -9 42 -31q23 -19 33 -25q13 -9 31 -9q54 0 54 76h45q0 -55 -27 -89t-70 -34q-24 0 -43 11q-20 11 -43 31q-19 16 -34 26q-14 8 -31 8q-54 0 -54 -76h-45zM92 0v500h42l7 -82q52 90 166 90q89 0 142 -56q53 -58 53 -152v-300
h-50v296q0 80 -38 123q-38 41 -107 41q-77 0 -120 -49q-45 -49 -45 -142v-269h-50z" />
    <glyph glyph-name="ograve" unicode="&#xf2;" horiz-adv-x="618" 
d="M277 587l-133 153h73l113 -153h-53zM309 -8q-75 0 -133 33q-59 33 -92 92t-33 133q0 76 33 134q32 57 92 91q58 33 133 33t134 -33q58 -33 91 -91t33 -134q0 -74 -33 -133q-34 -60 -91 -92q-59 -33 -134 -33zM309 40q60 0 108 27q47 27 74 75q26 47 26 108q0 60 -26 109
q-27 47 -74 74q-48 27 -108 27t-107 -27q-48 -27 -74 -74q-27 -48 -27 -109q0 -62 27 -108q25 -48 74 -75q47 -27 107 -27z" />
    <glyph glyph-name="oacute" unicode="&#xf3;" horiz-adv-x="618" 
d="M286 587l113 153h73l-133 -153h-53zM309 -8q-75 0 -133 33q-59 33 -92 92t-33 133q0 76 33 134q32 57 92 91q58 33 133 33t134 -33q58 -33 91 -91t33 -134q0 -74 -33 -133q-34 -60 -91 -92q-59 -33 -134 -33zM309 40q60 0 108 27q47 27 74 75q26 47 26 108q0 60 -26 109
q-27 47 -74 74q-48 27 -108 27t-107 -27q-48 -27 -74 -74q-27 -48 -27 -109q0 -62 27 -108q25 -48 74 -75q47 -27 107 -27z" />
    <glyph glyph-name="ocircumflex" unicode="&#xf4;" horiz-adv-x="618" 
d="M164 557l113 153h64l113 -153h-57l-88 119l-88 -119h-57zM309 -8q-75 0 -133 33q-59 33 -92 92t-33 133q0 76 33 134q32 57 92 91q58 33 133 33t134 -33q58 -33 91 -91t33 -134q0 -74 -33 -133q-34 -60 -91 -92q-59 -33 -134 -33zM309 40q60 0 108 27q47 27 74 75
q26 47 26 108q0 60 -26 109q-27 47 -74 74q-48 27 -108 27t-107 -27q-48 -27 -74 -74q-27 -48 -27 -109q0 -62 27 -108q25 -48 74 -75q47 -27 107 -27z" />
    <glyph glyph-name="otilde" unicode="&#xf5;" horiz-adv-x="618" 
d="M135 602q0 55 27 89t70 34q25 0 45 -11q16 -9 42 -31q23 -19 33 -25q13 -9 31 -9q54 0 54 76h45q0 -55 -27 -89t-70 -34q-24 0 -43 11q-20 11 -43 31q-19 16 -34 26q-14 8 -31 8q-54 0 -54 -76h-45zM309 -8q-75 0 -133 33q-59 33 -92 92t-33 133q0 76 33 134q32 57 92 91
q58 33 133 33t134 -33q58 -33 91 -91t33 -134q0 -74 -33 -133q-34 -60 -91 -92q-59 -33 -134 -33zM309 40q60 0 108 27q47 27 74 75q26 47 26 108q0 60 -26 109q-27 47 -74 74q-48 27 -108 27t-107 -27q-48 -27 -74 -74q-27 -48 -27 -109q0 -62 27 -108q25 -48 74 -75
q47 -27 107 -27z" />
    <glyph glyph-name="odieresis" unicode="&#xf6;" horiz-adv-x="618" 
d="M209 649q-16 0 -27 11t-11 27q0 17 11 28q10 10 27 10t27 -10q11 -11 11 -28q0 -16 -11 -27t-27 -11zM409 649q-16 0 -27 11t-11 27q0 17 11 28q10 10 27 10t27 -10q11 -11 11 -28q0 -16 -11 -27t-27 -11zM309 -8q-75 0 -133 33q-59 33 -92 92t-33 133q0 76 33 134
q32 57 92 91q58 33 133 33t134 -33q58 -33 91 -91t33 -134q0 -74 -33 -133q-34 -60 -91 -92q-59 -33 -134 -33zM309 40q60 0 108 27q47 27 74 75q26 47 26 108q0 60 -26 109q-27 47 -74 74q-48 27 -108 27t-107 -27q-48 -27 -74 -74q-27 -48 -27 -109q0 -62 27 -108
q25 -48 74 -75q47 -27 107 -27z" />
    <glyph glyph-name="divide" unicode="&#xf7;" horiz-adv-x="540" 
d="M270 432q-16 0 -27 11t-11 26q0 16 11 27q10 10 27 10t27 -10t10 -27q0 -16 -10 -26q-11 -11 -27 -11zM65 287v41h411v-41h-411zM270 110q-16 0 -27 11t-11 26q0 16 11 27q10 10 27 10t27 -10t10 -27q0 -16 -10 -26q-11 -11 -27 -11z" />
    <glyph glyph-name="oslash" unicode="&#xf8;" horiz-adv-x="618" 
d="M309 -8q-49 0 -91 15q-41 13 -77 41l-50 -50l-34 34l50 50q-28 36 -41 77q-15 42 -15 91q0 76 33 134q32 57 92 91q58 33 133 33q47 0 92 -14q41 -15 76 -42l50 50l34 -34l-50 -50q27 -35 42 -76q14 -45 14 -92q0 -74 -33 -133q-34 -60 -91 -92q-59 -33 -134 -33z
M143 118l298 298q-56 44 -132 44q-60 0 -107 -27q-48 -27 -74 -74q-27 -48 -27 -109q0 -78 42 -132zM309 40q60 0 108 27q47 27 74 75q26 47 26 108q0 78 -42 132l-298 -298q56 -44 132 -44z" />
    <glyph glyph-name="ugrave" unicode="&#xf9;" horiz-adv-x="570" 
d="M253 587l-133 153h73l113 -153h-53zM285 -8q-91 0 -147 57q-56 56 -56 151v300h50v-296q0 -77 41 -121q40 -43 112 -43t112 43q41 44 41 121v296h50v-300q0 -96 -55 -151q-56 -57 -148 -57z" />
    <glyph glyph-name="uacute" unicode="&#xfa;" horiz-adv-x="570" 
d="M262 587l113 153h73l-133 -153h-53zM285 -8q-91 0 -147 57q-56 56 -56 151v300h50v-296q0 -77 41 -121q40 -43 112 -43t112 43q41 44 41 121v296h50v-300q0 -96 -55 -151q-56 -57 -148 -57z" />
    <glyph glyph-name="ucircumflex" unicode="&#xfb;" horiz-adv-x="570" 
d="M140 587l113 153h64l113 -153h-57l-88 119l-88 -119h-57zM285 -8q-91 0 -147 57q-56 56 -56 151v300h50v-296q0 -77 41 -121q40 -43 112 -43t112 43q41 44 41 121v296h50v-300q0 -96 -55 -151q-56 -57 -148 -57z" />
    <glyph glyph-name="udieresis" unicode="&#xfc;" horiz-adv-x="570" 
d="M185 649q-16 0 -27 11t-11 27q0 17 11 28q10 10 27 10t27 -10q11 -11 11 -28q0 -16 -11 -27t-27 -11zM385 649q-16 0 -27 11t-11 27q0 17 11 28q10 10 27 10t27 -10q11 -11 11 -28q0 -16 -11 -27t-27 -11zM285 -8q-91 0 -147 57q-56 56 -56 151v300h50v-296
q0 -77 41 -121q40 -43 112 -43t112 43q41 44 41 121v296h50v-300q0 -96 -55 -151q-56 -57 -148 -57z" />
    <glyph glyph-name="yacute" unicode="&#xfd;" horiz-adv-x="490" 
d="M222 587l113 153h73l-133 -153h-53zM62 -214q-21 0 -33 4l9 49q11 -3 25 -3q42 0 68 13q27 14 49 44q23 35 44 89l6 16l-220 502h54l192 -445l171 445h53l-209 -537q-37 -98 -85 -138q-48 -39 -124 -39z" />
    <glyph glyph-name="thorn" unicode="&#xfe;" horiz-adv-x="639" 
d="M92 -210v970h50v-361q29 51 80 80q53 29 116 29q73 0 130 -33q57 -34 88 -91q32 -59 32 -134q0 -74 -32 -133q-31 -58 -88 -92q-57 -33 -130 -33q-62 0 -115 29q-52 28 -81 79v-310h-50zM338 40q58 0 105 27q44 25 70 74q25 46 25 109t-25 110q-26 48 -70 74
q-47 26 -105 26q-52 0 -97 -24q-46 -26 -72 -71q-27 -47 -27 -108v-14q0 -61 27 -108q27 -46 72 -70q44 -25 97 -25z" />
    <glyph glyph-name="ydieresis" unicode="&#xff;" horiz-adv-x="490" 
d="M145 649q-16 0 -27 11t-11 27q0 17 11 28q10 10 27 10t27 -10q11 -11 11 -28q0 -16 -11 -27t-27 -11zM345 649q-16 0 -27 11t-11 27q0 17 11 28q10 10 27 10t27 -10q11 -11 11 -28q0 -16 -11 -27t-27 -11zM62 -214q-21 0 -33 4l9 49q11 -3 25 -3q42 0 68 13q27 14 49 44
q23 35 44 89l6 16l-220 502h54l192 -445l171 445h53l-209 -537q-37 -98 -85 -138q-48 -39 -124 -39z" />
    <glyph glyph-name="Amacron" unicode="&#x100;" horiz-adv-x="641" 
d="M188 753v48h265v-48h-265zM10 0l278 690h64l279 -690h-55l-93 235h-325l-93 -235h-55zM178 285h285l-142 358z" />
    <glyph glyph-name="amacron" unicode="&#x101;" horiz-adv-x="639" 
d="M166 633v48h265v-48h-265zM301 -8q-73 0 -129 33q-57 33 -89 92t-32 133q0 75 32 134q31 57 89 91q56 33 129 33q63 0 116 -29q51 -29 80 -80l8 101h42v-500h-42l-8 101q-30 -52 -80 -79q-53 -30 -116 -30zM301 40q53 0 97 25q45 24 72 70q27 47 27 108v14q0 61 -27 108
q-26 45 -72 71q-45 24 -97 24q-58 0 -104 -26q-45 -26 -71 -74q-25 -47 -25 -110t25 -109q26 -49 71 -74q45 -27 104 -27z" />
    <glyph glyph-name="Abreve" unicode="&#x102;" horiz-adv-x="641" 
d="M321 755q-59 0 -97 44t-38 111h45q0 -50 25 -78q24 -30 65 -30t66 30q24 28 24 78h45q0 -67 -38 -111t-97 -44zM10 0l278 690h64l279 -690h-55l-93 235h-325l-93 -235h-55zM178 285h285l-142 358z" />
    <glyph glyph-name="abreve" unicode="&#x103;" horiz-adv-x="639" 
d="M320 565q-59 0 -97 44t-38 111h45q0 -50 25 -78q24 -30 65 -30q40 0 66 30q24 28 24 78h45q0 -67 -38 -111t-97 -44zM301 -8q-73 0 -129 33q-57 33 -89 92t-32 133q0 75 32 134q31 57 89 91q56 33 129 33q63 0 116 -29q51 -29 80 -80l8 101h42v-500h-42l-8 101
q-30 -52 -80 -79q-53 -30 -116 -30zM301 40q53 0 97 25q45 24 72 70q27 47 27 108v14q0 61 -27 108q-26 45 -72 71q-45 24 -97 24q-58 0 -104 -26q-45 -26 -71 -74q-25 -47 -25 -110t25 -109q26 -49 71 -74q45 -27 104 -27z" />
    <glyph glyph-name="Aogonek" unicode="&#x104;" horiz-adv-x="641" 
d="M574 -217q-42 0 -66 21q-24 22 -24 62q0 35 21 65q20 29 71 69l-93 235h-325l-93 -235h-55l278 690h64l279 -690h-3q-53 -44 -73 -73q-21 -29 -21 -56q0 -41 41 -41q29 0 52 18v-52q-19 -13 -53 -13zM178 285h285l-142 358z" />
    <glyph glyph-name="aogonek" unicode="&#x105;" horiz-adv-x="639" 
d="M493 -217q-42 0 -66 21q-24 22 -24 62q0 34 23 65q22 30 79 69l-8 101q-30 -52 -80 -79q-53 -30 -116 -30q-73 0 -129 33q-57 33 -89 92t-32 133q0 75 32 134q31 57 89 91q56 33 129 33q63 0 116 -29q51 -29 80 -80l8 101h42v-500q-53 -44 -73 -73q-21 -29 -21 -56
q0 -41 41 -41q30 0 52 18v-52q-19 -13 -53 -13zM301 40q53 0 97 25q45 24 72 70q27 47 27 108v14q0 61 -27 108q-26 45 -72 71q-45 24 -97 24q-58 0 -104 -26q-45 -26 -71 -74q-25 -47 -25 -110t25 -109q26 -49 71 -74q45 -27 104 -27z" />
    <glyph glyph-name="Cacute" unicode="&#x106;" horiz-adv-x="705" 
d="M330 727l113 103h83l-133 -103h-63zM415 -11q-105 0 -185 46q-81 44 -128 126q-46 80 -46 184t46 184q47 81 128 127q81 45 185 45q154 0 250 -102l-37 -36q-88 88 -213 88q-88 0 -158 -38q-70 -39 -109 -108q-40 -70 -40 -160q0 -91 40 -159q39 -71 109 -108
q69 -39 158 -39q125 0 213 88l37 -36q-96 -102 -250 -102z" />
    <glyph glyph-name="cacute" unicode="&#x107;" horiz-adv-x="513" 
d="M224 587l113 153h73l-133 -153h-53zM311 -8q-75 0 -134 33q-60 33 -93 92t-33 133q0 76 33 134t93 91q58 33 134 33q55 0 101 -18q46 -20 81 -57l-35 -34q-61 61 -147 61q-59 0 -108 -26q-48 -27 -75 -74q-27 -48 -27 -110t27 -109q27 -49 75 -74q48 -27 108 -27
q86 0 147 61l35 -34q-35 -38 -81 -56q-45 -19 -101 -19z" />
    <glyph glyph-name="Ccircumflex" unicode="&#x108;" horiz-adv-x="705" 
d="M238 727l118 103h74l118 -103h-67l-88 77l-88 -77h-67zM415 -11q-105 0 -185 46q-81 44 -128 126q-46 80 -46 184t46 184q47 81 128 127q81 45 185 45q154 0 250 -102l-37 -36q-88 88 -213 88q-88 0 -158 -38q-70 -39 -109 -108q-40 -70 -40 -160q0 -91 40 -159
q39 -71 109 -108q69 -39 158 -39q125 0 213 88l37 -36q-96 -102 -250 -102z" />
    <glyph glyph-name="ccircumflex" unicode="&#x109;" horiz-adv-x="513" 
d="M142 587l113 153h64l113 -153h-57l-88 119l-88 -119h-57zM311 -8q-75 0 -134 33q-60 33 -93 92t-33 133q0 76 33 134t93 91q58 33 134 33q55 0 101 -18q46 -20 81 -57l-35 -34q-61 61 -147 61q-59 0 -108 -26q-48 -27 -75 -74q-27 -48 -27 -110t27 -109q27 -49 75 -74
q48 -27 108 -27q86 0 147 61l35 -34q-35 -38 -81 -56q-45 -19 -101 -19z" />
    <glyph glyph-name="Cdot" unicode="&#x10a;" horiz-adv-x="705" 
d="M393 737q-17 0 -28 12q-12 11 -12 28t12 29q11 11 28 11q16 0 29 -11q11 -13 11 -29q0 -17 -11 -28q-12 -12 -29 -12zM415 -11q-105 0 -185 46q-81 44 -128 126q-46 80 -46 184t46 184q47 81 128 127q81 45 185 45q154 0 250 -102l-37 -36q-88 88 -213 88q-88 0 -158 -38
q-70 -39 -109 -108q-40 -70 -40 -160q0 -91 40 -159q39 -71 109 -108q69 -39 158 -39q125 0 213 88l37 -36q-96 -102 -250 -102z" />
    <glyph glyph-name="cdot" unicode="&#x10b;" horiz-adv-x="513" 
d="M287 647q-17 0 -28 12q-12 11 -12 28t12 29q11 11 28 11q16 0 29 -11q11 -13 11 -29q0 -17 -11 -28q-12 -12 -29 -12zM311 -8q-75 0 -134 33q-60 33 -93 92t-33 133q0 76 33 134t93 91q58 33 134 33q55 0 101 -18q46 -20 81 -57l-35 -34q-61 61 -147 61q-59 0 -108 -26
q-48 -27 -75 -74q-27 -48 -27 -110t27 -109q27 -49 75 -74q48 -27 108 -27q86 0 147 61l35 -34q-35 -38 -81 -56q-45 -19 -101 -19z" />
    <glyph glyph-name="Ccaron" unicode="&#x10c;" horiz-adv-x="705" 
d="M356 727l-118 103h67l88 -77l88 77h67l-118 -103h-74zM415 -11q-105 0 -185 46q-81 44 -128 126q-46 80 -46 184t46 184q47 81 128 127q81 45 185 45q154 0 250 -102l-37 -36q-88 88 -213 88q-88 0 -158 -38q-70 -39 -109 -108q-40 -70 -40 -160q0 -91 40 -159
q39 -71 109 -108q69 -39 158 -39q125 0 213 88l37 -36q-96 -102 -250 -102z" />
    <glyph glyph-name="ccaron" unicode="&#x10d;" horiz-adv-x="513" 
d="M255 587l-113 153h57l88 -119l88 119h57l-113 -153h-64zM311 -8q-75 0 -134 33q-60 33 -93 92t-33 133q0 76 33 134t93 91q58 33 134 33q55 0 101 -18q46 -20 81 -57l-35 -34q-61 61 -147 61q-59 0 -108 -26q-48 -27 -75 -74q-27 -48 -27 -110t27 -109q27 -49 75 -74
q48 -27 108 -27q86 0 147 61l35 -34q-35 -38 -81 -56q-45 -19 -101 -19z" />
    <glyph glyph-name="Dcaron" unicode="&#x10e;" horiz-adv-x="709" 
d="M318 727l-118 103h67l88 -77l88 77h67l-118 -103h-74zM100 0v690h189q114 0 197 -44q81 -43 125 -122q42 -78 42 -179t-42 -179q-44 -79 -125 -122q-83 -44 -197 -44h-189zM152 50h137q100 0 171 38t106 104q35 67 35 153t-35 154q-37 67 -106 104q-70 37 -171 37h-137
v-590z" />
    <glyph glyph-name="dcaron" unicode="&#x10f;" horiz-adv-x="639" 
d="M301 -8q-73 0 -129 33q-57 33 -89 92t-32 133q0 75 32 134q31 57 89 91q56 33 129 33q62 0 115 -29q52 -28 81 -79v360h50v-760h-42l-8 101q-30 -52 -80 -79q-53 -30 -116 -30zM594 564l59 196h52l-72 -196h-39zM301 40q53 0 97 25q45 24 72 70q27 47 27 108v14
q0 61 -27 108q-26 45 -72 71q-45 24 -97 24q-58 0 -104 -26q-45 -26 -71 -74q-25 -47 -25 -110t25 -109q26 -49 71 -74q45 -27 104 -27z" />
    <glyph glyph-name="Dcroat" unicode="&#x110;" horiz-adv-x="709" 
d="M100 0v321h-100v48h100v321h189q114 0 197 -44q81 -43 125 -122q42 -78 42 -179t-42 -179q-44 -79 -125 -122q-83 -44 -197 -44h-189zM152 50h137q100 0 171 38t106 104q35 67 35 153t-35 154q-37 67 -106 104q-70 37 -171 37h-137v-271h165v-48h-165v-271z" />
    <glyph glyph-name="dcroat" unicode="&#x111;" horiz-adv-x="639" 
d="M301 -8q-73 0 -129 33q-57 33 -89 92t-32 133q0 75 32 134q31 57 89 91q56 33 129 33q62 0 115 -29q52 -28 81 -79v224h-190v48h190v88h50v-88h77v-48h-77v-624h-42l-8 101q-30 -52 -80 -79q-53 -30 -116 -30zM301 40q53 0 97 25q45 24 72 70q27 47 27 108v14
q0 61 -27 108q-26 45 -72 71q-45 24 -97 24q-58 0 -104 -26q-45 -26 -71 -74q-25 -47 -25 -110t25 -109q26 -49 71 -74q45 -27 104 -27z" />
    <glyph glyph-name="Emacron" unicode="&#x112;" horiz-adv-x="598" 
d="M189 753v48h265v-48h-265zM100 0v690h444v-50h-392v-262h355v-49h-355v-279h392v-50h-444z" />
    <glyph glyph-name="emacron" unicode="&#x113;" horiz-adv-x="580" 
d="M157 633v48h265v-48h-265zM311 -8q-75 0 -134 33q-60 33 -93 92t-33 133q0 76 31 134q32 59 86 91q54 33 124 33q69 0 122 -31q52 -31 85 -88q30 -57 30 -129q0 -21 -1 -27h-426q3 -58 31 -101q30 -45 74 -68q46 -24 104 -24q89 0 157 60l29 -42q-39 -33 -86 -49
q-49 -17 -100 -17zM103 281h374q-10 81 -60 131q-49 48 -125 48t-128 -49t-61 -130z" />
    <glyph glyph-name="Ebreve" unicode="&#x114;" horiz-adv-x="598" 
d="M322 721q-60 0 -97 31q-38 32 -38 78h45q0 -29 25 -45q25 -17 65 -17t66 17q24 17 24 45h45q0 -46 -38 -78q-37 -31 -97 -31zM100 0v690h444v-50h-392v-262h355v-49h-355v-279h392v-50h-444z" />
    <glyph glyph-name="ebreve" unicode="&#x115;" horiz-adv-x="580" 
d="M290 585q-59 0 -97 44t-38 111h45q0 -50 25 -78q24 -30 65 -30q40 0 66 30q24 28 24 78h45q0 -67 -38 -111t-97 -44zM311 -8q-75 0 -134 33q-60 33 -93 92t-33 133q0 76 31 134q32 59 86 91q54 33 124 33q69 0 122 -31q52 -31 85 -88q30 -57 30 -129q0 -21 -1 -27h-426
q3 -58 31 -101q30 -45 74 -68q46 -24 104 -24q89 0 157 60l29 -42q-39 -33 -86 -49q-49 -17 -100 -17zM103 281h374q-10 81 -60 131q-49 48 -125 48t-128 -49t-61 -130z" />
    <glyph glyph-name="Edot" unicode="&#x116;" horiz-adv-x="598" 
d="M322 737q-18 0 -28 12q-12 11 -12 28t12 29q11 11 28 11q16 0 29 -11q11 -13 11 -29q0 -17 -11 -28q-12 -12 -29 -12zM100 0v690h444v-50h-392v-262h355v-49h-355v-279h392v-50h-444z" />
    <glyph glyph-name="edot" unicode="&#x117;" horiz-adv-x="580" 
d="M290 647q-18 0 -28 12q-12 11 -12 28t12 29q11 11 28 11q16 0 29 -11q11 -13 11 -29q0 -17 -11 -28q-12 -12 -29 -12zM311 -8q-75 0 -134 33q-60 33 -93 92t-33 133q0 76 31 134q32 59 86 91q54 33 124 33q69 0 122 -31q52 -31 85 -88q30 -57 30 -129q0 -21 -1 -27h-426
q3 -58 31 -101q30 -45 74 -68q46 -24 104 -24q89 0 157 60l29 -42q-39 -33 -86 -49q-49 -17 -100 -17zM103 281h374q-10 81 -60 131q-49 48 -125 48t-128 -49t-61 -130z" />
    <glyph glyph-name="Eogonek" unicode="&#x118;" horiz-adv-x="598" 
d="M490 -217q-42 0 -66 21q-24 22 -24 62q0 35 21 65q20 29 71 69h-392v690h444v-50h-392v-262h355v-49h-355v-279h392v-50q-53 -44 -73 -73q-21 -29 -21 -56q0 -41 41 -41q29 0 52 18v-52q-19 -13 -53 -13z" />
    <glyph glyph-name="eogonek" unicode="&#x119;" horiz-adv-x="580" 
d="M398 -217q-42 0 -66 21q-24 22 -24 62q0 66 74 135q-34 -9 -71 -9q-75 0 -134 33q-60 33 -93 92t-33 133q0 76 31 134q32 59 86 91q54 33 124 33q69 0 122 -31q52 -31 85 -88q30 -57 30 -129q0 -21 -1 -27h-426q3 -58 31 -101q30 -45 74 -68q46 -24 104 -24q89 0 157 60
l29 -42q-22 -17 -28 -20q-111 -98 -111 -167q0 -41 41 -41q29 0 52 18v-52q-19 -13 -53 -13zM103 281h374q-10 81 -60 131q-49 48 -125 48t-128 -49t-61 -130z" />
    <glyph glyph-name="Ecaron" unicode="&#x11a;" horiz-adv-x="598" 
d="M285 727l-118 103h67l88 -77l88 77h67l-118 -103h-74zM100 0v690h444v-50h-392v-262h355v-49h-355v-279h392v-50h-444z" />
    <glyph glyph-name="ecaron" unicode="&#x11b;" horiz-adv-x="580" 
d="M258 587l-113 153h57l88 -119l88 119h57l-113 -153h-64zM311 -8q-75 0 -134 33q-60 33 -93 92t-33 133q0 76 31 134q32 59 86 91q54 33 124 33q69 0 122 -31q52 -31 85 -88q30 -57 30 -129q0 -21 -1 -27h-426q3 -58 31 -101q30 -45 74 -68q46 -24 104 -24q89 0 157 60
l29 -42q-39 -33 -86 -49q-49 -17 -100 -17zM103 281h374q-10 81 -60 131q-49 48 -125 48t-128 -49t-61 -130z" />
    <glyph glyph-name="Gcircumflex" unicode="&#x11c;" horiz-adv-x="817" 
d="M254 727l118 103h74l118 -103h-67l-88 77l-88 -77h-67zM412 -11q-103 0 -183 46q-82 45 -127 126q-46 80 -46 184q0 102 47 184q47 81 128 127q83 45 186 45q154 0 250 -102l-37 -36q-88 88 -213 88q-88 0 -158 -38q-70 -39 -109 -108q-40 -70 -40 -160t39 -159
q37 -70 107 -108q69 -39 156 -39q82 0 147 34q66 34 106 95q39 60 47 141h-305v50h360v-14q0 -103 -45 -184q-47 -81 -127 -126q-80 -46 -183 -46z" />
    <glyph glyph-name="gcircumflex" unicode="&#x11d;" horiz-adv-x="639" 
d="M175 587l113 153h64l113 -153h-57l-88 119l-88 -119h-57zM291 -218q-98 0 -184 44l21 45q41 -20 84 -32q38 -9 79 -9q98 0 153 53q53 55 53 152v65q-29 -51 -81 -79q-53 -29 -115 -29q-73 0 -130 33q-56 32 -88 92q-32 59 -32 133q0 75 32 134q31 58 88 91t130 33
q63 0 116 -29q51 -29 80 -80l8 101h42v-465q0 -120 -67 -187q-68 -66 -189 -66zM301 40q53 0 97 25q45 24 72 70q27 47 27 108v14q0 61 -27 108q-26 45 -72 71q-45 24 -97 24q-57 0 -102 -27q-47 -29 -72 -76q-26 -49 -26 -107t26 -107q25 -48 72 -75q44 -28 102 -28z" />
    <glyph glyph-name="Gbreve" unicode="&#x11e;" horiz-adv-x="817" 
d="M410 721q-60 0 -97 31q-38 32 -38 78h45q0 -29 25 -45q25 -17 65 -17t66 17q24 17 24 45h45q0 -46 -38 -78q-37 -31 -97 -31zM412 -11q-103 0 -183 46q-82 45 -127 126q-46 80 -46 184q0 102 47 184q47 81 128 127q83 45 186 45q154 0 250 -102l-37 -36q-88 88 -213 88
q-88 0 -158 -38q-70 -39 -109 -108q-40 -70 -40 -160t39 -159q37 -70 107 -108q69 -39 156 -39q82 0 147 34q66 34 106 95q39 60 47 141h-305v50h360v-14q0 -103 -45 -184q-47 -81 -127 -126q-80 -46 -183 -46z" />
    <glyph glyph-name="gbreve" unicode="&#x11f;" horiz-adv-x="639" 
d="M320 585q-59 0 -97 44t-38 111h45q0 -50 25 -78q24 -30 65 -30q40 0 66 30q24 28 24 78h45q0 -67 -38 -111t-97 -44zM291 -218q-98 0 -184 44l21 45q41 -20 84 -32q38 -9 79 -9q98 0 153 53q53 55 53 152v65q-29 -51 -81 -79q-53 -29 -115 -29q-73 0 -130 33
q-56 32 -88 92q-32 59 -32 133q0 75 32 134q31 58 88 91t130 33q63 0 116 -29q51 -29 80 -80l8 101h42v-465q0 -120 -67 -187q-68 -66 -189 -66zM301 40q53 0 97 25q45 24 72 70q27 47 27 108v14q0 61 -27 108q-26 45 -72 71q-45 24 -97 24q-57 0 -102 -27q-47 -29 -72 -76
q-26 -49 -26 -107t26 -107q25 -48 72 -75q44 -28 102 -28z" />
    <glyph glyph-name="Gdot" unicode="&#x120;" horiz-adv-x="817" 
d="M409 737q-17 0 -28 12q-12 11 -12 28t12 29q11 11 28 11q16 0 29 -11q11 -13 11 -29q0 -17 -11 -28q-12 -12 -29 -12zM412 -11q-103 0 -183 46q-82 45 -127 126q-46 80 -46 184q0 102 47 184q47 81 128 127q83 45 186 45q154 0 250 -102l-37 -36q-88 88 -213 88
q-88 0 -158 -38q-70 -39 -109 -108q-40 -70 -40 -160t39 -159q37 -70 107 -108q69 -39 156 -39q82 0 147 34q66 34 106 95q39 60 47 141h-305v50h360v-14q0 -103 -45 -184q-47 -81 -127 -126q-80 -46 -183 -46z" />
    <glyph glyph-name="gdot" unicode="&#x121;" horiz-adv-x="639" 
d="M320 647q-18 0 -28 12q-12 11 -12 28t12 29q11 11 28 11q16 0 29 -11q11 -13 11 -29q0 -17 -11 -28q-12 -12 -29 -12zM291 -218q-98 0 -184 44l21 45q41 -20 84 -32q38 -9 79 -9q98 0 153 53q53 55 53 152v65q-29 -51 -81 -79q-53 -29 -115 -29q-73 0 -130 33
q-56 32 -88 92q-32 59 -32 133q0 75 32 134q31 58 88 91t130 33q63 0 116 -29q51 -29 80 -80l8 101h42v-465q0 -120 -67 -187q-68 -66 -189 -66zM301 40q53 0 97 25q45 24 72 70q27 47 27 108v14q0 61 -27 108q-26 45 -72 71q-45 24 -97 24q-57 0 -102 -27q-47 -29 -72 -76
q-26 -49 -26 -107t26 -107q25 -48 72 -75q44 -28 102 -28z" />
    <glyph glyph-name="uni0122" unicode="&#x122;" horiz-adv-x="817" 
d="M412 -11q-103 0 -183 46q-82 45 -127 126q-46 80 -46 184q0 102 47 184q47 81 128 127q83 45 186 45q154 0 250 -102l-37 -36q-88 88 -213 88q-88 0 -158 -38q-70 -39 -109 -108q-40 -70 -40 -160t39 -159q37 -70 107 -108q69 -39 156 -39q82 0 147 34q66 34 106 95
q39 60 47 141h-305v50h360v-14q0 -103 -45 -184q-47 -81 -127 -126q-80 -46 -183 -46zM358 -200l46 150h61l-66 -150h-41z" />
    <glyph glyph-name="uni0123" unicode="&#x123;" horiz-adv-x="639" 
d="M266 590l66 150h41l-46 -150h-61zM291 -218q-98 0 -184 44l21 45q41 -20 84 -32q38 -9 79 -9q98 0 153 53q53 55 53 152v65q-29 -51 -81 -79q-53 -29 -115 -29q-73 0 -130 33q-56 32 -88 92q-32 59 -32 133q0 75 32 134q31 58 88 91t130 33q63 0 116 -29q51 -29 80 -80
l8 101h42v-465q0 -120 -67 -187q-68 -66 -189 -66zM301 40q53 0 97 25q45 24 72 70q27 47 27 108v14q0 61 -27 108q-26 45 -72 71q-45 24 -97 24q-57 0 -102 -27q-47 -29 -72 -76q-26 -49 -26 -107t26 -107q25 -48 72 -75q44 -28 102 -28z" />
    <glyph glyph-name="Hcircumflex" unicode="&#x124;" horiz-adv-x="732" 
d="M211 727l118 103h74l118 -103h-67l-88 77l-88 -77h-67zM100 0v690h52v-313h428v313h52v-690h-52v327h-428v-327h-52z" />
    <glyph glyph-name="hcircumflex" unicode="&#x125;" horiz-adv-x="584" 
d="M132 727l118 103h74l118 -103h-67l-88 77l-88 -77h-67zM92 0v690h50v-270q55 88 165 88q89 0 142 -56q53 -58 53 -152v-300h-50v296q0 80 -38 123q-38 41 -107 41q-77 0 -120 -49q-45 -49 -45 -142v-269h-50z" />
    <glyph glyph-name="Hbar" unicode="&#x126;" horiz-adv-x="812" 
d="M140 0v581h-70v40h70v69h52v-69h428v69h52v-69h70v-40h-70v-581h-52v327h-428v-327h-52zM192 377h428v204h-428v-204z" />
    <glyph glyph-name="hbar" unicode="&#x127;" horiz-adv-x="584" 
d="M92 0v624h-78v48h78v88h50v-88h189v-48h-189v-204q55 88 165 88q89 0 142 -56q53 -58 53 -152v-300h-50v296q0 80 -38 123q-38 41 -107 41q-77 0 -120 -49q-45 -49 -45 -142v-269h-50z" />
    <glyph glyph-name="Itilde" unicode="&#x128;" horiz-adv-x="252" 
d="M-48 792q0 54 27 89q27 34 70 34q25 0 45 -11q16 -9 42 -31q23 -19 33 -25q13 -9 31 -9q54 0 54 76h45q0 -55 -27 -89t-70 -34q-24 0 -43 11q-20 11 -43 31q-19 16 -34 26q-14 8 -31 8q-54 0 -54 -76h-45zM100 0v690h52v-690h-52z" />
    <glyph glyph-name="itilde" unicode="&#x129;" horiz-adv-x="234" 
d="M-57 602q0 55 27 89t70 34q25 0 45 -11q16 -9 42 -31q23 -19 33 -25q13 -9 31 -9q54 0 54 76h45q0 -55 -27 -89t-70 -34q-24 0 -43 11q-20 11 -43 31q-19 16 -34 26q-14 8 -31 8q-54 0 -54 -76h-45zM92 0v500h50v-500h-50z" />
    <glyph glyph-name="Imacron" unicode="&#x12a;" horiz-adv-x="252" 
d="M-7 753v48h265v-48h-265zM100 0v690h52v-690h-52z" />
    <glyph glyph-name="imacron" unicode="&#x12b;" horiz-adv-x="234" 
d="M4 633v48h225v-48h-225zM92 0v500h50v-500h-50z" />
    <glyph glyph-name="Ibreve" unicode="&#x12c;" horiz-adv-x="252" 
d="M126 721q-60 0 -97 31q-38 32 -38 78h45q0 -29 25 -45q25 -17 65 -17t66 17q24 17 24 45h45q0 -46 -38 -78q-37 -31 -97 -31zM100 0v690h52v-690h-52z" />
    <glyph glyph-name="ibreve" unicode="&#x12d;" horiz-adv-x="234" 
d="M117 585q-52 0 -83 40q-32 40 -32 115h45q0 -108 70 -108q33 0 52 27q18 25 18 81h45q0 -77 -31 -115q-31 -40 -84 -40zM92 0v500h50v-500h-50z" />
    <glyph glyph-name="Iogonek" unicode="&#x12e;" horiz-adv-x="252" 
d="M118 -217q-42 0 -66 21q-24 22 -24 62q0 34 17 65t55 69v690h52v-690q-39 -41 -58 -73q-16 -28 -16 -56q0 -41 41 -41q29 0 52 18v-52q-19 -13 -53 -13z" />
    <glyph glyph-name="iogonek" unicode="&#x12f;" horiz-adv-x="234" 
d="M117 647q-17 0 -28 12q-12 11 -12 28t12 29q11 11 28 11q16 0 29 -11q11 -13 11 -29q0 -17 -11 -28q-12 -12 -29 -12zM108 -217q-42 0 -66 21q-24 22 -24 62q0 34 17 65q17 30 57 69v500h50v-500q-39 -41 -58 -73q-16 -28 -16 -56q0 -41 41 -41q29 0 52 18v-52
q-19 -13 -53 -13z" />
    <glyph glyph-name="Idotaccent" unicode="&#x130;" horiz-adv-x="252" 
d="M126 737q-18 0 -28 12q-12 11 -12 28t12 29q11 11 28 11q16 0 29 -11q11 -13 11 -29q0 -17 -11 -28q-12 -12 -29 -12zM100 0v690h52v-690h-52z" />
    <glyph glyph-name="dotlessi" unicode="&#x131;" horiz-adv-x="234" 
d="M92 0v500h50v-500h-50z" />
    <glyph glyph-name="IJ" unicode="&#x132;" horiz-adv-x="643" 
d="M100 0v690h52v-690h-52zM345 -8q-55 0 -93 23l23 44q32 -17 69 -17q147 0 147 179v469h52v-473q0 -106 -52 -165q-53 -60 -146 -60z" />
    <glyph glyph-name="ij" unicode="&#x133;" horiz-adv-x="468" 
d="M117 647q-17 0 -28 12q-12 11 -12 28t12 29q11 11 28 11q16 0 29 -11q11 -13 11 -29q0 -17 -11 -28q-12 -12 -29 -12zM351 647q-17 0 -28 12q-12 11 -12 28t12 29q11 11 28 11q16 0 29 -11q11 -13 11 -29q0 -17 -11 -28q-12 -12 -29 -12zM92 0v500h50v-500h-50zM229 -218
q-34 0 -58 10l16 45q17 -7 41 -7q98 0 98 110v560h50v-562q0 -73 -39 -115q-39 -41 -108 -41z" />
    <glyph glyph-name="Jcircumflex" unicode="&#x134;" horiz-adv-x="391" 
d="M110 727l118 103h74l118 -103h-67l-88 77l-88 -77h-67zM93 -8q-55 0 -93 23l23 44q32 -17 69 -17q147 0 147 179v469h52v-473q0 -106 -52 -165q-53 -60 -146 -60z" />
    <glyph glyph-name="jcircumflex" unicode="&#x135;" horiz-adv-x="234" 
d="M-5 587l92 153h58l92 -153h-51l-70 116l-70 -116h-51zM-5 -218q-34 0 -58 10l16 45q17 -7 41 -7q98 0 98 110v560h50v-562q0 -73 -39 -115q-39 -41 -108 -41z" />
    <glyph glyph-name="uni0136" unicode="&#x136;" horiz-adv-x="605" 
d="M100 0v690h52v-315h72l304 315h71l-328 -338l344 -352h-75l-317 325h-71v-325h-52zM269 -200l46 150h61l-66 -150h-41z" />
    <glyph glyph-name="uni0137" unicode="&#x137;" horiz-adv-x="501" 
d="M92 0v760h50v-482h55l223 222h71l-246 -245l266 -255h-72l-240 230h-57v-230h-50zM200 -200l46 150h61l-66 -150h-41z" />
    <glyph glyph-name="kgreenlandic" unicode="&#x138;" horiz-adv-x="501" 
d="M92 0v500h50v-222h55l223 222h71l-246 -245l266 -255h-72l-240 230h-57v-230h-50z" />
    <glyph glyph-name="Lacute" unicode="&#x139;" horiz-adv-x="510" 
d="M122 727l113 103h83l-133 -103h-63zM100 0v690h52v-640h348v-50h-400z" />
    <glyph glyph-name="lacute" unicode="&#x13a;" horiz-adv-x="234" 
d="M54 727l113 103h83l-133 -103h-63zM92 0v690h50v-690h-50z" />
    <glyph glyph-name="uni013B" unicode="&#x13b;" horiz-adv-x="510" 
d="M100 0v690h52v-640h348v-50h-400zM249 -200l46 150h61l-66 -150h-41z" />
    <glyph glyph-name="uni013C" unicode="&#x13c;" horiz-adv-x="234" 
d="M92 0v760h50v-760h-50zM66 -200l46 150h61l-66 -150h-41z" />
    <glyph glyph-name="Lcaron" unicode="&#x13d;" horiz-adv-x="510" 
d="M100 0v690h52v-640h348v-50h-400zM219 494l59 196h52l-72 -196h-39z" />
    <glyph glyph-name="lcaron" unicode="&#x13e;" horiz-adv-x="234" 
d="M92 0v760h50v-760h-50zM189 564l59 196h52l-72 -196h-39z" />
    <glyph glyph-name="Ldot" unicode="&#x13f;" horiz-adv-x="510" 
d="M100 0v690h52v-640h348v-50h-400zM381 360q-19 0 -32 13t-13 32q0 20 13 33q13 12 32 12t33 -12q12 -14 12 -33t-12 -32q-13 -13 -33 -13z" />
    <glyph glyph-name="ldot" unicode="&#x140;" horiz-adv-x="320" 
d="M92 0v760h50v-760h-50zM277 290q-19 0 -32 13t-13 32q0 20 13 33q13 12 32 12t33 -12q12 -14 12 -33t-12 -32q-13 -13 -33 -13z" />
    <glyph glyph-name="Lslash" unicode="&#x141;" horiz-adv-x="510" 
d="M100 0v296l-101 -67v60l101 67v334h52v-306l171 114v-60l-171 -114v-274h348v-50h-400z" />
    <glyph glyph-name="lslash" unicode="&#x142;" horiz-adv-x="284" 
d="M117 0v337l-107 -71v60l107 71v363h50v-337l107 71v-60l-107 -71v-363h-50z" />
    <glyph glyph-name="Nacute" unicode="&#x143;" horiz-adv-x="762" 
d="M318 727l113 103h83l-133 -103h-63zM100 0v690h58l452 -612v612h52v-690h-59l-451 610v-610h-52z" />
    <glyph glyph-name="nacute" unicode="&#x144;" horiz-adv-x="584" 
d="M229 587l113 153h73l-133 -153h-53zM92 0v500h42l7 -82q52 90 166 90q89 0 142 -56q53 -58 53 -152v-300h-50v296q0 80 -38 123q-38 41 -107 41q-77 0 -120 -49q-45 -49 -45 -142v-269h-50z" />
    <glyph glyph-name="uni0145" unicode="&#x145;" horiz-adv-x="762" 
d="M100 0v690h58l452 -612v612h52v-690h-59l-451 610v-610h-52zM330 -200l46 150h61l-66 -150h-41z" />
    <glyph glyph-name="uni0146" unicode="&#x146;" horiz-adv-x="584" 
d="M92 0v500h42l7 -82q52 90 166 90q89 0 142 -56q53 -58 53 -152v-300h-50v296q0 80 -38 123q-38 41 -107 41q-77 0 -120 -49q-45 -49 -45 -142v-269h-50zM241 -200l46 150h61l-66 -150h-41z" />
    <glyph glyph-name="Ncaron" unicode="&#x147;" horiz-adv-x="762" 
d="M344 727l-118 103h67l88 -77l88 77h67l-118 -103h-74zM100 0v690h58l452 -612v612h52v-690h-59l-451 610v-610h-52z" />
    <glyph glyph-name="ncaron" unicode="&#x148;" horiz-adv-x="584" 
d="M260 587l-113 153h57l88 -119l88 119h57l-113 -153h-64zM92 0v500h42l7 -82q52 90 166 90q89 0 142 -56q53 -58 53 -152v-300h-50v296q0 80 -38 123q-38 41 -107 41q-77 0 -120 -49q-45 -49 -45 -142v-269h-50z" />
    <glyph glyph-name="napostrophe" unicode="&#x149;" horiz-adv-x="584" 
d="M-135 440l76 250h59l-100 -250h-35zM92 0v500h42l7 -82q52 90 166 90q89 0 142 -56q53 -58 53 -152v-300h-50v296q0 80 -38 123q-38 41 -107 41q-77 0 -120 -49q-45 -49 -45 -142v-269h-50z" />
    <glyph glyph-name="Eng" unicode="&#x14a;" horiz-adv-x="762" 
d="M464 -219q-55 0 -93 23l23 44q32 -17 69 -17q143 0 147 169l-458 611v-611h-52v690h58l452 -603v603h52v-690q-2 -103 -54 -161t-144 -58z" />
    <glyph glyph-name="eng" unicode="&#x14b;" horiz-adv-x="584" 
d="M355 -218q-34 0 -58 10l16 45q17 -7 41 -7q98 0 98 110v356q0 80 -38 123q-38 41 -107 41q-77 0 -120 -49q-45 -49 -45 -142v-269h-50v500h42l7 -82q52 90 166 90q89 0 142 -56q53 -58 53 -152v-362q0 -73 -39 -115q-39 -41 -108 -41z" />
    <glyph glyph-name="Omacron" unicode="&#x14c;" horiz-adv-x="821" 
d="M278 753v48h265v-48h-265zM411 -10q-103 0 -183 46q-81 45 -126 126q-46 80 -46 183t46 183q45 80 126 126q81 45 183 45t183 -45q80 -46 126 -126q45 -81 45 -183t-45 -183q-46 -81 -126 -126q-80 -46 -183 -46zM411 40q86 0 155 39t108 109q39 69 39 157t-39 157
t-107 108q-69 39 -156 39t-156 -39t-108 -108t-39 -157t39 -157q39 -70 108 -109t156 -39z" />
    <glyph glyph-name="omacron" unicode="&#x14d;" horiz-adv-x="618" 
d="M176 633v48h265v-48h-265zM309 -8q-75 0 -133 33q-59 33 -92 92t-33 133q0 76 33 134q32 57 92 91q58 33 133 33t134 -33q58 -33 91 -91t33 -134q0 -74 -33 -133q-34 -60 -91 -92q-59 -33 -134 -33zM309 40q60 0 108 27q47 27 74 75q26 47 26 108q0 60 -26 109
q-27 47 -74 74q-48 27 -108 27t-107 -27q-48 -27 -74 -74q-27 -48 -27 -109q0 -62 27 -108q25 -48 74 -75q47 -27 107 -27z" />
    <glyph glyph-name="Obreve" unicode="&#x14e;" horiz-adv-x="821" 
d="M410 721q-60 0 -97 31q-38 32 -38 78h45q0 -29 25 -45q25 -17 65 -17t66 17q24 17 24 45h45q0 -46 -38 -78q-37 -31 -97 -31zM411 -10q-103 0 -183 46q-81 45 -126 126q-46 80 -46 183t46 183q45 80 126 126q81 45 183 45t183 -45q80 -46 126 -126q45 -81 45 -183
t-45 -183q-46 -81 -126 -126q-80 -46 -183 -46zM411 40q86 0 155 39t108 109q39 69 39 157t-39 157t-107 108q-69 39 -156 39t-156 -39t-108 -108t-39 -157t39 -157q39 -70 108 -109t156 -39z" />
    <glyph glyph-name="obreve" unicode="&#x14f;" horiz-adv-x="618" 
d="M309 585q-59 0 -97 44t-38 111h45q0 -50 25 -78q24 -30 65 -30t66 30q24 28 24 78h45q0 -67 -38 -111t-97 -44zM309 -8q-75 0 -133 33q-59 33 -92 92t-33 133q0 76 33 134q32 57 92 91q58 33 133 33t134 -33q58 -33 91 -91t33 -134q0 -74 -33 -133q-34 -60 -91 -92
q-59 -33 -134 -33zM309 40q60 0 108 27q47 27 74 75q26 47 26 108q0 60 -26 109q-27 47 -74 74q-48 27 -108 27t-107 -27q-48 -27 -74 -74q-27 -48 -27 -109q0 -62 27 -108q25 -48 74 -75q47 -27 107 -27z" />
    <glyph glyph-name="Odblacute" unicode="&#x150;" horiz-adv-x="821" 
d="M305 707l113 153h68l-133 -153h-48zM435 707l113 153h68l-133 -153h-48zM411 -10q-103 0 -183 46q-81 45 -126 126q-46 80 -46 183t46 183q45 80 126 126q81 45 183 45t183 -45q80 -46 126 -126q45 -81 45 -183t-45 -183q-46 -81 -126 -126q-80 -46 -183 -46zM411 40
q86 0 155 39t108 109q39 69 39 157t-39 157t-107 108q-69 39 -156 39t-156 -39t-108 -108t-39 -157t39 -157q39 -70 108 -109t156 -39z" />
    <glyph glyph-name="odblacute" unicode="&#x151;" horiz-adv-x="618" 
d="M193 587l113 153h68l-133 -153h-48zM323 587l113 153h68l-133 -153h-48zM309 -8q-75 0 -133 33q-59 33 -92 92t-33 133q0 76 33 134q32 57 92 91q58 33 133 33t134 -33q58 -33 91 -91t33 -134q0 -74 -33 -133q-34 -60 -91 -92q-59 -33 -134 -33zM309 40q60 0 108 27
q47 27 74 75q26 47 26 108q0 60 -26 109q-27 47 -74 74q-48 27 -108 27t-107 -27q-48 -27 -74 -74q-27 -48 -27 -109q0 -62 27 -108q25 -48 74 -75q47 -27 107 -27z" />
    <glyph glyph-name="OE" unicode="&#x152;" horiz-adv-x="1101" 
d="M381 -10q-95 0 -168 46q-75 46 -115 126q-42 81 -42 183t42 183q40 79 115 126q73 45 168 45q93 0 163 -42q70 -43 109 -120v153h394v-50h-342v-262h305v-49h-305v-279h342v-50h-394v153q-39 -77 -108 -120q-70 -43 -164 -43zM381 40q83 0 145 39q61 39 94 108t33 158
t-33 158t-94 108q-62 38 -145 38q-79 0 -140 -39q-64 -39 -98 -108q-35 -70 -35 -157t35 -157q34 -69 98 -109q61 -39 140 -39z" />
    <glyph glyph-name="oe" unicode="&#x153;" horiz-adv-x="966" 
d="M289 -8q-69 0 -123 33t-84 92q-31 58 -31 133q0 76 31 134q30 58 84 91t123 33q75 0 130 -40q57 -42 82 -109q24 68 77 109q52 40 120 40q63 0 112 -31q47 -30 77 -88q28 -56 28 -129q0 -21 -1 -27h-386q3 -57 28 -100t67 -67t94 -24q78 0 137 58l29 -42q-37 -34 -77 -49
q-45 -17 -89 -17q-74 0 -132 41t-83 111q-25 -70 -82 -111q-56 -41 -131 -41zM289 40q53 0 97 27q43 27 67 75q24 46 24 108q0 61 -24 109q-25 48 -67 74q-44 27 -97 27t-97 -27q-42 -26 -67 -74q-24 -48 -24 -109q0 -62 24 -108q24 -48 67 -75q44 -27 97 -27zM529 281h334
q-9 80 -53 129q-45 48 -112 48q-68 0 -114 -49q-48 -51 -55 -128z" />
    <glyph glyph-name="Racute" unicode="&#x154;" horiz-adv-x="616" 
d="M245 727l113 103h83l-133 -103h-63zM100 0v690h222q107 0 171 -53q63 -53 63 -144q0 -79 -50 -131q-51 -53 -139 -63l211 -299h-63l-208 296h-155v-296h-52zM152 345h174q86 0 133 39q45 38 45 109q0 73 -45 110q-44 37 -133 37h-174v-295z" />
    <glyph glyph-name="racute" unicode="&#x155;" horiz-adv-x="361" 
d="M154 587l113 153h73l-133 -153h-53zM92 0v500h42l6 -73q27 42 62 62q34 19 81 19q26 0 58 -8v-52q-29 10 -60 10q-64 0 -101 -37q-38 -38 -38 -112v-309h-50z" />
    <glyph glyph-name="uni0156" unicode="&#x156;" horiz-adv-x="616" 
d="M100 0v690h222q107 0 171 -53q63 -53 63 -144q0 -79 -50 -131q-51 -53 -139 -63l211 -299h-63l-208 296h-155v-296h-52zM152 345h174q86 0 133 39q45 38 45 109q0 73 -45 110q-44 37 -133 37h-174v-295zM257 -200l46 150h61l-66 -150h-41z" />
    <glyph glyph-name="uni0157" unicode="&#x157;" horiz-adv-x="361" 
d="M92 0v500h42l6 -73q27 42 62 62q34 19 81 19q26 0 58 -8v-52q-29 10 -60 10q-64 0 -101 -37q-38 -38 -38 -112v-309h-50zM66 -200l46 150h61l-66 -150h-41z" />
    <glyph glyph-name="Rcaron" unicode="&#x158;" horiz-adv-x="616" 
d="M271 727l-118 103h67l88 -77l88 77h67l-118 -103h-74zM100 0v690h222q107 0 171 -53q63 -53 63 -144q0 -79 -50 -131q-51 -53 -139 -63l211 -299h-63l-208 296h-155v-296h-52zM152 345h174q86 0 133 39q45 38 45 109q0 73 -45 110q-44 37 -133 37h-174v-295z" />
    <glyph glyph-name="rcaron" unicode="&#x159;" horiz-adv-x="361" 
d="M185 587l-113 153h57l88 -119l88 119h57l-113 -153h-64zM92 0v500h42l6 -73q27 42 62 62q34 19 81 19q26 0 58 -8v-52q-29 10 -60 10q-64 0 -101 -37q-38 -38 -38 -112v-309h-50z" />
    <glyph glyph-name="Sacute" unicode="&#x15a;" horiz-adv-x="594" 
d="M234 727l113 103h83l-133 -103h-63zM276 -11q-62 0 -121 18q-59 17 -103 50l28 45q88 -61 197 -61q97 0 148 39t51 105q0 44 -25 70q-25 27 -63 42q-35 13 -103 30q-73 18 -116 36q-44 16 -75 52q-31 34 -31 94q0 57 30 100q28 42 83 67q54 24 123 24q62 0 119 -19
q56 -19 103 -57l-31 -46q-91 71 -191 71q-85 0 -134 -39q-49 -40 -49 -101q0 -40 25 -65q23 -24 60 -38q35 -14 99 -30q71 -17 119 -36q47 -18 78 -55t31 -99q0 -59 -31 -102q-31 -45 -88 -70t-133 -25z" />
    <glyph glyph-name="sacute" unicode="&#x15b;" horiz-adv-x="450" 
d="M162 587l113 153h73l-133 -153h-53zM209 -8q-46 0 -88 13q-41 11 -76 35l25 43q61 -43 139 -43q66 0 101 26t35 68q0 28 -17 47q-17 17 -44 28q-20 8 -70 22q-47 12 -84 28q-32 13 -54 39q-23 26 -23 70q0 62 49 101q48 39 125 39q43 0 87 -14q40 -13 76 -41l-28 -42
q-64 49 -138 49q-57 0 -88 -25q-33 -25 -33 -66q0 -26 17 -43q18 -18 41 -26q27 -11 68 -21q48 -12 87 -28q32 -14 56 -41q23 -29 23 -74q0 -64 -51 -104q-50 -40 -135 -40z" />
    <glyph glyph-name="Scircumflex" unicode="&#x15c;" horiz-adv-x="594" 
d="M142 727l118 103h74l118 -103h-67l-88 77l-88 -77h-67zM276 -11q-62 0 -121 18q-59 17 -103 50l28 45q88 -61 197 -61q97 0 148 39t51 105q0 44 -25 70q-25 27 -63 42q-35 13 -103 30q-73 18 -116 36q-44 16 -75 52q-31 34 -31 94q0 57 30 100q28 42 83 67q54 24 123 24
q62 0 119 -19q56 -19 103 -57l-31 -46q-91 71 -191 71q-85 0 -134 -39q-49 -40 -49 -101q0 -40 25 -65q23 -24 60 -38q35 -14 99 -30q71 -17 119 -36q47 -18 78 -55t31 -99q0 -59 -31 -102q-31 -45 -88 -70t-133 -25z" />
    <glyph glyph-name="scircumflex" unicode="&#x15d;" horiz-adv-x="450" 
d="M80 587l113 153h64l113 -153h-57l-88 119l-88 -119h-57zM209 -8q-46 0 -88 13q-41 11 -76 35l25 43q61 -43 139 -43q66 0 101 26t35 68q0 28 -17 47q-17 17 -44 28q-20 8 -70 22q-47 12 -84 28q-32 13 -54 39q-23 26 -23 70q0 62 49 101q48 39 125 39q43 0 87 -14
q40 -13 76 -41l-28 -42q-64 49 -138 49q-57 0 -88 -25q-33 -25 -33 -66q0 -26 17 -43q18 -18 41 -26q27 -11 68 -21q48 -12 87 -28q32 -14 56 -41q23 -29 23 -74q0 -64 -51 -104q-50 -40 -135 -40z" />
    <glyph glyph-name="Scedilla" unicode="&#x15e;" horiz-adv-x="594" 
d="M276 -11q-62 0 -121 18q-59 17 -103 50l28 45q88 -61 197 -61q97 0 148 39t51 105q0 44 -25 70q-25 27 -63 42q-35 13 -103 30q-73 18 -116 36q-44 16 -75 52q-31 34 -31 94q0 57 30 100q28 42 83 67q54 24 123 24q62 0 119 -19q56 -19 103 -57l-31 -46q-91 71 -191 71
q-85 0 -134 -39q-49 -40 -49 -101q0 -40 25 -65q23 -24 60 -38q35 -14 99 -30q71 -17 119 -36q47 -18 78 -55t31 -99q0 -59 -31 -102q-31 -45 -88 -70t-133 -25zM246 -200l46 150h61l-66 -150h-41z" />
    <glyph glyph-name="scedilla" unicode="&#x15f;" horiz-adv-x="450" 
d="M209 -8q-46 0 -88 13q-41 11 -76 35l25 43q61 -43 139 -43q66 0 101 26t35 68q0 28 -17 47q-17 17 -44 28q-20 8 -70 22q-47 12 -84 28q-32 13 -54 39q-23 26 -23 70q0 62 49 101q48 39 125 39q43 0 87 -14q40 -13 76 -41l-28 -42q-64 49 -138 49q-57 0 -88 -25
q-33 -25 -33 -66q0 -26 17 -43q18 -18 41 -26q27 -11 68 -21q48 -12 87 -28q32 -14 56 -41q23 -29 23 -74q0 -64 -51 -104q-50 -40 -135 -40zM174 -200l46 150h61l-66 -150h-41z" />
    <glyph glyph-name="Scaron" unicode="&#x160;" horiz-adv-x="594" 
d="M260 727l-118 103h67l88 -77l88 77h67l-118 -103h-74zM276 -11q-62 0 -121 18q-59 17 -103 50l28 45q88 -61 197 -61q97 0 148 39t51 105q0 44 -25 70q-25 27 -63 42q-35 13 -103 30q-73 18 -116 36q-44 16 -75 52q-31 34 -31 94q0 57 30 100q28 42 83 67q54 24 123 24
q62 0 119 -19q56 -19 103 -57l-31 -46q-91 71 -191 71q-85 0 -134 -39q-49 -40 -49 -101q0 -40 25 -65q23 -24 60 -38q35 -14 99 -30q71 -17 119 -36q47 -18 78 -55t31 -99q0 -59 -31 -102q-31 -45 -88 -70t-133 -25z" />
    <glyph glyph-name="scaron" unicode="&#x161;" horiz-adv-x="450" 
d="M193 587l-113 153h57l88 -119l88 119h57l-113 -153h-64zM209 -8q-46 0 -88 13q-41 11 -76 35l25 43q61 -43 139 -43q66 0 101 26t35 68q0 28 -17 47q-17 17 -44 28q-20 8 -70 22q-47 12 -84 28q-32 13 -54 39q-23 26 -23 70q0 62 49 101q48 39 125 39q43 0 87 -14
q40 -13 76 -41l-28 -42q-64 49 -138 49q-57 0 -88 -25q-33 -25 -33 -66q0 -26 17 -43q18 -18 41 -26q27 -11 68 -21q48 -12 87 -28q32 -14 56 -41q23 -29 23 -74q0 -64 -51 -104q-50 -40 -135 -40z" />
    <glyph glyph-name="uni0162" unicode="&#x162;" horiz-adv-x="592" 
d="M270 0v642h-260v48h572v-48h-260v-642h-52zM245 -200l46 150h61l-66 -150h-41z" />
    <glyph glyph-name="uni0163" unicode="&#x163;" horiz-adv-x="388" 
d="M260 -8q-69 0 -108 43t-39 119v298h-93v48h93v144h50v-144h200v-48h-200v-294q0 -61 25 -89q24 -29 75 -29t94 28l20 -44q-55 -32 -117 -32zM194 -200l46 150h61l-66 -150h-41z" />
    <glyph glyph-name="Tcaron" unicode="&#x164;" horiz-adv-x="592" 
d="M259 727l-118 103h67l88 -77l88 77h67l-118 -103h-74zM270 0v642h-260v48h572v-48h-260v-642h-52z" />
    <glyph glyph-name="tcaron" unicode="&#x165;" horiz-adv-x="388" 
d="M220 564l59 196h52l-72 -196h-39zM260 -8q-69 0 -108 43t-39 119v298h-93v48h93v144h50v-144h200v-48h-200v-294q0 -61 25 -89q24 -29 75 -29t94 28l20 -44q-55 -32 -117 -32z" />
    <glyph glyph-name="Tbar" unicode="&#x166;" horiz-adv-x="592" 
d="M270 0v321h-133v48h133v273h-260v48h572v-48h-260v-273h132v-48h-132v-321h-52z" />
    <glyph glyph-name="tbar" unicode="&#x167;" horiz-adv-x="388" 
d="M260 -8q-69 0 -108 43t-39 119v82h-85v48h85v168h-93v48h93v144h50v-144h200v-48h-200v-168h182v-48h-182v-78q0 -61 25 -89q24 -29 75 -29t94 28l20 -44q-55 -32 -117 -32z" />
    <glyph glyph-name="Utilde" unicode="&#x168;" horiz-adv-x="711" 
d="M182 792q0 54 27 89q27 34 70 34q25 0 45 -11q16 -9 42 -31q23 -19 33 -25q13 -9 31 -9q54 0 54 76h45q0 -55 -27 -89t-70 -34q-24 0 -43 11q-20 11 -43 31q-19 16 -34 26q-14 8 -31 8q-54 0 -54 -76h-45zM355 -10q-79 0 -138 34q-61 35 -92 97q-33 61 -33 145v424h52
v-420q0 -108 57 -169t154 -61q98 0 155 61t57 169v420h52v-424q0 -84 -33 -145q-32 -62 -92 -97q-59 -34 -139 -34z" />
    <glyph glyph-name="utilde" unicode="&#x169;" horiz-adv-x="570" 
d="M111 602q0 55 27 89t70 34q25 0 45 -11q16 -9 42 -31q23 -19 33 -25q13 -9 31 -9q54 0 54 76h45q0 -55 -27 -89t-70 -34q-24 0 -43 11q-20 11 -43 31q-19 16 -34 26q-14 8 -31 8q-54 0 -54 -76h-45zM285 -8q-91 0 -147 57q-56 56 -56 151v300h50v-296q0 -77 41 -121
q40 -43 112 -43t112 43q41 44 41 121v296h50v-300q0 -96 -55 -151q-56 -57 -148 -57z" />
    <glyph glyph-name="Umacron" unicode="&#x16a;" horiz-adv-x="711" 
d="M223 753v48h265v-48h-265zM355 -10q-79 0 -138 34q-61 35 -92 97q-33 61 -33 145v424h52v-420q0 -108 57 -169t154 -61q98 0 155 61t57 169v420h52v-424q0 -84 -33 -145q-32 -62 -92 -97q-59 -34 -139 -34z" />
    <glyph glyph-name="umacron" unicode="&#x16b;" horiz-adv-x="570" 
d="M152 633v48h265v-48h-265zM285 -8q-91 0 -147 57q-56 56 -56 151v300h50v-296q0 -77 41 -121q40 -43 112 -43t112 43q41 44 41 121v296h50v-300q0 -96 -55 -151q-56 -57 -148 -57z" />
    <glyph glyph-name="Ubreve" unicode="&#x16c;" horiz-adv-x="711" 
d="M356 721q-60 0 -97 31q-38 32 -38 78h45q0 -29 25 -45q25 -17 65 -17t66 17q24 17 24 45h45q0 -46 -38 -78q-37 -31 -97 -31zM355 -10q-79 0 -138 34q-61 35 -92 97q-33 61 -33 145v424h52v-420q0 -108 57 -169t154 -61q98 0 155 61t57 169v420h52v-424q0 -84 -33 -145
q-32 -62 -92 -97q-59 -34 -139 -34z" />
    <glyph glyph-name="ubreve" unicode="&#x16d;" horiz-adv-x="570" 
d="M285 585q-59 0 -97 44t-38 111h45q0 -50 25 -78q24 -30 65 -30t66 30q24 28 24 78h45q0 -67 -38 -111t-97 -44zM285 -8q-91 0 -147 57q-56 56 -56 151v300h50v-296q0 -77 41 -121q40 -43 112 -43t112 43q41 44 41 121v296h50v-300q0 -96 -55 -151q-56 -57 -148 -57z" />
    <glyph glyph-name="Uring" unicode="&#x16e;" horiz-adv-x="711" 
d="M356 668q-42 0 -70 28q-30 28 -30 67t30 67q28 28 70 28t71 -28q29 -29 29 -67t-29 -67q-29 -28 -71 -28zM356 708q26 0 43 16q17 17 17 39t-17 39q-17 16 -43 16t-42 -16q-18 -16 -18 -39t18 -39q16 -16 42 -16zM355 -10q-79 0 -138 34q-61 35 -92 97q-33 61 -33 145
v424h52v-420q0 -108 57 -169t154 -61q98 0 155 61t57 169v420h52v-424q0 -84 -33 -145q-32 -62 -92 -97q-59 -34 -139 -34z" />
    <glyph glyph-name="uring" unicode="&#x16f;" horiz-adv-x="570" 
d="M285 558q-44 0 -74 31q-31 31 -31 74q0 44 31 75q30 30 74 30q43 0 74 -30q31 -31 31 -75q0 -43 -31 -74t-74 -31zM285 598q27 0 46 19t19 46t-19 46t-46 19t-46 -19t-19 -46t19 -46t46 -19zM285 -8q-91 0 -147 57q-56 56 -56 151v300h50v-296q0 -77 41 -121
q40 -43 112 -43t112 43q41 44 41 121v296h50v-300q0 -96 -55 -151q-56 -57 -148 -57z" />
    <glyph glyph-name="Udblacute" unicode="&#x170;" horiz-adv-x="711" 
d="M240 727l113 103h78l-133 -103h-58zM380 727l113 103h78l-133 -103h-58zM355 -10q-79 0 -138 34q-61 35 -92 97q-33 61 -33 145v424h52v-420q0 -108 57 -169t154 -61q98 0 155 61t57 169v420h52v-424q0 -84 -33 -145q-32 -62 -92 -97q-59 -34 -139 -34z" />
    <glyph glyph-name="udblacute" unicode="&#x171;" horiz-adv-x="570" 
d="M169 587l113 153h68l-133 -153h-48zM299 587l113 153h68l-133 -153h-48zM285 -8q-91 0 -147 57q-56 56 -56 151v300h50v-296q0 -77 41 -121q40 -43 112 -43t112 43q41 44 41 121v296h50v-300q0 -96 -55 -151q-56 -57 -148 -57z" />
    <glyph glyph-name="Uogonek" unicode="&#x172;" horiz-adv-x="711" 
d="M468 -217q-42 0 -66 21q-24 22 -24 62q0 30 15 63q16 35 52 74q-39 -13 -90 -13q-79 0 -138 34q-61 35 -92 97q-33 61 -33 145v424h52v-420q0 -108 57 -169t154 -61q98 0 155 61t57 169v420h52v-424q0 -70 -24 -126t-68 -93q-56 -60 -78 -103q-21 -40 -21 -73
q0 -41 41 -41q29 0 52 18v-52q-19 -13 -53 -13z" />
    <glyph glyph-name="uogonek" unicode="&#x173;" horiz-adv-x="570" 
d="M359 -217q-42 0 -66 21q-24 22 -24 62q0 63 65 131q-28 -5 -49 -5q-91 0 -147 57q-56 56 -56 151v300h50v-296q0 -77 41 -121q40 -43 112 -43t112 43q41 44 41 121v296h50v-300q0 -52 -17 -94q-18 -42 -51 -69q-101 -98 -101 -166q0 -41 41 -41q30 0 52 18v-52
q-19 -13 -53 -13z" />
    <glyph glyph-name="Wcircumflex" unicode="&#x174;" horiz-adv-x="954" 
d="M322 727l118 103h74l118 -103h-67l-88 77l-88 -77h-67zM224 0l-214 690h55l188 -616l196 616h56l196 -616l188 616h55l-214 -690h-58l-195 614l-195 -614h-58z" />
    <glyph glyph-name="wcircumflex" unicode="&#x175;" horiz-adv-x="790" 
d="M250 587l113 153h64l113 -153h-57l-88 119l-88 -119h-57zM184 0l-174 500h53l152 -444l151 444h58l151 -444l152 444h53l-174 -500h-62l-149 438l-149 -438h-62z" />
    <glyph glyph-name="Ycircumflex" unicode="&#x176;" horiz-adv-x="586" 
d="M138 727l118 103h74l118 -103h-67l-88 77l-88 -77h-67zM267 0v288l-257 402h61l222 -351l222 351h61l-257 -402v-288h-52z" />
    <glyph glyph-name="ycircumflex" unicode="&#x177;" horiz-adv-x="490" 
d="M100 587l113 153h64l113 -153h-57l-88 119l-88 -119h-57zM62 -214q-21 0 -33 4l9 49q11 -3 25 -3q42 0 68 13q27 14 49 44q23 35 44 89l6 16l-220 502h54l192 -445l171 445h53l-209 -537q-37 -98 -85 -138q-48 -39 -124 -39z" />
    <glyph glyph-name="Ydieresis" unicode="&#x178;" horiz-adv-x="586" 
d="M193 739q-16 0 -27 11t-11 27q0 17 11 28q10 10 27 10t27 -10q11 -11 11 -28q0 -16 -11 -27t-27 -11zM393 739q-16 0 -27 11t-11 27q0 17 11 28q10 10 27 10t27 -10q11 -11 11 -28q0 -16 -11 -27t-27 -11zM267 0v288l-257 402h61l222 -351l222 351h61l-257 -402v-288h-52
z" />
    <glyph glyph-name="Zacute" unicode="&#x179;" horiz-adv-x="640" 
d="M258 727l113 103h83l-133 -103h-63zM61 0v60l447 578h-435v52h495v-60l-448 -578h460v-52h-519z" />
    <glyph glyph-name="zacute" unicode="&#x17a;" horiz-adv-x="519" 
d="M197 587l113 153h73l-133 -153h-53zM60 0v55l330 397h-320v48h379v-55l-330 -397h340v-48h-399z" />
    <glyph glyph-name="Zdot" unicode="&#x17b;" horiz-adv-x="640" 
d="M321 737q-17 0 -28 12q-12 11 -12 28t12 29q11 11 28 11q16 0 29 -11q11 -13 11 -29q0 -17 -11 -28q-12 -12 -29 -12zM61 0v60l447 578h-435v52h495v-60l-448 -578h460v-52h-519z" />
    <glyph glyph-name="zdot" unicode="&#x17c;" horiz-adv-x="519" 
d="M260 647q-18 0 -28 12q-12 11 -12 28t12 29q11 11 28 11q16 0 29 -11q11 -13 11 -29q0 -17 -11 -28q-12 -12 -29 -12zM60 0v55l330 397h-320v48h379v-55l-330 -397h340v-48h-399z" />
    <glyph glyph-name="Zcaron" unicode="&#x17d;" horiz-adv-x="640" 
d="M284 727l-118 103h67l88 -77l88 77h67l-118 -103h-74zM61 0v60l447 578h-435v52h495v-60l-448 -578h460v-52h-519z" />
    <glyph glyph-name="zcaron" unicode="&#x17e;" horiz-adv-x="519" 
d="M228 587l-113 153h57l88 -119l88 119h57l-113 -153h-64zM60 0v55l330 397h-320v48h379v-55l-330 -397h340v-48h-399z" />
    <glyph glyph-name="florin" unicode="&#x192;" horiz-adv-x="540" 
d="M92 -214q-37 0 -76 15l15 48q32 -13 58 -13q35 0 59 25q23 25 34 90l73 449h-101v50h110l17 107q12 71 53 108q40 36 95 36q37 0 76 -15l-15 -48q-30 13 -58 13q-81 0 -99 -107l-15 -94h122v-50h-131l-75 -462q-14 -79 -50 -116q-38 -36 -92 -36z" />
    <glyph glyph-name="Ohorn" unicode="&#x1a0;" horiz-adv-x="821" 
d="M720 528q45 -81 45 -183t-45 -183q-46 -81 -126 -126q-80 -46 -183 -46t-183 46q-81 45 -126 126q-46 80 -46 183t46 183q45 80 126 126q81 45 183 45q42 0 84 -8q37 4 60.5 33.5t18.5 67.5h46q6 -77 -58 -122q16 -7 32 -16q80 -46 126 -126zM674 188q39 69 39 157
t-39 157t-107 108q-69 39 -156 39t-156 -39t-108 -108t-39 -157t39 -157q39 -70 108 -109t156 -39q86 0 155 39t108 109z" />
    <glyph glyph-name="ohorn" unicode="&#x1a1;" horiz-adv-x="618" 
d="M534 384q33 -58 33 -134q0 -74 -33 -133q-34 -60 -91 -92q-59 -33 -134 -33t-133 33q-59 33 -92 92t-33 133q0 76 33 134q32 57 92 91q58 33 133 33q34 0 68 -8q37 4 61 33.5t19 68.5h46q3 -39 -14.5 -72.5t-48.5 -52.5l3 -2q58 -33 91 -91zM491 142q26 47 26 108
q0 60 -26 109q-27 47 -74 74q-48 27 -108 27t-107 -27q-48 -27 -74 -74q-27 -48 -27 -109q0 -62 27 -108q25 -48 74 -75q47 -27 107 -27t108 27q47 27 74 75z" />
    <glyph glyph-name="Uhorn" unicode="&#x1af;" horiz-adv-x="711" 
d="M705 792q4 -46 -21 -83.5t-65 -53.5v-389q0 -84 -33 -145q-32 -62 -92 -97q-59 -34 -139 -34q-79 0 -138 34q-61 35 -92 97q-33 61 -33 145v424h52v-420q0 -108 57 -169t154 -61q98 0 155 61t57 169v420h3q40 0 67 30t22 72h46z" />
    <glyph glyph-name="uhorn" unicode="&#x1b0;" horiz-adv-x="570" 
d="M579 602q4 -47 -22.5 -85.5t-68.5 -53.5v-263q0 -96 -55 -151q-56 -57 -148 -57q-91 0 -147 57q-56 56 -56 151v300h50v-296q0 -77 41 -121q40 -43 112 -43t112 43q41 44 41 121v296h6q40 0 67 30t22 72h46z" />
    <glyph glyph-name="uni0218" unicode="&#x218;" horiz-adv-x="594" 
d="M276 -11q-62 0 -121 18q-59 17 -103 50l28 45q88 -61 197 -61q97 0 148 39t51 105q0 44 -25 70q-25 27 -63 42q-35 13 -103 30q-73 18 -116 36q-44 16 -75 52q-31 34 -31 94q0 57 30 100q28 42 83 67q54 24 123 24q62 0 119 -19q56 -19 103 -57l-31 -46q-91 71 -191 71
q-85 0 -134 -39q-49 -40 -49 -101q0 -40 25 -65q23 -24 60 -38q35 -14 99 -30q71 -17 119 -36q47 -18 78 -55t31 -99q0 -59 -31 -102q-31 -45 -88 -70t-133 -25zM246 -200l46 150h61l-66 -150h-41z" />
    <glyph glyph-name="uni0219" unicode="&#x219;" horiz-adv-x="450" 
d="M209 -8q-46 0 -88 13q-41 11 -76 35l25 43q61 -43 139 -43q66 0 101 26t35 68q0 28 -17 47q-17 17 -44 28q-20 8 -70 22q-47 12 -84 28q-32 13 -54 39q-23 26 -23 70q0 62 49 101q48 39 125 39q43 0 87 -14q40 -13 76 -41l-28 -42q-64 49 -138 49q-57 0 -88 -25
q-33 -25 -33 -66q0 -26 17 -43q18 -18 41 -26q27 -11 68 -21q48 -12 87 -28q32 -14 56 -41q23 -29 23 -74q0 -64 -51 -104q-50 -40 -135 -40zM174 -200l46 150h61l-66 -150h-41z" />
    <glyph glyph-name="uni021A" unicode="&#x21a;" horiz-adv-x="592" 
d="M270 0v642h-260v48h572v-48h-260v-642h-52zM245 -200l46 150h61l-66 -150h-41z" />
    <glyph glyph-name="uni021B" unicode="&#x21b;" horiz-adv-x="388" 
d="M260 -8q-69 0 -108 43t-39 119v298h-93v48h93v144h50v-144h200v-48h-200v-294q0 -61 25 -89q24 -29 75 -29t94 28l20 -44q-55 -32 -117 -32zM194 -200l46 150h61l-66 -150h-41z" />
    <glyph glyph-name="uni0237" unicode="&#x237;" horiz-adv-x="234" 
d="M-5 -218q-34 0 -58 10l16 45q17 -7 41 -7q98 0 98 110v560h50v-562q0 -73 -39 -115q-39 -41 -108 -41z" />
    <glyph glyph-name="circumflex" unicode="&#x2c6;" horiz-adv-x="600" 
d="M30 587l113 153h64l113 -153h-57l-88 119l-88 -119h-57z" />
    <glyph glyph-name="caron" unicode="&#x2c7;" horiz-adv-x="350" 
d="M143 587l-113 153h57l88 -119l88 119h57l-113 -153h-64z" />
    <glyph glyph-name="uni02C9" unicode="&#x2c9;" horiz-adv-x="325" 
d="M30 633v48h265v-48h-265z" />
    <glyph glyph-name="breve" unicode="&#x2d8;" horiz-adv-x="600" 
d="M165 585q-59 0 -97 44t-38 111h45q0 -50 25 -78q24 -30 65 -30t66 30q24 28 24 78h45q0 -67 -38 -111t-97 -44z" />
    <glyph glyph-name="dotaccent" unicode="&#x2d9;" horiz-adv-x="140" 
d="M70 647q-18 0 -28 12q-12 11 -12 28t12 29q11 11 28 11q16 0 29 -11q11 -13 11 -29q0 -17 -11 -28q-12 -12 -29 -12z" />
    <glyph glyph-name="ring" unicode="&#x2da;" horiz-adv-x="270" 
d="M135 558q-43 0 -74 31t-31 74q0 44 31 75q31 30 74 30t75 -30q30 -32 30 -75t-30 -74q-31 -31 -75 -31zM135 598q27 0 46 19t19 46t-19 46t-46 19t-46 -19t-19 -46t19 -46t46 -19z" />
    <glyph glyph-name="ogonek" unicode="&#x2db;" horiz-adv-x="204" 
d="M120 -217q-42 0 -66 21q-24 22 -24 62q0 34 23 65q22 30 79 69h42q-53 -44 -73 -73q-21 -29 -21 -56q0 -41 41 -41q29 0 52 18v-52q-19 -13 -53 -13z" />
    <glyph glyph-name="tilde" unicode="&#x2dc;" horiz-adv-x="600" 
d="M30 602q0 55 27 89t70 34q25 0 45 -11q16 -9 42 -31q23 -19 33 -25q13 -9 31 -9q54 0 54 76h45q0 -55 -27 -89t-70 -34q-24 0 -43 11q-20 11 -43 31q-19 16 -34 26q-14 8 -31 8q-54 0 -54 -76h-45z" />
    <glyph glyph-name="hungarumlaut" unicode="&#x2dd;" horiz-adv-x="371" 
d="M30 587l113 153h68l-133 -153h-48zM160 587l113 153h68l-133 -153h-48z" />
    <glyph glyph-name="gravecomb" unicode="&#x300;" 
d="M-83 587l-133 153h73l113 -153h-53z" />
    <glyph glyph-name="acutecomb" unicode="&#x301;" 
d="M-216 587l113 153h73l-133 -153h-53z" />
    <glyph glyph-name="uni0302" unicode="&#x302;" 
d="M-320 587l113 153h64l113 -153h-57l-88 119l-88 -119h-57z" />
    <glyph glyph-name="tildecomb" unicode="&#x303;" 
d="M-377 602q0 55 27 89t70 34q25 0 45 -11q16 -9 42 -31q23 -19 33 -25q14 -9 31 -9q54 0 54 76h45q0 -55 -27 -89t-70 -34q-24 0 -43 11q-20 11 -43 31q-19 16 -34 26q-14 8 -31 8q-54 0 -54 -76h-45z" />
    <glyph glyph-name="uni0304" unicode="&#x304;" 
d="M-295 633v48h265v-48h-265z" />
    <glyph glyph-name="uni0306" unicode="&#x306;" 
d="M-165 585q-59 0 -97 44t-38 111h45q0 -50 25 -78q24 -30 65 -30t66 30q24 28 24 78h45q0 -67 -38 -111t-97 -44z" />
    <glyph glyph-name="uni0307" unicode="&#x307;" 
d="M-70 647q-17 0 -29 12q-11 11 -11 28q0 16 11 29q13 11 29 11q17 0 28 -11q12 -12 12 -29t-12 -28q-10 -12 -28 -12z" />
    <glyph glyph-name="uni0308" unicode="&#x308;" 
d="M-270 649q-17 0 -28 11q-10 10 -10 27q0 18 10 28t28 10q17 0 27 -10q11 -11 11 -28q0 -16 -11 -27t-27 -11zM-70 649q-17 0 -28 11q-10 10 -10 27q0 18 10 28t28 10q17 0 27 -10q11 -11 11 -28q0 -16 -11 -27t-27 -11z" />
    <glyph glyph-name="hookabovecomb" unicode="&#x309;" 
d="M-376 546l-2 64q89 10 89 70q0 26 -16.5 40.5t-46.5 14.5q-60 0 -73 -55l-47 12q28 86 120 89q48 2 79.5 -26.5t31.5 -74.5q0 -40 -25 -67t-69 -35l-1 -32h-40z" />
    <glyph glyph-name="uni030A" unicode="&#x30a;" 
d="M-145 558q-44 0 -75 31q-30 31 -30 74t30 75q32 30 75 30q42 0 74 -30q31 -31 31 -75q0 -43 -31 -74t-74 -31zM-145 598q27 0 46 19t19 46t-19 46t-46 19t-46 -19t-19 -46t19 -46t46 -19z" />
    <glyph glyph-name="uni030B" unicode="&#x30b;" 
d="M-341 587l113 153h68l-133 -153h-48zM-211 587l113 153h68l-133 -153h-48z" />
    <glyph glyph-name="uni030C" unicode="&#x30c;" 
d="M-207 587l-113 153h57l88 -119l88 119h57l-113 -153h-64z" />
    <glyph glyph-name="uni0312" unicode="&#x312;" 
d="M-134 590l66 150h41l-46 -150h-61z" />
    <glyph glyph-name="uni031B" unicode="&#x31b;" 
d="M-180 455v45q40 0 67 30t22 72h46q4 -60 -37 -103.5t-98 -43.5z" />
    <glyph glyph-name="dotbelowcomb" unicode="&#x323;" 
d="M-70 -134q-16 0 -28 12t-12 28q0 14 12 29q10 11 28 11q20 0 29 -11q11 -13 11 -29q0 -17 -11 -28q-12 -12 -29 -12z" />
    <glyph glyph-name="uni0326" unicode="&#x326;" 
d="M-131 -200l46 150h61l-66 -150h-41z" />
    <glyph glyph-name="uni0327" unicode="&#x327;" 
d="M-137 -200l46 150h61l-66 -150h-41z" />
    <glyph glyph-name="uni0394" unicode="&#x394;" horiz-adv-x="641" 
d="M10 0l278 690h64l279 -690h-621zM85 50h471l-235 593z" />
    <glyph glyph-name="uni03A9" unicode="&#x3a9;" horiz-adv-x="826" 
d="M67 0v50h171q-160 142 -160 318q0 102 43 176q42 75 118 115t174 40t174 -40q75 -40 119 -115q42 -75 42 -176q0 -176 -160 -318h171v-50h-254v50q95 72 143 146t48 172q0 87 -36 151q-38 63 -101 97q-65 33 -146 33t-146 -33q-64 -34 -100 -97q-37 -64 -37 -151
q0 -98 48 -172t143 -146v-50h-254z" />
    <glyph glyph-name="uni03BC" unicode="&#x3bc;" horiz-adv-x="594" 
d="M92 -210v710h50v-296q0 -81 38 -122q38 -42 107 -42q76 0 121 49q44 50 44 142v269h50v-500h-42l-7 82q-53 -90 -166 -90q-47 0 -85 20t-60 57v-279h-50z" />
    <glyph glyph-name="Wgrave" unicode="&#x1e80;" horiz-adv-x="954" 
d="M477 727l-133 103h83l113 -103h-63zM224 0l-214 690h55l188 -616l196 616h56l196 -616l188 616h55l-214 -690h-58l-195 614l-195 -614h-58z" />
    <glyph glyph-name="wgrave" unicode="&#x1e81;" horiz-adv-x="790" 
d="M405 587l-133 153h73l113 -153h-53zM184 0l-174 500h53l152 -444l151 444h58l151 -444l152 444h53l-174 -500h-62l-149 438l-149 -438h-62z" />
    <glyph glyph-name="Wacute" unicode="&#x1e82;" horiz-adv-x="954" 
d="M414 727l113 103h83l-133 -103h-63zM224 0l-214 690h55l188 -616l196 616h56l196 -616l188 616h55l-214 -690h-58l-195 614l-195 -614h-58z" />
    <glyph glyph-name="wacute" unicode="&#x1e83;" horiz-adv-x="790" 
d="M332 587l113 153h73l-133 -153h-53zM184 0l-174 500h53l152 -444l151 444h58l151 -444l152 444h53l-174 -500h-62l-149 438l-149 -438h-62z" />
    <glyph glyph-name="Wdieresis" unicode="&#x1e84;" horiz-adv-x="954" 
d="M377 739q-16 0 -27 11t-11 27q0 17 11 28q10 10 27 10t27 -10q11 -11 11 -28q0 -16 -11 -27t-27 -11zM577 739q-16 0 -27 11t-11 27q0 17 11 28q10 10 27 10t27 -10q11 -11 11 -28q0 -16 -11 -27t-27 -11zM224 0l-214 690h55l188 -616l196 616h56l196 -616l188 616h55
l-214 -690h-58l-195 614l-195 -614h-58z" />
    <glyph glyph-name="wdieresis" unicode="&#x1e85;" horiz-adv-x="790" 
d="M295 649q-16 0 -27 11t-11 27q0 17 11 28q10 10 27 10t27 -10q11 -11 11 -28q0 -16 -11 -27t-27 -11zM495 649q-16 0 -27 11t-11 27q0 17 11 28q10 10 27 10t27 -10q11 -11 11 -28q0 -16 -11 -27t-27 -11zM184 0l-174 500h53l152 -444l151 444h58l151 -444l152 444h53
l-174 -500h-62l-149 438l-149 -438h-62z" />
    <glyph glyph-name="uni1E9E" unicode="&#x1e9e;" horiz-adv-x="725" 
d="M427 -11q-57 0 -110 18q-52 16 -94 50l28 45q79 -61 177 -61q54 0 93 19q42 19 64 51q22 31 22 74q0 68 -49 108q-50 41 -157 41q-27 0 -57 -3v48l169 186q-68 83 -184 83q-92 0 -144 -58q-53 -59 -53 -161v-429h-52v433q0 78 32 139q31 59 88 93q56 33 128 33
q82 0 148 -36q66 -39 104 -98l-168 -183q121 -1 184 -54t63 -141q0 -57 -30 -102t-82 -70q-51 -25 -120 -25z" />
    <glyph glyph-name="uni1EA0" unicode="&#x1ea0;" horiz-adv-x="641" 
d="M10 0l278 690h64l279 -690h-55l-93 235h-325l-93 -235h-55zM178 285h285l-142 358zM321 -134q-16 0 -28 12t-12 28q0 14 12 29q10 11 28 11q20 0 29 -11q11 -13 11 -29q0 -17 -11 -28q-12 -12 -29 -12z" />
    <glyph glyph-name="uni1EA1" unicode="&#x1ea1;" horiz-adv-x="639" 
d="M301 -8q-73 0 -129 33q-57 33 -89 92t-32 133q0 75 32 134q31 57 89 91q56 33 129 33q63 0 116 -29q51 -29 80 -80l8 101h42v-500h-42l-8 101q-30 -52 -80 -79q-53 -30 -116 -30zM301 40q53 0 97 25q45 24 72 70q27 47 27 108v14q0 61 -27 108q-26 45 -72 71
q-45 24 -97 24q-58 0 -104 -26q-45 -26 -71 -74q-25 -47 -25 -110t25 -109q26 -49 71 -74q45 -27 104 -27zM320 -134q-16 0 -28 12t-12 28q0 14 12 29q10 11 28 11q20 0 29 -11q11 -13 11 -29q0 -17 -11 -28q-12 -12 -29 -12z" />
    <glyph glyph-name="uni1EA2" unicode="&#x1ea2;" horiz-adv-x="641" 
d="M300 736l-2 64q89 10 89 70q0 26 -16.5 40.5t-46.5 14.5q-60 0 -73 -55l-47 12q28 86 120 89q48 2 79.5 -26.5t31.5 -74.5q0 -40 -25 -67t-69 -35l-1 -32h-40zM10 0l278 690h64l279 -690h-55l-93 235h-325l-93 -235h-55zM178 285h285l-142 358z" />
    <glyph glyph-name="uni1EA3" unicode="&#x1ea3;" horiz-adv-x="639" 
d="M299 546l-2 64q89 10 89 70q0 26 -16.5 40.5t-46.5 14.5q-60 0 -73 -55l-47 12q28 86 120 89q48 2 79.5 -26.5t31.5 -74.5q0 -40 -25 -67t-69 -35l-1 -32h-40zM301 -8q-73 0 -129 33q-57 33 -89 92t-32 133q0 75 32 134q31 57 89 91q56 33 129 33q63 0 116 -29
q51 -29 80 -80l8 101h42v-500h-42l-8 101q-30 -52 -80 -79q-53 -30 -116 -30zM301 40q53 0 97 25q45 24 72 70q27 47 27 108v14q0 61 -27 108q-26 45 -72 71q-45 24 -97 24q-58 0 -104 -26q-45 -26 -71 -74q-25 -47 -25 -110t25 -109q26 -49 71 -74q45 -27 104 -27z" />
    <glyph glyph-name="uni1EA4" unicode="&#x1ea4;" horiz-adv-x="641" 
d="M477 834l113 153h73l-133 -153h-53zM176 747l113 153h64l113 -153h-57l-88 119l-88 -119h-57zM10 0l278 690h64l279 -690h-55l-93 235h-325l-93 -235h-55zM178 285h285l-142 358z" />
    <glyph glyph-name="uni1EA5" unicode="&#x1ea5;" horiz-adv-x="639" 
d="M476 644l113 153h73l-133 -153h-53zM175 557l113 153h64l113 -153h-57l-88 119l-88 -119h-57zM301 -8q-73 0 -129 33q-57 33 -89 92t-32 133q0 75 32 134q31 57 89 91q56 33 129 33q63 0 116 -29q51 -29 80 -80l8 101h42v-500h-42l-8 101q-30 -52 -80 -79
q-53 -30 -116 -30zM301 40q53 0 97 25q45 24 72 70q27 47 27 108v14q0 61 -27 108q-26 45 -72 71q-45 24 -97 24q-58 0 -104 -26q-45 -26 -71 -74q-25 -47 -25 -110t25 -109q26 -49 71 -74q45 -27 104 -27z" />
    <glyph glyph-name="uni1EA6" unicode="&#x1ea6;" horiz-adv-x="641" 
d="M468 834l-133 153h73l113 -153h-53zM176 747l113 153h64l113 -153h-57l-88 119l-88 -119h-57zM10 0l278 690h64l279 -690h-55l-93 235h-325l-93 -235h-55zM178 285h285l-142 358z" />
    <glyph glyph-name="uni1EA7" unicode="&#x1ea7;" horiz-adv-x="639" 
d="M467 644l-133 153h73l113 -153h-53zM175 557l113 153h64l113 -153h-57l-88 119l-88 -119h-57zM301 -8q-73 0 -129 33q-57 33 -89 92t-32 133q0 75 32 134q31 57 89 91q56 33 129 33q63 0 116 -29q51 -29 80 -80l8 101h42v-500h-42l-8 101q-30 -52 -80 -79
q-53 -30 -116 -30zM301 40q53 0 97 25q45 24 72 70q27 47 27 108v14q0 61 -27 108q-26 45 -72 71q-45 24 -97 24q-58 0 -104 -26q-45 -26 -71 -74q-25 -47 -25 -110t25 -109q26 -49 71 -74q45 -27 104 -27z" />
    <glyph glyph-name="uni1EA8" unicode="&#x1ea8;" horiz-adv-x="641" 
d="M479 793l-2 64q89 10 89 70q0 26 -16.5 40.5t-46.5 14.5q-60 0 -73 -55l-47 12q28 86 120 89q48 2 79.5 -26.5t31.5 -74.5q0 -40 -25 -67t-69 -35l-1 -32h-40zM176 747l113 153h64l113 -153h-57l-88 119l-88 -119h-57zM10 0l278 690h64l279 -690h-55l-93 235h-325
l-93 -235h-55zM178 285h285l-142 358z" />
    <glyph glyph-name="uni1EA9" unicode="&#x1ea9;" horiz-adv-x="639" 
d="M478 603l-2 64q89 10 89 70q0 26 -16.5 40.5t-46.5 14.5q-60 0 -73 -55l-47 12q28 86 120 89q48 2 79.5 -26.5t31.5 -74.5q0 -40 -25 -67t-69 -35l-1 -32h-40zM175 557l113 153h64l113 -153h-57l-88 119l-88 -119h-57zM301 -8q-73 0 -129 33q-57 33 -89 92t-32 133
q0 75 32 134q31 57 89 91q56 33 129 33q63 0 116 -29q51 -29 80 -80l8 101h42v-500h-42l-8 101q-30 -52 -80 -79q-53 -30 -116 -30zM301 40q53 0 97 25q45 24 72 70q27 47 27 108v14q0 61 -27 108q-26 45 -72 71q-45 24 -97 24q-58 0 -104 -26q-45 -26 -71 -74
q-25 -47 -25 -110t25 -109q26 -49 71 -74q45 -27 104 -27z" />
    <glyph glyph-name="uni1EAA" unicode="&#x1eaa;" horiz-adv-x="641" 
d="M152 918q0 54 27 89q27 34 70 34q25 0 45 -11q16 -9 42 -31q23 -19 33 -25q13 -9 31 -9q54 0 54 76h45q0 -55 -27 -89t-70 -34q-24 0 -43 11q-20 11 -43 31q-19 16 -34 26q-14 8 -31 8q-54 0 -54 -76h-45zM176 747l113 153h64l113 -153h-57l-88 119l-88 -119h-57zM10 0
l278 690h64l279 -690h-55l-93 235h-325l-93 -235h-55zM178 285h285l-142 358z" />
    <glyph glyph-name="uni1EAB" unicode="&#x1eab;" horiz-adv-x="639" 
d="M151 728q0 54 27 89q27 34 70 34q25 0 45 -11q16 -9 42 -31q23 -19 33 -25q13 -9 31 -9q54 0 54 76h45q0 -55 -27 -89t-70 -34q-24 0 -43 11q-20 11 -43 31q-19 16 -34 26q-14 8 -31 8q-54 0 -54 -76h-45zM175 557l113 153h64l113 -153h-57l-88 119l-88 -119h-57zM301 -8
q-73 0 -129 33q-57 33 -89 92t-32 133q0 75 32 134q31 57 89 91q56 33 129 33q63 0 116 -29q51 -29 80 -80l8 101h42v-500h-42l-8 101q-30 -52 -80 -79q-53 -30 -116 -30zM301 40q53 0 97 25q45 24 72 70q27 47 27 108v14q0 61 -27 108q-26 45 -72 71q-45 24 -97 24
q-58 0 -104 -26q-45 -26 -71 -74q-25 -47 -25 -110t25 -109q26 -49 71 -74q45 -27 104 -27z" />
    <glyph glyph-name="uni1EAC" unicode="&#x1eac;" horiz-adv-x="641" 
d="M176 747l113 153h64l113 -153h-57l-88 119l-88 -119h-57zM10 0l278 690h64l279 -690h-55l-93 235h-325l-93 -235h-55zM178 285h285l-142 358zM321 -134q-16 0 -28 12t-12 28q0 14 12 29q10 11 28 11q20 0 29 -11q11 -13 11 -29q0 -17 -11 -28q-12 -12 -29 -12z" />
    <glyph glyph-name="uni1EAD" unicode="&#x1ead;" horiz-adv-x="639" 
d="M175 557l113 153h64l113 -153h-57l-88 119l-88 -119h-57zM301 -8q-73 0 -129 33q-57 33 -89 92t-32 133q0 75 32 134q31 57 89 91q56 33 129 33q63 0 116 -29q51 -29 80 -80l8 101h42v-500h-42l-8 101q-30 -52 -80 -79q-53 -30 -116 -30zM301 40q53 0 97 25q45 24 72 70
q27 47 27 108v14q0 61 -27 108q-26 45 -72 71q-45 24 -97 24q-58 0 -104 -26q-45 -26 -71 -74q-25 -47 -25 -110t25 -109q26 -49 71 -74q45 -27 104 -27zM320 -134q-16 0 -28 12t-12 28q0 14 12 29q10 11 28 11q20 0 29 -11q11 -13 11 -29q0 -17 -11 -28q-12 -12 -29 -12z
" />
    <glyph glyph-name="uni1EAE" unicode="&#x1eae;" horiz-adv-x="641" 
d="M298 947l113 153h73l-133 -153h-53zM321 755q-59 0 -97 44t-38 111h45q0 -50 25 -78q24 -30 65 -30t66 30q24 28 24 78h45q0 -67 -38 -111t-97 -44zM10 0l278 690h64l279 -690h-55l-93 235h-325l-93 -235h-55zM178 285h285l-142 358z" />
    <glyph glyph-name="uni1EAF" unicode="&#x1eaf;" horiz-adv-x="639" 
d="M297 757l113 153h73l-133 -153h-53zM320 565q-59 0 -97 44t-38 111h45q0 -50 25 -78q24 -30 65 -30q40 0 66 30q24 28 24 78h45q0 -67 -38 -111t-97 -44zM301 -8q-73 0 -129 33q-57 33 -89 92t-32 133q0 75 32 134q31 57 89 91q56 33 129 33q63 0 116 -29q51 -29 80 -80
l8 101h42v-500h-42l-8 101q-30 -52 -80 -79q-53 -30 -116 -30zM301 40q53 0 97 25q45 24 72 70q27 47 27 108v14q0 61 -27 108q-26 45 -72 71q-45 24 -97 24q-58 0 -104 -26q-45 -26 -71 -74q-25 -47 -25 -110t25 -109q26 -49 71 -74q45 -27 104 -27z" />
    <glyph glyph-name="uni1EB0" unicode="&#x1eb0;" horiz-adv-x="641" 
d="M289 947l-133 153h73l113 -153h-53zM321 755q-59 0 -97 44t-38 111h45q0 -50 25 -78q24 -30 65 -30t66 30q24 28 24 78h45q0 -67 -38 -111t-97 -44zM10 0l278 690h64l279 -690h-55l-93 235h-325l-93 -235h-55zM178 285h285l-142 358z" />
    <glyph glyph-name="uni1EB1" unicode="&#x1eb1;" horiz-adv-x="639" 
d="M288 757l-133 153h73l113 -153h-53zM320 565q-59 0 -97 44t-38 111h45q0 -50 25 -78q24 -30 65 -30q40 0 66 30q24 28 24 78h45q0 -67 -38 -111t-97 -44zM301 -8q-73 0 -129 33q-57 33 -89 92t-32 133q0 75 32 134q31 57 89 91q56 33 129 33q63 0 116 -29q51 -29 80 -80
l8 101h42v-500h-42l-8 101q-30 -52 -80 -79q-53 -30 -116 -30zM301 40q53 0 97 25q45 24 72 70q27 47 27 108v14q0 61 -27 108q-26 45 -72 71q-45 24 -97 24q-58 0 -104 -26q-45 -26 -71 -74q-25 -47 -25 -110t25 -109q26 -49 71 -74q45 -27 104 -27z" />
    <glyph glyph-name="uni1EB2" unicode="&#x1eb2;" horiz-adv-x="641" 
d="M300 906l-2 64q89 10 89 70q0 26 -16.5 40.5t-46.5 14.5q-60 0 -73 -55l-47 12q28 86 120 89q48 2 79.5 -26.5t31.5 -74.5q0 -40 -25 -67t-69 -35l-1 -32h-40zM321 755q-59 0 -97 44t-38 111h45q0 -50 25 -78q24 -30 65 -30t66 30q24 28 24 78h45q0 -67 -38 -111t-97 -44
zM10 0l278 690h64l279 -690h-55l-93 235h-325l-93 -235h-55zM178 285h285l-142 358z" />
    <glyph glyph-name="uni1EB3" unicode="&#x1eb3;" horiz-adv-x="639" 
d="M299 716l-2 64q89 10 89 70q0 26 -16.5 40.5t-46.5 14.5q-60 0 -73 -55l-47 12q28 86 120 89q48 2 79.5 -26.5t31.5 -74.5q0 -40 -25 -67t-69 -35l-1 -32h-40zM320 565q-59 0 -97 44t-38 111h45q0 -50 25 -78q24 -30 65 -30q40 0 66 30q24 28 24 78h45q0 -67 -38 -111
t-97 -44zM301 -8q-73 0 -129 33q-57 33 -89 92t-32 133q0 75 32 134q31 57 89 91q56 33 129 33q63 0 116 -29q51 -29 80 -80l8 101h42v-500h-42l-8 101q-30 -52 -80 -79q-53 -30 -116 -30zM301 40q53 0 97 25q45 24 72 70q27 47 27 108v14q0 61 -27 108q-26 45 -72 71
q-45 24 -97 24q-58 0 -104 -26q-45 -26 -71 -74q-25 -47 -25 -110t25 -109q26 -49 71 -74q45 -27 104 -27z" />
    <glyph glyph-name="uni1EB4" unicode="&#x1eb4;" horiz-adv-x="641" 
d="M147 962q0 55 27 89t70 34q25 0 45 -11q16 -9 42 -31q23 -19 33 -25q14 -9 31 -9q54 0 54 76h45q0 -55 -27 -89t-70 -34q-24 0 -43 11q-20 11 -43 31q-19 16 -34 26q-14 8 -31 8q-54 0 -54 -76h-45zM321 755q-59 0 -97 44t-38 111h45q0 -50 25 -78q24 -30 65 -30t66 30
q24 28 24 78h45q0 -67 -38 -111t-97 -44zM10 0l278 690h64l279 -690h-55l-93 235h-325l-93 -235h-55zM178 285h285l-142 358z" />
    <glyph glyph-name="uni1EB5" unicode="&#x1eb5;" horiz-adv-x="639" 
d="M146 772q0 54 27 89q27 34 70 34q25 0 45 -11q16 -9 42 -31q23 -19 33 -25q13 -9 31 -9q54 0 54 76h45q0 -55 -27 -89t-70 -34q-24 0 -43 11q-20 11 -43 31q-19 16 -34 26q-14 8 -31 8q-54 0 -54 -76h-45zM320 565q-59 0 -97 44t-38 111h45q0 -50 25 -78q24 -30 65 -30
q40 0 66 30q24 28 24 78h45q0 -67 -38 -111t-97 -44zM301 -8q-73 0 -129 33q-57 33 -89 92t-32 133q0 75 32 134q31 57 89 91q56 33 129 33q63 0 116 -29q51 -29 80 -80l8 101h42v-500h-42l-8 101q-30 -52 -80 -79q-53 -30 -116 -30zM301 40q53 0 97 25q45 24 72 70
q27 47 27 108v14q0 61 -27 108q-26 45 -72 71q-45 24 -97 24q-58 0 -104 -26q-45 -26 -71 -74q-25 -47 -25 -110t25 -109q26 -49 71 -74q45 -27 104 -27z" />
    <glyph glyph-name="uni1EB6" unicode="&#x1eb6;" horiz-adv-x="641" 
d="M321 755q-59 0 -97 44t-38 111h45q0 -50 25 -78q24 -30 65 -30t66 30q24 28 24 78h45q0 -67 -38 -111t-97 -44zM10 0l278 690h64l279 -690h-55l-93 235h-325l-93 -235h-55zM178 285h285l-142 358zM321 -134q-16 0 -28 12t-12 28q0 14 12 29q10 11 28 11q20 0 29 -11
q11 -13 11 -29q0 -17 -11 -28q-12 -12 -29 -12z" />
    <glyph glyph-name="uni1EB7" unicode="&#x1eb7;" horiz-adv-x="639" 
d="M320 565q-59 0 -97 44t-38 111h45q0 -50 25 -78q24 -30 65 -30q40 0 66 30q24 28 24 78h45q0 -67 -38 -111t-97 -44zM301 -8q-73 0 -129 33q-57 33 -89 92t-32 133q0 75 32 134q31 57 89 91q56 33 129 33q63 0 116 -29q51 -29 80 -80l8 101h42v-500h-42l-8 101
q-30 -52 -80 -79q-53 -30 -116 -30zM301 40q53 0 97 25q45 24 72 70q27 47 27 108v14q0 61 -27 108q-26 45 -72 71q-45 24 -97 24q-58 0 -104 -26q-45 -26 -71 -74q-25 -47 -25 -110t25 -109q26 -49 71 -74q45 -27 104 -27zM320 -134q-16 0 -28 12t-12 28q0 14 12 29
q10 11 28 11q20 0 29 -11q11 -13 11 -29q0 -17 -11 -28q-12 -12 -29 -12z" />
    <glyph glyph-name="uni1EB8" unicode="&#x1eb8;" horiz-adv-x="598" 
d="M100 0v690h444v-50h-392v-262h355v-49h-355v-279h392v-50h-444zM299 -134q-16 0 -28 12t-12 28q0 14 12 29q10 11 28 11q20 0 29 -11q11 -13 11 -29q0 -17 -11 -28q-12 -12 -29 -12z" />
    <glyph glyph-name="uni1EB9" unicode="&#x1eb9;" horiz-adv-x="580" 
d="M311 -8q-75 0 -134 33q-60 33 -93 92t-33 133q0 76 31 134q32 59 86 91q54 33 124 33q69 0 122 -31q52 -31 85 -88q30 -57 30 -129q0 -21 -1 -27h-426q3 -58 31 -101q30 -45 74 -68q46 -24 104 -24q89 0 157 60l29 -42q-39 -33 -86 -49q-49 -17 -100 -17zM103 281h374
q-10 81 -60 131q-49 48 -125 48t-128 -49t-61 -130zM290 -134q-16 0 -28 12t-12 28q0 14 12 29q10 11 28 11q20 0 29 -11q11 -13 11 -29q0 -17 -11 -28q-12 -12 -29 -12z" />
    <glyph glyph-name="uni1EBA" unicode="&#x1eba;" horiz-adv-x="598" 
d="M278 736l-2 64q89 10 89 70q0 26 -16.5 40.5t-46.5 14.5q-60 0 -73 -55l-47 12q28 86 120 89q48 2 79.5 -26.5t31.5 -74.5q0 -40 -25 -67t-69 -35l-1 -32h-40zM100 0v690h444v-50h-392v-262h355v-49h-355v-279h392v-50h-444z" />
    <glyph glyph-name="uni1EBB" unicode="&#x1ebb;" horiz-adv-x="580" 
d="M269 546l-2 64q89 10 89 70q0 26 -16.5 40.5t-46.5 14.5q-60 0 -73 -55l-47 12q28 86 120 89q48 2 79.5 -26.5t31.5 -74.5q0 -40 -25 -67t-69 -35l-1 -32h-40zM311 -8q-75 0 -134 33q-60 33 -93 92t-33 133q0 76 31 134q32 59 86 91q54 33 124 33q69 0 122 -31
q52 -31 85 -88q30 -57 30 -129q0 -21 -1 -27h-426q3 -58 31 -101q30 -45 74 -68q46 -24 104 -24q89 0 157 60l29 -42q-39 -33 -86 -49q-49 -17 -100 -17zM103 281h374q-10 81 -60 131q-49 48 -125 48t-128 -49t-61 -130z" />
    <glyph glyph-name="uni1EBC" unicode="&#x1ebc;" horiz-adv-x="598" 
d="M125 792q0 54 27 89q27 34 70 34q25 0 45 -11q16 -9 42 -31q23 -19 33 -25q14 -9 31 -9q54 0 54 76h45q0 -55 -27 -89t-70 -34q-24 0 -43 11q-20 11 -43 31q-19 16 -34 26q-14 8 -31 8q-54 0 -54 -76h-45zM100 0v690h444v-50h-392v-262h355v-49h-355v-279h392v-50h-444z
" />
    <glyph glyph-name="uni1EBD" unicode="&#x1ebd;" horiz-adv-x="580" 
d="M116 602q0 55 27 89t70 34q25 0 45 -11q16 -9 42 -31q23 -19 33 -25q13 -9 31 -9q54 0 54 76h45q0 -55 -27 -89t-70 -34q-24 0 -43 11q-20 11 -43 31q-19 16 -34 26q-14 8 -31 8q-54 0 -54 -76h-45zM311 -8q-75 0 -134 33q-60 33 -93 92t-33 133q0 76 31 134q32 59 86 91
q54 33 124 33q69 0 122 -31q52 -31 85 -88q30 -57 30 -129q0 -21 -1 -27h-426q3 -58 31 -101q30 -45 74 -68q46 -24 104 -24q89 0 157 60l29 -42q-39 -33 -86 -49q-49 -17 -100 -17zM103 281h374q-10 81 -60 131q-49 48 -125 48t-128 -49t-61 -130z" />
    <glyph glyph-name="uni1EBE" unicode="&#x1ebe;" horiz-adv-x="598" 
d="M455 834l113 153h73l-133 -153h-53zM154 747l113 153h64l113 -153h-57l-88 119l-88 -119h-57zM100 0v690h444v-50h-392v-262h355v-49h-355v-279h392v-50h-444z" />
    <glyph glyph-name="uni1EBF" unicode="&#x1ebf;" horiz-adv-x="580" 
d="M446 644l113 153h73l-133 -153h-53zM145 557l113 153h64l113 -153h-57l-88 119l-88 -119h-57zM311 -8q-75 0 -134 33q-60 33 -93 92t-33 133q0 76 31 134q32 59 86 91q54 33 124 33q69 0 122 -31q52 -31 85 -88q30 -57 30 -129q0 -21 -1 -27h-426q3 -58 31 -101
q30 -45 74 -68q46 -24 104 -24q89 0 157 60l29 -42q-39 -33 -86 -49q-49 -17 -100 -17zM103 281h374q-10 81 -60 131q-49 48 -125 48t-128 -49t-61 -130z" />
    <glyph glyph-name="uni1EC0" unicode="&#x1ec0;" horiz-adv-x="598" 
d="M446 834l-133 153h73l113 -153h-53zM154 747l113 153h64l113 -153h-57l-88 119l-88 -119h-57zM100 0v690h444v-50h-392v-262h355v-49h-355v-279h392v-50h-444z" />
    <glyph glyph-name="uni1EC1" unicode="&#x1ec1;" horiz-adv-x="580" 
d="M437 644l-133 153h73l113 -153h-53zM145 557l113 153h64l113 -153h-57l-88 119l-88 -119h-57zM311 -8q-75 0 -134 33q-60 33 -93 92t-33 133q0 76 31 134q32 59 86 91q54 33 124 33q69 0 122 -31q52 -31 85 -88q30 -57 30 -129q0 -21 -1 -27h-426q3 -58 31 -101
q30 -45 74 -68q46 -24 104 -24q89 0 157 60l29 -42q-39 -33 -86 -49q-49 -17 -100 -17zM103 281h374q-10 81 -60 131q-49 48 -125 48t-128 -49t-61 -130z" />
    <glyph glyph-name="uni1EC2" unicode="&#x1ec2;" horiz-adv-x="598" 
d="M457 793l-2 64q89 10 89 70q0 26 -16.5 40.5t-46.5 14.5q-60 0 -73 -55l-47 12q28 86 120 89q48 2 79.5 -26.5t31.5 -74.5q0 -40 -25 -67t-69 -35l-1 -32h-40zM154 747l113 153h64l113 -153h-57l-88 119l-88 -119h-57zM100 0v690h444v-50h-392v-262h355v-49h-355v-279
h392v-50h-444z" />
    <glyph glyph-name="uni1EC3" unicode="&#x1ec3;" horiz-adv-x="580" 
d="M448 603l-2 64q89 10 89 70q0 26 -16.5 40.5t-46.5 14.5q-60 0 -73 -55l-47 12q28 86 120 89q48 2 79.5 -26.5t31.5 -74.5q0 -40 -25 -67t-69 -35l-1 -32h-40zM145 557l113 153h64l113 -153h-57l-88 119l-88 -119h-57zM311 -8q-75 0 -134 33q-60 33 -93 92t-33 133
q0 76 31 134q32 59 86 91q54 33 124 33q69 0 122 -31q52 -31 85 -88q30 -57 30 -129q0 -21 -1 -27h-426q3 -58 31 -101q30 -45 74 -68q46 -24 104 -24q89 0 157 60l29 -42q-39 -33 -86 -49q-49 -17 -100 -17zM103 281h374q-10 81 -60 131q-49 48 -125 48t-128 -49t-61 -130z
" />
    <glyph glyph-name="uni1EC4" unicode="&#x1ec4;" horiz-adv-x="598" 
d="M130 918q0 54 27 89q27 34 70 34q25 0 45 -11q16 -9 42 -31q23 -19 33 -25q13 -9 31 -9q54 0 54 76h45q0 -55 -27 -89t-70 -34q-24 0 -43 11q-20 11 -43 31q-19 16 -34 26q-14 8 -31 8q-54 0 -54 -76h-45zM154 747l113 153h64l113 -153h-57l-88 119l-88 -119h-57zM100 0
v690h444v-50h-392v-262h355v-49h-355v-279h392v-50h-444z" />
    <glyph glyph-name="uni1EC5" unicode="&#x1ec5;" horiz-adv-x="580" 
d="M121 728q0 54 27 89q27 34 70 34q25 0 45 -11q16 -9 42 -31q23 -19 33 -25q13 -9 31 -9q54 0 54 76h45q0 -55 -27 -89t-70 -34q-24 0 -43 11q-20 11 -43 31q-19 16 -34 26q-14 8 -31 8q-54 0 -54 -76h-45zM145 557l113 153h64l113 -153h-57l-88 119l-88 -119h-57zM311 -8
q-75 0 -134 33q-60 33 -93 92t-33 133q0 76 31 134q32 59 86 91q54 33 124 33q69 0 122 -31q52 -31 85 -88q30 -57 30 -129q0 -21 -1 -27h-426q3 -58 31 -101q30 -45 74 -68q46 -24 104 -24q89 0 157 60l29 -42q-39 -33 -86 -49q-49 -17 -100 -17zM103 281h374
q-10 81 -60 131q-49 48 -125 48t-128 -49t-61 -130z" />
    <glyph glyph-name="uni1EC6" unicode="&#x1ec6;" horiz-adv-x="598" 
d="M154 747l113 153h64l113 -153h-57l-88 119l-88 -119h-57zM100 0v690h444v-50h-392v-262h355v-49h-355v-279h392v-50h-444zM299 -134q-16 0 -28 12t-12 28q0 14 12 29q10 11 28 11q20 0 29 -11q11 -13 11 -29q0 -17 -11 -28q-12 -12 -29 -12z" />
    <glyph glyph-name="uni1EC7" unicode="&#x1ec7;" horiz-adv-x="580" 
d="M145 557l113 153h64l113 -153h-57l-88 119l-88 -119h-57zM311 -8q-75 0 -134 33q-60 33 -93 92t-33 133q0 76 31 134q32 59 86 91q54 33 124 33q69 0 122 -31q52 -31 85 -88q30 -57 30 -129q0 -21 -1 -27h-426q3 -58 31 -101q30 -45 74 -68q46 -24 104 -24q89 0 157 60
l29 -42q-39 -33 -86 -49q-49 -17 -100 -17zM103 281h374q-10 81 -60 131q-49 48 -125 48t-128 -49t-61 -130zM290 -134q-16 0 -28 12t-12 28q0 14 12 29q10 11 28 11q20 0 29 -11q11 -13 11 -29q0 -17 -11 -28q-12 -12 -29 -12z" />
    <glyph glyph-name="uni1EC8" unicode="&#x1ec8;" horiz-adv-x="252" 
d="M105 736l-2 64q89 10 89 70q0 26 -16.5 40.5t-46.5 14.5q-60 0 -73 -55l-47 12q28 86 120 89q48 2 79.5 -26.5t31.5 -74.5q0 -40 -25 -67t-69 -35l-1 -32h-40zM100 0v690h52v-690h-52z" />
    <glyph glyph-name="uni1EC9" unicode="&#x1ec9;" horiz-adv-x="234" 
d="M96 546l-2 64q89 10 89 70q0 26 -16.5 40.5t-46.5 14.5q-60 0 -73 -55l-47 12q28 86 120 89q48 2 79.5 -26.5t31.5 -74.5q0 -40 -25 -67t-69 -35l-1 -32h-40zM92 0v500h50v-500h-50z" />
    <glyph glyph-name="uni1ECA" unicode="&#x1eca;" horiz-adv-x="252" 
d="M100 0v690h52v-690h-52zM126 -134q-16 0 -28 12t-12 28q0 14 12 29q10 11 28 11q20 0 29 -11q11 -13 11 -29q0 -17 -11 -28q-12 -12 -29 -12z" />
    <glyph glyph-name="uni1ECB" unicode="&#x1ecb;" horiz-adv-x="234" 
d="M117 647q-17 0 -28 12q-12 11 -12 28t12 29q11 11 28 11q16 0 29 -11q11 -13 11 -29q0 -17 -11 -28q-12 -12 -29 -12zM92 0v500h50v-500h-50zM117 -134q-16 0 -28 12t-12 28q0 14 12 29q10 11 28 11q20 0 29 -11q11 -13 11 -29q0 -17 -11 -28q-12 -12 -29 -12z" />
    <glyph glyph-name="uni1ECC" unicode="&#x1ecc;" horiz-adv-x="821" 
d="M411 -10q-103 0 -183 46q-81 45 -126 126q-46 80 -46 183t46 183q45 80 126 126q81 45 183 45t183 -45q80 -46 126 -126q45 -81 45 -183t-45 -183q-46 -81 -126 -126q-80 -46 -183 -46zM411 40q86 0 155 39t108 109q39 69 39 157t-39 157t-107 108q-69 39 -156 39
t-156 -39t-108 -108t-39 -157t39 -157q39 -70 108 -109t156 -39zM411 -134q-16 0 -28 12t-12 28q0 14 12 29q10 11 28 11q20 0 29 -11q11 -13 11 -29q0 -17 -11 -28q-12 -12 -29 -12z" />
    <glyph glyph-name="uni1ECD" unicode="&#x1ecd;" horiz-adv-x="618" 
d="M309 -8q-75 0 -133 33q-59 33 -92 92t-33 133q0 76 33 134q32 57 92 91q58 33 133 33t134 -33q58 -33 91 -91t33 -134q0 -74 -33 -133q-34 -60 -91 -92q-59 -33 -134 -33zM309 40q60 0 108 27q47 27 74 75q26 47 26 108q0 60 -26 109q-27 47 -74 74q-48 27 -108 27
t-107 -27q-48 -27 -74 -74q-27 -48 -27 -109q0 -62 27 -108q25 -48 74 -75q47 -27 107 -27zM309 -134q-16 0 -28 12t-12 28q0 14 12 29q10 11 28 11q20 0 29 -11q11 -13 11 -29q0 -17 -11 -28q-12 -12 -29 -12z" />
    <glyph glyph-name="uni1ECE" unicode="&#x1ece;" horiz-adv-x="821" 
d="M390 736l-2 64q89 10 89 70q0 26 -16.5 40.5t-46.5 14.5q-60 0 -73 -55l-47 12q28 86 120 89q48 2 79.5 -26.5t31.5 -74.5q0 -40 -25 -67t-69 -35l-1 -32h-40zM411 -10q-103 0 -183 46q-81 45 -126 126q-46 80 -46 183t46 183q45 80 126 126q81 45 183 45t183 -45
q80 -46 126 -126q45 -81 45 -183t-45 -183q-46 -81 -126 -126q-80 -46 -183 -46zM411 40q86 0 155 39t108 109q39 69 39 157t-39 157t-107 108q-69 39 -156 39t-156 -39t-108 -108t-39 -157t39 -157q39 -70 108 -109t156 -39z" />
    <glyph glyph-name="uni1ECF" unicode="&#x1ecf;" horiz-adv-x="618" 
d="M288 546l-2 64q89 10 89 70q0 26 -16.5 40.5t-46.5 14.5q-60 0 -73 -55l-47 12q28 86 120 89q48 2 79.5 -26.5t31.5 -74.5q0 -40 -25 -67t-69 -35l-1 -32h-40zM309 -8q-75 0 -133 33q-59 33 -92 92t-33 133q0 76 33 134q32 57 92 91q58 33 133 33t134 -33q58 -33 91 -91
t33 -134q0 -74 -33 -133q-34 -60 -91 -92q-59 -33 -134 -33zM309 40q60 0 108 27q47 27 74 75q26 47 26 108q0 60 -26 109q-27 47 -74 74q-48 27 -108 27t-107 -27q-48 -27 -74 -74q-27 -48 -27 -109q0 -62 27 -108q25 -48 74 -75q47 -27 107 -27z" />
    <glyph glyph-name="uni1ED0" unicode="&#x1ed0;" horiz-adv-x="821" 
d="M567 834l113 153h73l-133 -153h-53zM266 747l113 153h64l113 -153h-57l-88 119l-88 -119h-57zM411 -10q-103 0 -183 46q-81 45 -126 126q-46 80 -46 183t46 183q45 80 126 126q81 45 183 45t183 -45q80 -46 126 -126q45 -81 45 -183t-45 -183q-46 -81 -126 -126
q-80 -46 -183 -46zM411 40q86 0 155 39t108 109q39 69 39 157t-39 157t-107 108q-69 39 -156 39t-156 -39t-108 -108t-39 -157t39 -157q39 -70 108 -109t156 -39z" />
    <glyph glyph-name="uni1ED1" unicode="&#x1ed1;" horiz-adv-x="618" 
d="M465 644l113 153h73l-133 -153h-53zM164 557l113 153h64l113 -153h-57l-88 119l-88 -119h-57zM309 -8q-75 0 -133 33q-59 33 -92 92t-33 133q0 76 33 134q32 57 92 91q58 33 133 33t134 -33q58 -33 91 -91t33 -134q0 -74 -33 -133q-34 -60 -91 -92q-59 -33 -134 -33z
M309 40q60 0 108 27q47 27 74 75q26 47 26 108q0 60 -26 109q-27 47 -74 74q-48 27 -108 27t-107 -27q-48 -27 -74 -74q-27 -48 -27 -109q0 -62 27 -108q25 -48 74 -75q47 -27 107 -27z" />
    <glyph glyph-name="uni1ED2" unicode="&#x1ed2;" horiz-adv-x="821" 
d="M558 834l-133 153h73l113 -153h-53zM266 747l113 153h64l113 -153h-57l-88 119l-88 -119h-57zM411 -10q-103 0 -183 46q-81 45 -126 126q-46 80 -46 183t46 183q45 80 126 126q81 45 183 45t183 -45q80 -46 126 -126q45 -81 45 -183t-45 -183q-46 -81 -126 -126
q-80 -46 -183 -46zM411 40q86 0 155 39t108 109q39 69 39 157t-39 157t-107 108q-69 39 -156 39t-156 -39t-108 -108t-39 -157t39 -157q39 -70 108 -109t156 -39z" />
    <glyph glyph-name="uni1ED3" unicode="&#x1ed3;" horiz-adv-x="618" 
d="M456 644l-133 153h73l113 -153h-53zM164 557l113 153h64l113 -153h-57l-88 119l-88 -119h-57zM309 -8q-75 0 -133 33q-59 33 -92 92t-33 133q0 76 33 134q32 57 92 91q58 33 133 33t134 -33q58 -33 91 -91t33 -134q0 -74 -33 -133q-34 -60 -91 -92q-59 -33 -134 -33z
M309 40q60 0 108 27q47 27 74 75q26 47 26 108q0 60 -26 109q-27 47 -74 74q-48 27 -108 27t-107 -27q-48 -27 -74 -74q-27 -48 -27 -109q0 -62 27 -108q25 -48 74 -75q47 -27 107 -27z" />
    <glyph glyph-name="uni1ED4" unicode="&#x1ed4;" horiz-adv-x="821" 
d="M569 793l-2 64q89 10 89 70q0 26 -16.5 40.5t-46.5 14.5q-60 0 -73 -55l-47 12q28 86 120 89q48 2 79.5 -26.5t31.5 -74.5q0 -40 -25 -67t-69 -35l-1 -32h-40zM266 747l113 153h64l113 -153h-57l-88 119l-88 -119h-57zM411 -10q-103 0 -183 46q-81 45 -126 126
q-46 80 -46 183t46 183q45 80 126 126q81 45 183 45t183 -45q80 -46 126 -126q45 -81 45 -183t-45 -183q-46 -81 -126 -126q-80 -46 -183 -46zM411 40q86 0 155 39t108 109q39 69 39 157t-39 157t-107 108q-69 39 -156 39t-156 -39t-108 -108t-39 -157t39 -157
q39 -70 108 -109t156 -39z" />
    <glyph glyph-name="uni1ED5" unicode="&#x1ed5;" horiz-adv-x="618" 
d="M467 603l-2 64q89 10 89 70q0 26 -16.5 40.5t-46.5 14.5q-60 0 -73 -55l-47 12q28 86 120 89q48 2 79.5 -26.5t31.5 -74.5q0 -40 -25 -67t-69 -35l-1 -32h-40zM164 557l113 153h64l113 -153h-57l-88 119l-88 -119h-57zM309 -8q-75 0 -133 33q-59 33 -92 92t-33 133
q0 76 33 134q32 57 92 91q58 33 133 33t134 -33q58 -33 91 -91t33 -134q0 -74 -33 -133q-34 -60 -91 -92q-59 -33 -134 -33zM309 40q60 0 108 27q47 27 74 75q26 47 26 108q0 60 -26 109q-27 47 -74 74q-48 27 -108 27t-107 -27q-48 -27 -74 -74q-27 -48 -27 -109
q0 -62 27 -108q25 -48 74 -75q47 -27 107 -27z" />
    <glyph glyph-name="uni1ED6" unicode="&#x1ed6;" horiz-adv-x="821" 
d="M242 918q0 54 27 89q27 34 70 34q25 0 45 -11q16 -9 42 -31q23 -19 33 -25q13 -9 31 -9q54 0 54 76h45q0 -55 -27 -89t-70 -34q-24 0 -43 11q-20 11 -43 31q-19 16 -34 26q-14 8 -31 8q-54 0 -54 -76h-45zM266 747l113 153h64l113 -153h-57l-88 119l-88 -119h-57z
M411 -10q-103 0 -183 46q-81 45 -126 126q-46 80 -46 183t46 183q45 80 126 126q81 45 183 45t183 -45q80 -46 126 -126q45 -81 45 -183t-45 -183q-46 -81 -126 -126q-80 -46 -183 -46zM411 40q86 0 155 39t108 109q39 69 39 157t-39 157t-107 108q-69 39 -156 39t-156 -39
t-108 -108t-39 -157t39 -157q39 -70 108 -109t156 -39z" />
    <glyph glyph-name="uni1ED7" unicode="&#x1ed7;" horiz-adv-x="618" 
d="M140 728q0 54 27 89q27 34 70 34q25 0 45 -11q16 -9 42 -31q23 -19 33 -25q13 -9 31 -9q54 0 54 76h45q0 -55 -27 -89t-70 -34q-24 0 -43 11q-20 11 -43 31q-19 16 -34 26q-14 8 -31 8q-54 0 -54 -76h-45zM164 557l113 153h64l113 -153h-57l-88 119l-88 -119h-57zM309 -8
q-75 0 -133 33q-59 33 -92 92t-33 133q0 76 33 134q32 57 92 91q58 33 133 33t134 -33q58 -33 91 -91t33 -134q0 -74 -33 -133q-34 -60 -91 -92q-59 -33 -134 -33zM309 40q60 0 108 27q47 27 74 75q26 47 26 108q0 60 -26 109q-27 47 -74 74q-48 27 -108 27t-107 -27
q-48 -27 -74 -74q-27 -48 -27 -109q0 -62 27 -108q25 -48 74 -75q47 -27 107 -27z" />
    <glyph glyph-name="uni1ED8" unicode="&#x1ed8;" horiz-adv-x="821" 
d="M266 747l113 153h64l113 -153h-57l-88 119l-88 -119h-57zM411 -10q-103 0 -183 46q-81 45 -126 126q-46 80 -46 183t46 183q45 80 126 126q81 45 183 45t183 -45q80 -46 126 -126q45 -81 45 -183t-45 -183q-46 -81 -126 -126q-80 -46 -183 -46zM411 40q86 0 155 39
t108 109q39 69 39 157t-39 157t-107 108q-69 39 -156 39t-156 -39t-108 -108t-39 -157t39 -157q39 -70 108 -109t156 -39zM411 -134q-16 0 -28 12t-12 28q0 14 12 29q10 11 28 11q20 0 29 -11q11 -13 11 -29q0 -17 -11 -28q-12 -12 -29 -12z" />
    <glyph glyph-name="uni1ED9" unicode="&#x1ed9;" horiz-adv-x="618" 
d="M164 557l113 153h64l113 -153h-57l-88 119l-88 -119h-57zM309 -8q-75 0 -133 33q-59 33 -92 92t-33 133q0 76 33 134q32 57 92 91q58 33 133 33t134 -33q58 -33 91 -91t33 -134q0 -74 -33 -133q-34 -60 -91 -92q-59 -33 -134 -33zM309 40q60 0 108 27q47 27 74 75
q26 47 26 108q0 60 -26 109q-27 47 -74 74q-48 27 -108 27t-107 -27q-48 -27 -74 -74q-27 -48 -27 -109q0 -62 27 -108q25 -48 74 -75q47 -27 107 -27zM309 -134q-16 0 -28 12t-12 28q0 14 12 29q10 11 28 11q20 0 29 -11q11 -13 11 -29q0 -17 -11 -28q-12 -12 -29 -12z" />
    <glyph glyph-name="uni1EDA" unicode="&#x1eda;" horiz-adv-x="821" 
d="M574 930l-133 -153h-53l113 153h73zM720 528q45 -81 45 -183t-45 -183q-46 -81 -126 -126q-80 -46 -183 -46t-183 46q-81 45 -126 126q-46 80 -46 183t46 183q45 80 126 126q81 45 183 45q42 0 84 -8q37 4 60.5 33.5t18.5 67.5h46q6 -77 -58 -122q16 -7 32 -16
q80 -46 126 -126zM674 188q39 69 39 157t-39 157t-107 108q-69 39 -156 39t-156 -39t-108 -108t-39 -157t39 -157q39 -70 108 -109t156 -39q86 0 155 39t108 109z" />
    <glyph glyph-name="uni1EDB" unicode="&#x1edb;" horiz-adv-x="618" 
d="M472 740l-133 -153h-53l113 153h73zM534 384q33 -58 33 -134q0 -74 -33 -133q-34 -60 -91 -92q-59 -33 -134 -33t-133 33q-59 33 -92 92t-33 133q0 76 33 134q32 57 92 91q58 33 133 33q34 0 68 -8q37 4 61 33.5t19 68.5h46q3 -39 -14.5 -72.5t-48.5 -52.5l3 -2
q58 -33 91 -91zM491 142q26 47 26 108q0 60 -26 109q-27 47 -74 74q-48 27 -108 27t-107 -27q-48 -27 -74 -74q-27 -48 -27 -109q0 -62 27 -108q25 -48 74 -75q47 -27 107 -27t108 27q47 27 74 75z" />
    <glyph glyph-name="uni1EDC" unicode="&#x1edc;" horiz-adv-x="821" 
d="M432 777h-53l-133 153h73zM720 528q45 -81 45 -183t-45 -183q-46 -81 -126 -126q-80 -46 -183 -46t-183 46q-81 45 -126 126q-46 80 -46 183t46 183q45 80 126 126q81 45 183 45q42 0 84 -8q37 4 60.5 33.5t18.5 67.5h46q6 -77 -58 -122q16 -7 32 -16q80 -46 126 -126z
M674 188q39 69 39 157t-39 157t-107 108q-69 39 -156 39t-156 -39t-108 -108t-39 -157t39 -157q39 -70 108 -109t156 -39q86 0 155 39t108 109z" />
    <glyph glyph-name="uni1EDD" unicode="&#x1edd;" horiz-adv-x="618" 
d="M330 587h-53l-133 153h73zM534 384q33 -58 33 -134q0 -74 -33 -133q-34 -60 -91 -92q-59 -33 -134 -33t-133 33q-59 33 -92 92t-33 133q0 76 33 134q32 57 92 91q58 33 133 33q34 0 68 -8q37 4 61 33.5t19 68.5h46q3 -39 -14.5 -72.5t-48.5 -52.5l3 -2q58 -33 91 -91z
M491 142q26 47 26 108q0 60 -26 109q-27 47 -74 74q-48 27 -108 27t-107 -27q-48 -27 -74 -74q-27 -48 -27 -109q0 -62 27 -108q25 -48 74 -75q47 -27 107 -27t108 27q47 27 74 75z" />
    <glyph glyph-name="uni1EDE" unicode="&#x1ede;" horiz-adv-x="821" 
d="M414 925q-60 0 -73 -55l-47 12q28 86 120 89q48 2 79.5 -26.5t31.5 -74.5q0 -40 -25 -67t-69 -35l-1 -32h-40l-2 64q89 10 89 70q0 26 -16.5 40.5t-46.5 14.5zM720 528q45 -81 45 -183t-45 -183q-46 -81 -126 -126q-80 -46 -183 -46t-183 46q-81 45 -126 126
q-46 80 -46 183t46 183q45 80 126 126q81 45 183 45q42 0 84 -8q37 4 60.5 33.5t18.5 67.5h46q6 -77 -58 -122q16 -7 32 -16q80 -46 126 -126zM674 188q39 69 39 157t-39 157t-107 108q-69 39 -156 39t-156 -39t-108 -108t-39 -157t39 -157q39 -70 108 -109t156 -39
q86 0 155 39t108 109z" />
    <glyph glyph-name="uni1EDF" unicode="&#x1edf;" horiz-adv-x="618" 
d="M312 735q-60 0 -73 -55l-47 12q28 86 120 89q48 2 79.5 -26.5t31.5 -74.5q0 -40 -25 -67t-69 -35l-1 -32h-40l-2 64q89 10 89 70q0 26 -16.5 40.5t-46.5 14.5zM534 384q33 -58 33 -134q0 -74 -33 -133q-34 -60 -91 -92q-59 -33 -134 -33t-133 33q-59 33 -92 92t-33 133
q0 76 33 134q32 57 92 91q58 33 133 33q34 0 68 -8q37 4 61 33.5t19 68.5h46q3 -39 -14.5 -72.5t-48.5 -52.5l3 -2q58 -33 91 -91zM491 142q26 47 26 108q0 60 -26 109q-27 47 -74 74q-48 27 -108 27t-107 -27q-48 -27 -74 -74q-27 -48 -27 -109q0 -62 27 -108
q25 -48 74 -75q47 -27 107 -27t108 27q47 27 74 75z" />
    <glyph glyph-name="uni1EE0" unicode="&#x1ee0;" horiz-adv-x="821" 
d="M336 868q-54 0 -54 -76h-45q0 54 27 89q27 34 70 34q25 0 45 -11q16 -9 42 -31q23 -19 33 -25q13 -9 31 -9q54 0 54 76h45q0 -55 -27 -89t-70 -34q-24 0 -43 11q-20 11 -43 31q-19 16 -34 26q-14 8 -31 8zM720 528q45 -81 45 -183t-45 -183q-46 -81 -126 -126
q-80 -46 -183 -46t-183 46q-81 45 -126 126q-46 80 -46 183t46 183q45 80 126 126q81 45 183 45q42 0 84 -8q37 4 60.5 33.5t18.5 67.5h46q6 -77 -58 -122q16 -7 32 -16q80 -46 126 -126zM674 188q39 69 39 157t-39 157t-107 108q-69 39 -156 39t-156 -39t-108 -108
t-39 -157t39 -157q39 -70 108 -109t156 -39q86 0 155 39t108 109z" />
    <glyph glyph-name="uni1EE1" unicode="&#x1ee1;" horiz-adv-x="618" 
d="M234 678q-54 0 -54 -76h-45q0 55 27 89t70 34q25 0 45 -11q16 -9 42 -31q23 -19 33 -25q13 -9 31 -9q54 0 54 76h45q0 -55 -27 -89t-70 -34q-24 0 -43 11q-20 11 -43 31q-19 16 -34 26q-14 8 -31 8zM534 384q33 -58 33 -134q0 -74 -33 -133q-34 -60 -91 -92
q-59 -33 -134 -33t-133 33q-59 33 -92 92t-33 133q0 76 33 134q32 57 92 91q58 33 133 33q34 0 68 -8q37 4 61 33.5t19 68.5h46q3 -39 -14.5 -72.5t-48.5 -52.5l3 -2q58 -33 91 -91zM491 142q26 47 26 108q0 60 -26 109q-27 47 -74 74q-48 27 -108 27t-107 -27
q-48 -27 -74 -74q-27 -48 -27 -109q0 -62 27 -108q25 -48 74 -75q47 -27 107 -27t108 27q47 27 74 75z" />
    <glyph glyph-name="uni1EE2" unicode="&#x1ee2;" horiz-adv-x="821" 
d="M720 528q45 -81 45 -183t-45 -183q-46 -81 -126 -126q-80 -46 -183 -46t-183 46q-81 45 -126 126q-46 80 -46 183t46 183q45 80 126 126q81 45 183 45q42 0 84 -8q37 4 60.5 33.5t18.5 67.5h46q6 -77 -58 -122q16 -7 32 -16q80 -46 126 -126zM674 188q39 69 39 157
t-39 157t-107 108q-69 39 -156 39t-156 -39t-108 -108t-39 -157t39 -157q39 -70 108 -109t156 -39q86 0 155 39t108 109zM411 -54q20 0 29 -11q11 -13 11 -29q0 -17 -11 -28q-12 -12 -29 -12q-16 0 -28 12t-12 28q0 14 12 29q10 11 28 11z" />
    <glyph glyph-name="uni1EE3" unicode="&#x1ee3;" horiz-adv-x="618" 
d="M534 384q33 -58 33 -134q0 -74 -33 -133q-34 -60 -91 -92q-59 -33 -134 -33t-133 33q-59 33 -92 92t-33 133q0 76 33 134q32 57 92 91q58 33 133 33q34 0 68 -8q37 4 61 33.5t19 68.5h46q3 -39 -14.5 -72.5t-48.5 -52.5l3 -2q58 -33 91 -91zM491 142q26 47 26 108
q0 60 -26 109q-27 47 -74 74q-48 27 -108 27t-107 -27q-48 -27 -74 -74q-27 -48 -27 -109q0 -62 27 -108q25 -48 74 -75q47 -27 107 -27t108 27q47 27 74 75zM309 -54q20 0 29 -11q11 -13 11 -29q0 -17 -11 -28q-12 -12 -29 -12q-16 0 -28 12t-12 28q0 14 12 29q10 11 28 11
z" />
    <glyph glyph-name="uni1EE4" unicode="&#x1ee4;" horiz-adv-x="711" 
d="M355 -10q-79 0 -138 34q-61 35 -92 97q-33 61 -33 145v424h52v-420q0 -108 57 -169t154 -61q98 0 155 61t57 169v420h52v-424q0 -84 -33 -145q-32 -62 -92 -97q-59 -34 -139 -34zM356 -134q-16 0 -28 12t-12 28q0 14 12 29q10 11 28 11q20 0 29 -11q11 -13 11 -29
q0 -17 -11 -28q-12 -12 -29 -12z" />
    <glyph glyph-name="uni1EE5" unicode="&#x1ee5;" horiz-adv-x="570" 
d="M285 -8q-91 0 -147 57q-56 56 -56 151v300h50v-296q0 -77 41 -121q40 -43 112 -43t112 43q41 44 41 121v296h50v-300q0 -96 -55 -151q-56 -57 -148 -57zM285 -134q-16 0 -28 12t-12 28q0 14 12 29q10 11 28 11q20 0 29 -11q11 -13 11 -29q0 -17 -11 -28q-12 -12 -29 -12z
" />
    <glyph glyph-name="uni1EE6" unicode="&#x1ee6;" horiz-adv-x="711" 
d="M335 736l-2 64q89 10 89 70q0 26 -16.5 40.5t-46.5 14.5q-60 0 -73 -55l-47 12q28 86 120 89q48 2 79.5 -26.5t31.5 -74.5q0 -40 -25 -67t-69 -35l-1 -32h-40zM355 -10q-79 0 -138 34q-61 35 -92 97q-33 61 -33 145v424h52v-420q0 -108 57 -169t154 -61q98 0 155 61
t57 169v420h52v-424q0 -84 -33 -145q-32 -62 -92 -97q-59 -34 -139 -34z" />
    <glyph glyph-name="uni1EE7" unicode="&#x1ee7;" horiz-adv-x="570" 
d="M264 546l-2 64q89 10 89 70q0 26 -16.5 40.5t-46.5 14.5q-60 0 -73 -55l-47 12q28 86 120 89q48 2 79.5 -26.5t31.5 -74.5q0 -40 -25 -67t-69 -35l-1 -32h-40zM285 -8q-91 0 -147 57q-56 56 -56 151v300h50v-296q0 -77 41 -121q40 -43 112 -43t112 43q41 44 41 121v296
h50v-300q0 -96 -55 -151q-56 -57 -148 -57z" />
    <glyph glyph-name="uni1EE8" unicode="&#x1ee8;" horiz-adv-x="711" 
d="M519 930l-133 -153h-53l113 153h73zM705 792q4 -46 -21 -83.5t-65 -53.5v-389q0 -84 -33 -145q-32 -62 -92 -97q-59 -34 -139 -34q-79 0 -138 34q-61 35 -92 97q-33 61 -33 145v424h52v-420q0 -108 57 -169t154 -61q98 0 155 61t57 169v420h3q40 0 67 30t22 72h46z" />
    <glyph glyph-name="uni1EE9" unicode="&#x1ee9;" horiz-adv-x="570" 
d="M448 740l-133 -153h-53l113 153h73zM579 602q4 -47 -22.5 -85.5t-68.5 -53.5v-263q0 -96 -55 -151q-56 -57 -148 -57q-91 0 -147 57q-56 56 -56 151v300h50v-296q0 -77 41 -121q40 -43 112 -43t112 43q41 44 41 121v296h6q40 0 67 30t22 72h46z" />
    <glyph glyph-name="uni1EEA" unicode="&#x1eea;" horiz-adv-x="711" 
d="M377 777h-53l-133 153h73zM705 792q4 -46 -21 -83.5t-65 -53.5v-389q0 -84 -33 -145q-32 -62 -92 -97q-59 -34 -139 -34q-79 0 -138 34q-61 35 -92 97q-33 61 -33 145v424h52v-420q0 -108 57 -169t154 -61q98 0 155 61t57 169v420h3q40 0 67 30t22 72h46z" />
    <glyph glyph-name="uni1EEB" unicode="&#x1eeb;" horiz-adv-x="570" 
d="M306 587h-53l-133 153h73zM579 602q4 -47 -22.5 -85.5t-68.5 -53.5v-263q0 -96 -55 -151q-56 -57 -148 -57q-91 0 -147 57q-56 56 -56 151v300h50v-296q0 -77 41 -121q40 -43 112 -43t112 43q41 44 41 121v296h6q40 0 67 30t22 72h46z" />
    <glyph glyph-name="uni1EEC" unicode="&#x1eec;" horiz-adv-x="711" 
d="M359 925q-60 0 -73 -55l-47 12q28 86 120 89q48 2 79.5 -26.5t31.5 -74.5q0 -40 -25 -67t-69 -35l-1 -32h-40l-2 64q89 10 89 70q0 26 -16.5 40.5t-46.5 14.5zM705 792q4 -46 -21 -83.5t-65 -53.5v-389q0 -84 -33 -145q-32 -62 -92 -97q-59 -34 -139 -34q-79 0 -138 34
q-61 35 -92 97q-33 61 -33 145v424h52v-420q0 -108 57 -169t154 -61q98 0 155 61t57 169v420h3q40 0 67 30t22 72h46z" />
    <glyph glyph-name="uni1EED" unicode="&#x1eed;" horiz-adv-x="570" 
d="M288 735q-60 0 -73 -55l-47 12q28 86 120 89q48 2 79.5 -26.5t31.5 -74.5q0 -40 -25 -67t-69 -35l-1 -32h-40l-2 64q89 10 89 70q0 26 -16.5 40.5t-46.5 14.5zM579 602q4 -47 -22.5 -85.5t-68.5 -53.5v-263q0 -96 -55 -151q-56 -57 -148 -57q-91 0 -147 57
q-56 56 -56 151v300h50v-296q0 -77 41 -121q40 -43 112 -43t112 43q41 44 41 121v296h6q40 0 67 30t22 72h46z" />
    <glyph glyph-name="uni1EEE" unicode="&#x1eee;" horiz-adv-x="711" 
d="M281 868q-54 0 -54 -76h-45q0 54 27 89q27 34 70 34q25 0 45 -11q16 -9 42 -31q23 -19 33 -25q13 -9 31 -9q54 0 54 76h45q0 -55 -27 -89t-70 -34q-24 0 -43 11q-20 11 -43 31q-19 16 -34 26q-14 8 -31 8zM705 792q4 -46 -21 -83.5t-65 -53.5v-389q0 -84 -33 -145
q-32 -62 -92 -97q-59 -34 -139 -34q-79 0 -138 34q-61 35 -92 97q-33 61 -33 145v424h52v-420q0 -108 57 -169t154 -61q98 0 155 61t57 169v420h3q40 0 67 30t22 72h46z" />
    <glyph glyph-name="uni1EEF" unicode="&#x1eef;" horiz-adv-x="570" 
d="M210 678q-54 0 -54 -76h-45q0 55 27 89t70 34q25 0 45 -11q16 -9 42 -31q23 -19 33 -25q13 -9 31 -9q54 0 54 76h45q0 -55 -27 -89t-70 -34q-24 0 -43 11q-20 11 -43 31q-19 16 -34 26q-14 8 -31 8zM579 602q4 -47 -22.5 -85.5t-68.5 -53.5v-263q0 -96 -55 -151
q-56 -57 -148 -57q-91 0 -147 57q-56 56 -56 151v300h50v-296q0 -77 41 -121q40 -43 112 -43t112 43q41 44 41 121v296h6q40 0 67 30t22 72h46z" />
    <glyph glyph-name="uni1EF0" unicode="&#x1ef0;" horiz-adv-x="711" 
d="M705 792q4 -46 -21 -83.5t-65 -53.5v-389q0 -84 -33 -145q-32 -62 -92 -97q-59 -34 -139 -34q-79 0 -138 34q-61 35 -92 97q-33 61 -33 145v424h52v-420q0 -108 57 -169t154 -61q98 0 155 61t57 169v420h3q40 0 67 30t22 72h46zM356 -54q20 0 29 -11q11 -13 11 -29
q0 -17 -11 -28q-12 -12 -29 -12q-16 0 -28 12t-12 28q0 14 12 29q10 11 28 11z" />
    <glyph glyph-name="uni1EF1" unicode="&#x1ef1;" horiz-adv-x="570" 
d="M579 602q4 -47 -22.5 -85.5t-68.5 -53.5v-263q0 -96 -55 -151q-56 -57 -148 -57q-91 0 -147 57q-56 56 -56 151v300h50v-296q0 -77 41 -121q40 -43 112 -43t112 43q41 44 41 121v296h6q40 0 67 30t22 72h46zM285 -54q20 0 29 -11q11 -13 11 -29q0 -17 -11 -28
q-12 -12 -29 -12q-16 0 -28 12t-12 28q0 14 12 29q10 11 28 11z" />
    <glyph glyph-name="Ygrave" unicode="&#x1ef2;" horiz-adv-x="586" 
d="M261 777l-133 153h73l113 -153h-53zM267 0v288l-257 402h61l222 -351l222 351h61l-257 -402v-288h-52z" />
    <glyph glyph-name="ygrave" unicode="&#x1ef3;" horiz-adv-x="490" 
d="M213 587l-133 153h73l113 -153h-53zM62 -214q-21 0 -33 4l9 49q11 -3 25 -3q42 0 68 13q27 14 49 44q23 35 44 89l6 16l-220 502h54l192 -445l171 445h53l-209 -537q-37 -98 -85 -138q-48 -39 -124 -39z" />
    <glyph glyph-name="uni1EF4" unicode="&#x1ef4;" horiz-adv-x="586" 
d="M267 0v288l-257 402h61l222 -351l222 351h61l-257 -402v-288h-52zM293 -134q-16 0 -28 12t-12 28q0 14 12 29q10 11 28 11q20 0 29 -11q11 -13 11 -29q0 -17 -11 -28q-12 -12 -29 -12z" />
    <glyph glyph-name="uni1EF5" unicode="&#x1ef5;" horiz-adv-x="490" 
d="M62 -214q-21 0 -33 4l9 49q11 -3 25 -3q42 0 68 13q27 14 49 44q23 35 44 89l6 16l-220 502h54l192 -445l171 445h53l-209 -537q-37 -98 -85 -138q-48 -39 -124 -39zM351 -134q-16 0 -28 12t-12 28q0 14 12 29q10 11 28 11q20 0 29 -11q11 -13 11 -29q0 -17 -11 -28
q-12 -12 -29 -12z" />
    <glyph glyph-name="uni1EF6" unicode="&#x1ef6;" horiz-adv-x="586" 
d="M272 736l-2 64q89 10 89 70q0 26 -16.5 40.5t-46.5 14.5q-60 0 -73 -55l-47 12q28 86 120 89q48 2 79.5 -26.5t31.5 -74.5q0 -40 -25 -67t-69 -35l-1 -32h-40zM267 0v288l-257 402h61l222 -351l222 351h61l-257 -402v-288h-52z" />
    <glyph glyph-name="uni1EF7" unicode="&#x1ef7;" horiz-adv-x="490" 
d="M224 546l-2 64q89 10 89 70q0 26 -16.5 40.5t-46.5 14.5q-60 0 -73 -55l-47 12q28 86 120 89q48 2 79.5 -26.5t31.5 -74.5q0 -40 -25 -67t-69 -35l-1 -32h-40zM62 -214q-21 0 -33 4l9 49q11 -3 25 -3q42 0 68 13q27 14 49 44q23 35 44 89l6 16l-220 502h54l192 -445
l171 445h53l-209 -537q-37 -98 -85 -138q-48 -39 -124 -39z" />
    <glyph glyph-name="uni1EF8" unicode="&#x1ef8;" horiz-adv-x="586" 
d="M119 792q0 54 27 89q27 34 70 34q25 0 45 -11q16 -9 42 -31q23 -19 33 -25q14 -9 31 -9q54 0 54 76h45q0 -55 -27 -89t-70 -34q-24 0 -43 11q-20 11 -43 31q-19 16 -34 26q-14 8 -31 8q-54 0 -54 -76h-45zM267 0v288l-257 402h61l222 -351l222 351h61l-257 -402v-288h-52
z" />
    <glyph glyph-name="uni1EF9" unicode="&#x1ef9;" horiz-adv-x="490" 
d="M71 602q0 55 27 89t70 34q25 0 45 -11q16 -9 42 -31q23 -19 33 -25q14 -9 31 -9q54 0 54 76h45q0 -55 -27 -89t-70 -34q-24 0 -43 11q-20 11 -43 31q-19 16 -34 26q-14 8 -31 8q-54 0 -54 -76h-45zM62 -214q-21 0 -33 4l9 49q11 -3 25 -3q42 0 68 13q27 14 49 44
q23 35 44 89l6 16l-220 502h54l192 -445l171 445h53l-209 -537q-37 -98 -85 -138q-48 -39 -124 -39z" />
    <glyph glyph-name="endash" unicode="&#x2013;" horiz-adv-x="500" 
d="M25 272v40h450v-40h-450z" />
    <glyph glyph-name="emdash" unicode="&#x2014;" horiz-adv-x="1000" 
d="M25 272v40h950v-40h-950z" />
    <glyph glyph-name="quoteleft" unicode="&#x2018;" horiz-adv-x="215" 
d="M40 440l100 250h35l-76 -250h-59z" />
    <glyph glyph-name="quoteright" unicode="&#x2019;" horiz-adv-x="215" 
d="M40 440l76 250h59l-100 -250h-35z" />
    <glyph glyph-name="quotesinglbase" unicode="&#x201a;" horiz-adv-x="186" 
d="M6 -150l76 250h59l-100 -250h-35z" />
    <glyph glyph-name="quotedblleft" unicode="&#x201c;" horiz-adv-x="355" 
d="M40 440l100 250h35l-76 -250h-59zM180 440l100 250h35l-76 -250h-59z" />
    <glyph glyph-name="quotedblright" unicode="&#x201d;" horiz-adv-x="355" 
d="M40 440l76 250h59l-100 -250h-35zM180 440l76 250h59l-100 -250h-35z" />
    <glyph glyph-name="quotedblbase" unicode="&#x201e;" horiz-adv-x="326" 
d="M6 -150l76 250h59l-100 -250h-35zM146 -150l76 250h59l-100 -250h-35z" />
    <glyph glyph-name="dagger" unicode="&#x2020;" horiz-adv-x="516" 
d="M233 -116v565h-179v45h179v197h51v-197h178v-45h-178v-565h-51z" />
    <glyph glyph-name="daggerdbl" unicode="&#x2021;" horiz-adv-x="516" 
d="M233 -116v261h-179v44h179v261h-179v44h179v197h51v-197h178v-44h-178v-261h178v-44h-178v-261h-51z" />
    <glyph glyph-name="bullet" unicode="&#x2022;" horiz-adv-x="440" 
d="M220 180q-62 0 -101 39t-39 101t39 101t101 39t101 -39t39 -101t-39 -101t-101 -39z" />
    <glyph glyph-name="ellipsis" unicode="&#x2026;" horiz-adv-x="610" 
d="M105 -10q-19 0 -32 13t-13 32q0 20 13 33q13 12 32 12t33 -12q12 -14 12 -33t-12 -32q-13 -13 -33 -13zM305 -10q-19 0 -32 13t-13 32q0 20 13 33q13 12 32 12t33 -12q12 -14 12 -33t-12 -32q-13 -13 -33 -13zM505 -10q-19 0 -32 13t-13 32q0 20 13 33q13 12 32 12
t33 -12q12 -14 12 -33t-12 -32q-13 -13 -33 -13z" />
    <glyph glyph-name="perthousand" unicode="&#x2030;" horiz-adv-x="1284" 
d="M243 -23l-40 23l438 713l40 -23zM230 360q-46 0 -86 23q-39 22 -61 61q-23 40 -23 86q0 45 23 85t61 62q40 23 86 23q44 0 85 -23q39 -23 62 -62q23 -40 23 -85q0 -46 -23 -86q-22 -38 -62 -61q-41 -23 -85 -23zM230 400q32 0 60 18q28 16 45 47q16 29 16 65q0 35 -16 64
q-17 30 -45 48t-60 18q-33 0 -60 -18q-26 -17 -44 -47q-17 -31 -17 -65q0 -36 16 -65q17 -32 44 -47q28 -18 61 -18zM654 -10q-44 0 -84 23q-40 22 -63 62t-23 85q0 46 23 86t63 62q38 22 84 22q48 0 86 -22q39 -23 62 -62q22 -38 22 -86q0 -47 -22 -85q-23 -39 -62 -62
q-40 -23 -86 -23zM1054 -10q-44 0 -84 23q-40 22 -63 62t-23 85q0 46 23 86t63 62q38 22 84 22q48 0 86 -22q39 -23 62 -62q22 -38 22 -86q0 -47 -22 -85q-23 -39 -62 -62q-40 -23 -86 -23zM654 30q32 0 61 18q28 19 44 48q16 28 16 64t-16 65q-17 31 -44 48q-29 17 -61 17
q-31 0 -60 -17q-27 -17 -44 -48t-17 -65q0 -33 17 -64t44 -48q28 -18 60 -18zM1054 30q32 0 61 18q28 19 44 48q16 28 16 64t-16 65q-17 31 -44 48q-29 17 -61 17q-31 0 -60 -17q-27 -17 -44 -48t-17 -65q0 -33 17 -64t44 -48q28 -18 60 -18z" />
    <glyph glyph-name="guilsinglleft" unicode="&#x2039;" horiz-adv-x="352" 
d="M220 95l-160 197l160 197h62l-160 -197l160 -197h-62z" />
    <glyph glyph-name="guilsinglright" unicode="&#x203a;" horiz-adv-x="352" 
d="M70 95l160 197l-160 197h62l160 -197l-160 -197h-62z" />
    <glyph glyph-name="fraction" unicode="&#x2044;" horiz-adv-x="218" 
d="M-90 -23l-40 23l438 713l40 -23z" />
    <glyph glyph-name="uni2070" unicode="&#x2070;" horiz-adv-x="353" 
d="M176 443q-64 0 -97 42q-33 41 -33 120v67q0 79 33 121q33 41 97 41q63 0 98 -41q33 -42 33 -121v-67q0 -79 -33 -120q-34 -42 -98 -42zM176 487q42 0 64 30q21 30 21 89v65q0 59 -21 90q-22 30 -64 30q-41 0 -62 -30q-22 -31 -22 -90v-65q0 -59 22 -88q21 -31 62 -31z
" />
    <glyph glyph-name="uni2074" unicode="&#x2074;" horiz-adv-x="353" 
d="M218 449v107h-192v49l186 224h51v-230h64v-43h-64v-107h-45zM72 599h146v176z" />
    <glyph glyph-name="uni2075" unicode="&#x2075;" horiz-adv-x="353" 
d="M164 443q-39 0 -70 16q-34 18 -49 44l39 23q11 -18 33 -29q20 -10 47 -10q40 0 66 23q24 22 24 60q0 34 -24 57q-23 22 -63 22q-39 0 -73 -21l-27 14l17 187h200v-43h-158l-9 -103q24 9 50 9q59 0 96 -34t37 -87q0 -55 -38 -91q-37 -37 -98 -37z" />
    <glyph glyph-name="uni2076" unicode="&#x2076;" horiz-adv-x="353" 
d="M176 443q-36 0 -67 18q-30 16 -49 47q-18 30 -18 66q0 38 17 74t62 91l73 90h54l-113 -139q15 7 41 7q38 0 70 -17q29 -15 50 -46q18 -28 18 -63t-18 -64q-21 -32 -50 -47q-32 -17 -70 -17zM177 486q38 0 64 25q26 26 26 60q0 35 -26 59q-27 24 -64 24q-36 0 -62 -23
q-26 -24 -26 -58q0 -35 26 -61t62 -26z" />
    <glyph glyph-name="uni2077" unicode="&#x2077;" horiz-adv-x="353" 
d="M67 449l184 336h-209v44h263v-40l-187 -340h-51z" />
    <glyph glyph-name="uni2078" unicode="&#x2078;" horiz-adv-x="353" 
d="M177 443q-61 0 -97 30q-37 30 -37 80q0 32 17 58q17 25 46 38q-24 14 -35 35q-13 20 -13 49q0 45 32 74q32 27 87 27q54 0 87 -27q32 -29 32 -74q0 -57 -49 -85q31 -14 47 -37q16 -25 16 -58q0 -50 -36 -80t-97 -30zM177 668q33 0 53 17t20 45t-20 45q-19 16 -53 16
t-53 -16q-20 -17 -20 -45t20 -45t53 -17zM177 486q38 0 63 20q24 20 24 51t-24 50q-23 19 -63 19q-41 0 -63 -18q-24 -20 -24 -51t24 -51q23 -20 63 -20z" />
    <glyph glyph-name="uni2079" unicode="&#x2079;" horiz-adv-x="353" 
d="M105 449l113 139q-15 -7 -41 -7q-37 0 -69 17q-31 16 -50 46q-19 28 -19 63q0 36 19 65q19 30 50 46q32 17 69 17q35 0 67 -17q31 -18 49 -48t18 -66q0 -40 -16 -73q-17 -36 -63 -92l-73 -90h-54zM176 624q38 0 63 24q25 22 25 57q0 37 -25 62t-63 25t-63 -25
q-27 -25 -27 -60t27 -59q25 -24 63 -24z" />
    <glyph glyph-name="uni207A" unicode="&#x207a;" horiz-adv-x="359" 
d="M159 524v96h-101v38h101v97h40v-97h102v-38h-102v-96h-40z" />
    <glyph glyph-name="uni207B" unicode="&#x207b;" horiz-adv-x="359" 
d="M58 620v38h243v-38h-243z" />
    <glyph glyph-name="uni207C" unicode="&#x207c;" horiz-adv-x="359" 
d="M58 664v37h243v-37h-243zM58 577v36h243v-36h-243z" />
    <glyph glyph-name="uni207D" unicode="&#x207d;" horiz-adv-x="263" 
d="M179 354q-107 109 -107 267q0 160 107 267h52q-114 -106 -114 -267q0 -159 114 -267h-52z" />
    <glyph glyph-name="uni207E" unicode="&#x207e;" horiz-adv-x="263" 
d="M32 354q114 106 114 267q0 159 -114 267h52q107 -109 107 -267q0 -160 -107 -267h-52z" />
    <glyph glyph-name="uni2080" unicode="&#x2080;" horiz-adv-x="353" 
d="M176 -145q-64 0 -97 41q-33 42 -33 121v67q0 79 33 121q33 41 97 41q63 0 98 -41q33 -42 33 -121v-67q0 -79 -33 -121q-35 -41 -98 -41zM176 -101q42 0 64 30q21 30 21 89v65q0 59 -21 90q-22 30 -64 30q-41 0 -62 -30q-22 -31 -22 -90v-65q0 -58 22 -89q21 -30 62 -30z
" />
    <glyph glyph-name="uni2081" unicode="&#x2081;" horiz-adv-x="354" 
d="M55 -139v43h103v280l-103 -36v45l148 53v-342h96v-43h-244z" />
    <glyph glyph-name="uni2082" unicode="&#x2082;" horiz-adv-x="352" 
d="M51 -139v17q0 44 27 74q28 31 78 65q49 33 70 57q23 26 23 59t-21 52q-23 18 -59 18q-34 0 -53 -16q-20 -17 -29 -50l-45 11q14 48 46 73q32 26 81 26q57 0 91 -31q35 -32 35 -83q0 -34 -15 -61q-17 -29 -38 -45q-21 -17 -58 -43q-34 -23 -55 -42q-18 -15 -26 -38h198
v-43h-250z" />
    <glyph glyph-name="uni2083" unicode="&#x2083;" horiz-adv-x="353" 
d="M163 -145q-45 0 -79 20q-34 21 -46 57l41 17q9 -24 31 -37t53 -13q41 0 67 20q24 20 24 56t-27 58q-28 22 -73 22q-15 0 -27 -2v32l93 112h-165v44h228v-33l-93 -112q50 -8 80 -41t30 -80q0 -54 -37 -87t-100 -33z" />
    <glyph glyph-name="uni2084" unicode="&#x2084;" horiz-adv-x="353" 
d="M218 -139v107h-192v49l186 224h51v-230h64v-43h-64v-107h-45zM72 11h146v176z" />
    <glyph glyph-name="uni2085" unicode="&#x2085;" horiz-adv-x="353" 
d="M164 -145q-39 0 -70 16q-34 18 -49 44l39 23q11 -18 33 -29q20 -10 47 -10q40 0 66 23q24 22 24 60q0 34 -24 57q-23 22 -63 22q-39 0 -73 -21l-27 14l17 187h200v-43h-158l-9 -103q24 9 50 9q59 0 96 -34t37 -87q0 -54 -38 -92q-38 -36 -98 -36z" />
    <glyph glyph-name="uni2086" unicode="&#x2086;" horiz-adv-x="353" 
d="M176 -145q-35 0 -67 17q-31 18 -49 48t-18 66q0 38 17 74t62 91l73 90h54l-113 -139q15 7 41 7q38 0 70 -17q29 -15 50 -46q18 -28 18 -63t-18 -65q-21 -31 -50 -46q-32 -17 -70 -17zM177 -102q38 0 64 25q26 26 26 60q0 35 -26 59q-27 24 -64 24q-36 0 -62 -23
q-26 -24 -26 -58q0 -36 26 -62q25 -25 62 -25z" />
    <glyph glyph-name="uni2087" unicode="&#x2087;" horiz-adv-x="353" 
d="M67 -139l184 336h-209v44h263v-40l-187 -340h-51z" />
    <glyph glyph-name="uni2088" unicode="&#x2088;" horiz-adv-x="353" 
d="M177 -145q-61 0 -97 30q-37 30 -37 80q0 32 17 58q17 25 46 38q-24 14 -35 35q-13 20 -13 49q0 45 32 74q32 27 87 27q54 0 87 -27q32 -29 32 -74q0 -57 -49 -85q31 -14 47 -37q16 -25 16 -58q0 -50 -36 -80t-97 -30zM177 80q33 0 53 17t20 45t-20 45q-19 16 -53 16
t-53 -16q-20 -17 -20 -45t20 -45t53 -17zM177 -102q40 0 63 19q24 19 24 52q0 31 -24 50q-23 19 -63 19q-41 0 -63 -18q-24 -20 -24 -51q0 -33 24 -52q22 -19 63 -19z" />
    <glyph glyph-name="uni2089" unicode="&#x2089;" horiz-adv-x="353" 
d="M105 -139l113 139q-15 -7 -41 -7q-37 0 -69 17q-31 16 -50 46q-19 28 -19 63q0 36 19 65q19 30 50 46q32 17 69 17q35 0 67 -17q31 -18 49 -48t18 -66q0 -40 -16 -73q-17 -36 -63 -92l-73 -90h-54zM176 36q38 0 63 24q25 22 25 57q0 37 -25 62t-63 25t-63 -25
q-27 -25 -27 -60t27 -59q25 -24 63 -24z" />
    <glyph glyph-name="uni208A" unicode="&#x208a;" horiz-adv-x="359" 
d="M159 -66v96h-101v38h101v97h40v-97h102v-38h-102v-96h-40z" />
    <glyph glyph-name="uni208B" unicode="&#x208b;" horiz-adv-x="359" 
d="M58 30v38h243v-38h-243z" />
    <glyph glyph-name="uni208C" unicode="&#x208c;" horiz-adv-x="359" 
d="M58 74v37h243v-37h-243zM58 -13v36h243v-36h-243z" />
    <glyph glyph-name="uni208D" unicode="&#x208d;" horiz-adv-x="263" 
d="M179 -236q-107 109 -107 267q0 160 107 267h52q-114 -106 -114 -267q0 -159 114 -267h-52z" />
    <glyph glyph-name="uni208E" unicode="&#x208e;" horiz-adv-x="263" 
d="M32 -236q114 108 114 267q0 161 -114 267h52q107 -107 107 -267q0 -158 -107 -267h-52z" />
    <glyph glyph-name="Euro" unicode="&#x20ac;" horiz-adv-x="540" 
d="M375 -11q-125 0 -207 70q-84 70 -106 193h-41v50h35q-2 38 -2 43q0 7 2 47h-35v50h42q23 122 104 191q82 68 204 68q95 0 163 -38l-22 -45q-37 18 -66 25q-37 8 -75 8q-100 0 -165 -55q-68 -56 -90 -154h287l-10 -50h-285q-2 -40 -2 -47q0 -5 2 -43h275l-10 -50h-257
q22 -100 90 -156q67 -57 169 -57q71 0 140 32l19 -46q-44 -21 -78 -28q-40 -8 -81 -8z" />
    <glyph glyph-name="uni20B9" unicode="&#x20b9;" horiz-adv-x="540" 
d="M333 0l-208 297l20 48h1q80 0 126 36q46 35 50 99h-269v50h266q-10 53 -55 82q-44 28 -120 28h-91v50h435v-50h-190q59 -37 73 -110h117v-50h-114q-5 -76 -54 -122q-50 -49 -134 -59l210 -299h-63z" />
    <glyph glyph-name="uni20BA" unicode="&#x20ba;" horiz-adv-x="540" 
d="M100 0v280l-77 -40v53l77 40v98l-77 -40v54l77 40v205h52v-179l202 104v-53l-202 -104v-98l202 104v-54l-202 -104v-256h27q95 0 168 55t101 178l48 -13q-32 -139 -116 -204q-86 -66 -201 -66h-79z" />
    <glyph glyph-name="uni2113" unicode="&#x2113;" horiz-adv-x="600" 
d="M353 -14q-62 0 -100 44q-37 44 -54 138q-40 -19 -64 -28l-18 46q40 15 74 34q-7 60 -7 159q0 203 37 295q36 92 117 92q62 0 93 -49q32 -50 32 -134q0 -118 -56 -219q-55 -101 -161 -169q14 -84 39 -121q26 -38 68 -38q55 0 83 82l50 -16q-41 -116 -133 -116zM240 251
q85 62 128 147t43 185q0 63 -18 100q-19 37 -55 37q-52 0 -77 -82q-25 -81 -25 -259q0 -83 4 -128z" />
    <glyph glyph-name="uni2117" unicode="&#x2117;" horiz-adv-x="822" 
d="M411 -10q-104 0 -183 46q-81 45 -126 126q-46 79 -46 183t46 184q45 79 126 126q80 45 183 45t184 -45q79 -47 126 -126q45 -81 45 -184t-45 -183q-47 -81 -126 -126q-80 -46 -184 -46zM411 35q90 0 160 40q70 39 111 110q39 70 39 160t-39 160q-40 71 -111 111
q-70 39 -160 39q-89 0 -160 -39q-71 -41 -110 -111q-40 -70 -40 -160t40 -160q39 -71 110 -110q70 -40 160 -40zM286 138v414h152q66 0 106 -35q39 -35 39 -95t-39 -95q-40 -35 -106 -35h-102v-154h-50zM336 339h101q46 0 71 22t25 61q0 40 -25 61q-26 21 -71 21h-101v-165z
" />
    <glyph glyph-name="trademark" unicode="&#x2122;" horiz-adv-x="969" 
d="M189 310v338h-153v42h351v-42h-153v-338h-45zM450 310v380h65l151 -317l151 317h65v-380h-45v318l-152 -318h-38l-152 318v-318h-45z" />
    <glyph glyph-name="uni2126" unicode="&#x2126;" horiz-adv-x="826" 
d="M67 0v50h171q-160 142 -160 318q0 102 43 176q42 75 118 115t174 40t174 -40q75 -40 119 -115q42 -75 42 -176q0 -176 -160 -318h171v-50h-254v50q95 72 143 146t48 172q0 87 -36 151q-38 63 -101 97q-65 33 -146 33t-146 -33q-64 -34 -100 -97q-37 -64 -37 -151
q0 -98 48 -172t143 -146v-50h-254z" />
    <glyph glyph-name="estimated" unicode="&#x212e;" horiz-adv-x="876" 
d="M438 -12q-116 0 -204 46q-89 45 -137 126q-49 79 -49 182q0 100 48 183q47 82 135 128q89 47 207 47q120 0 208 -49t135 -134q46 -83 46 -184h-621q-6 0 -10 -4t-4 -9v-169q0 -17 4 -26q3 -10 12 -19q94 -93 230 -93q75 0 138 31q64 30 105 80h70q-41 -56 -119 -96
q-79 -40 -194 -40zM206 355h463q5 0 9 4q4 3 4 8v170q0 15 -3 24q-3 10 -12 17q-97 95 -229 95q-137 0 -230 -95q-9 -7 -12 -17q-4 -8 -4 -24v-170q0 -5 4 -8q4 -4 10 -4z" />
    <glyph glyph-name="partialdiff" unicode="&#x2202;" horiz-adv-x="560" 
d="M269 -8q-65 0 -114 28t-76 79q-28 50 -28 119q0 72 32 134q31 60 89 96q58 35 130 35q112 0 165 -92q-10 139 -66 205q-56 65 -147 65q-30 0 -60 -10q-34 -11 -54 -25l-25 36q28 18 65 28q39 11 73 11q261 0 261 -389q0 -160 -65 -240q-66 -80 -180 -80zM269 40
q63 0 106 31q45 31 67 79t22 104q0 77 -44 130q-44 51 -117 51q-97 0 -150 -59q-52 -59 -52 -158q0 -81 44 -130q43 -48 124 -48z" />
    <glyph glyph-name="uni2206" unicode="&#x2206;" horiz-adv-x="641" 
d="M10 0l278 690h64l279 -690h-621zM85 50h471l-235 593z" />
    <glyph glyph-name="product" unicode="&#x220f;" horiz-adv-x="732" 
d="M100 -210v900h532v-900h-52v850h-428v-850h-52z" />
    <glyph glyph-name="summation" unicode="&#x2211;" horiz-adv-x="451" 
d="M34 -210v46l215 400l-215 408v46h383v-46h-327l215 -408l-214 -400h326v-46h-383z" />
    <glyph glyph-name="minus" unicode="&#x2212;" horiz-adv-x="540" 
d="M65 287v41h411v-41h-411z" />
    <glyph glyph-name="uni2215" unicode="&#x2215;" horiz-adv-x="408" 
d="M29 -86l288 809h42l-288 -809h-42z" />
    <glyph glyph-name="uni2219" unicode="&#x2219;" horiz-adv-x="540" 
d="M270 270q-19 0 -32 13t-13 32q0 20 13 33q14 12 32 12q20 0 33 -12q12 -14 12 -33t-12 -32q-13 -13 -33 -13z" />
    <glyph glyph-name="radical" unicode="&#x221a;" horiz-adv-x="514" 
d="M200 -116l-97 410h-79v44h113l95 -396h2l214 748h46l-231 -806h-63z" />
    <glyph glyph-name="infinity" unicode="&#x221e;" horiz-adv-x="673" 
d="M158 154q-64 0 -101 43q-39 42 -39 111t39 111q38 42 101 42q58 0 97 -30q38 -30 82 -90q40 56 81 89q37 31 96 31q63 0 102 -42t39 -111t-39 -111q-39 -43 -102 -43q-59 0 -96 31q-41 33 -81 89q-45 -61 -82 -89q-38 -31 -97 -31zM162 197q46 0 80 29q35 30 71 82
q-35 52 -71 83q-32 28 -80 28q-46 0 -74 -30q-28 -31 -28 -81q0 -51 28 -80q28 -31 74 -31zM510 197q46 0 75 30q27 30 27 81q0 50 -27 81q-29 30 -75 30q-48 0 -80 -28q-31 -27 -70 -83q36 -54 70 -82q34 -29 80 -29z" />
    <glyph glyph-name="integral" unicode="&#x222b;" horiz-adv-x="282" 
d="M51 -183q-26 0 -38 4v38q9 -3 24 -3q40 0 60 23q19 22 19 72v614q0 64 29 98q29 32 86 32q19 0 39 -4v-39q-11 3 -26 3q-78 0 -78 -95v-614q0 -65 -29 -97q-30 -32 -86 -32z" />
    <glyph glyph-name="approxequal" unicode="&#x2248;" horiz-adv-x="540" 
d="M368 323q-29 0 -52 14q-26 15 -52 39q-25 22 -46 35q-19 12 -44 12q-36 0 -55 -24q-21 -24 -21 -63h-33q0 58 30 92q28 34 78 34q29 0 52 -12q25 -16 53 -40q29 -26 46 -35q19 -12 43 -12q35 0 55 24q20 23 20 62h34q0 -56 -29 -91q-30 -35 -79 -35zM368 153
q-29 0 -52 14q-26 14 -52 38q-25 22 -46 35q-19 12 -44 12q-35 0 -55 -23q-21 -24 -21 -64h-33q0 57 30 92q29 35 78 35q30 0 52 -13q21 -13 53 -40q29 -26 46 -35q19 -12 43 -12q35 0 55 24q20 25 20 63h34q0 -56 -29 -91q-30 -35 -79 -35z" />
    <glyph glyph-name="notequal" unicode="&#x2260;" horiz-adv-x="540" 
d="M139 82l-27 19l79 116h-126v40h151l69 100h-220v40h243l94 136l28 -19l-81 -117h127v-40h-150l-70 -100h220v-40h-243z" />
    <glyph glyph-name="lessequal" unicode="&#x2264;" horiz-adv-x="540" 
d="M476 118l-411 175v49l411 175v-41l-364 -158v-1l364 -158v-41zM65 0v39h411v-39h-411z" />
    <glyph glyph-name="greaterequal" unicode="&#x2265;" horiz-adv-x="540" 
d="M65 118v41l364 158v1l-364 158v41l411 -175v-49zM65 0v39h411v-39h-411z" />
    <glyph glyph-name="lozenge" unicode="&#x25ca;" horiz-adv-x="564" 
d="M246 -210l-211 450l211 450h71l212 -450l-212 -450h-71zM282 -171l191 411l-191 411l-191 -411z" />
    <glyph glyph-name="uniF8FF" unicode="&#xf8ff;" horiz-adv-x="478" 
d="M0 0v760h478v-760h-478zM41 40h396v680h-396v-680z" />
    <glyph glyph-name="ff" unicode="&#xfb00;" horiz-adv-x="656" 
d="M113 0v452h-93v48h93v120q0 67 35 107q35 39 97 39q44 0 86 -21l-20 -47q-35 18 -65 18q-42 0 -62 -24q-21 -26 -21 -76v-116h145v-48h-145v-452h-50zM441 0v452h-93v48h93v120q0 67 35 107q35 39 97 39q44 0 86 -21l-20 -47q-35 18 -65 18q-42 0 -62 -24
q-21 -26 -21 -76v-116h145v-48h-145v-452h-50z" />
    <glyph glyph-name="ffi" unicode="&#xfb03;" horiz-adv-x="890" 
d="M113 0v452h-93v48h93v120q0 67 35 107q35 39 97 39q44 0 86 -21l-20 -47q-35 18 -65 18q-42 0 -62 -24q-21 -26 -21 -76v-116h145v-48h-145v-452h-50zM441 0v452h-93v48h93v120q0 67 35 107q35 39 97 39q44 0 86 -21l-20 -47q-35 18 -65 18q-42 0 -62 -24
q-21 -26 -21 -76v-116h145v-48h-145v-452h-50zM773 647q-17 0 -28 12q-12 11 -12 28t12 29q11 11 28 11q16 0 29 -11q11 -13 11 -29q0 -17 -11 -28q-12 -12 -29 -12zM748 0v500h50v-500h-50z" />
    <glyph glyph-name="ffl" unicode="&#xfb04;" horiz-adv-x="890" 
d="M113 0v452h-93v48h93v120q0 67 35 107q35 39 97 39q44 0 86 -21l-20 -47q-35 18 -65 18q-42 0 -62 -24q-21 -26 -21 -76v-116h145v-48h-145v-452h-50zM441 0v452h-93v48h93v120q0 67 35 107q35 39 97 39q44 0 86 -21l-20 -47q-35 18 -65 18q-42 0 -62 -24
q-21 -26 -21 -76v-116h145v-48h-145v-452h-50zM748 0v760h50v-760h-50z" />
    <glyph glyph-name="uniFEFF" unicode="&#xfeff;" 
 />
    <glyph glyph-name="a.salt" horiz-adv-x="510" 
d="M230 -11q-84 0 -134 44q-51 43 -51 115t51 115q51 42 136 42q43 0 83 -14q37 -15 63 -42v64q0 69 -36 109q-37 40 -108 40q-42 0 -75 -15q-35 -17 -63 -50l-35 34q35 41 78 60q41 19 96 19q92 0 143 -52q50 -53 50 -145v-313h-42l-8 52q-25 -31 -62 -47q-36 -16 -86 -16z
M236 37q65 0 103 31q39 30 39 80t-39 81q-39 30 -103 30t-102 -30t-38 -81q0 -50 38 -80q37 -31 102 -31z" />
    <glyph glyph-name="aacute.aalt" horiz-adv-x="510" 
d="M192 587l113 153h73l-133 -153h-53zM230 -11q-84 0 -134 44q-51 43 -51 115t51 115q51 42 136 42q43 0 83 -14q37 -15 63 -42v64q0 69 -36 109q-37 40 -108 40q-42 0 -75 -15q-35 -17 -63 -50l-35 34q35 41 78 60q41 19 96 19q92 0 143 -52q50 -53 50 -145v-313h-42
l-8 52q-25 -31 -62 -47q-36 -16 -86 -16zM236 37q65 0 103 31q39 30 39 80t-39 81q-39 30 -103 30t-102 -30t-38 -81q0 -50 38 -80q37 -31 102 -31z" />
    <glyph glyph-name="abreve.aalt" horiz-adv-x="510" 
d="M255 585q-59 0 -97 44t-38 111h45q0 -50 25 -78q24 -30 65 -30t66 30q24 28 24 78h45q0 -67 -38 -111t-97 -44zM230 -11q-84 0 -134 44q-51 43 -51 115t51 115q51 42 136 42q43 0 83 -14q37 -15 63 -42v64q0 69 -36 109q-37 40 -108 40q-42 0 -75 -15q-35 -17 -63 -50
l-35 34q35 41 78 60q41 19 96 19q92 0 143 -52q50 -53 50 -145v-313h-42l-8 52q-25 -31 -62 -47q-36 -16 -86 -16zM236 37q65 0 103 31q39 30 39 80t-39 81q-39 30 -103 30t-102 -30t-38 -81q0 -50 38 -80q37 -31 102 -31z" />
    <glyph glyph-name="acircumflex.aalt" horiz-adv-x="510" 
d="M110 587l113 153h64l113 -153h-57l-88 119l-88 -119h-57zM230 -11q-84 0 -134 44q-51 43 -51 115t51 115q51 42 136 42q43 0 83 -14q37 -15 63 -42v64q0 69 -36 109q-37 40 -108 40q-42 0 -75 -15q-35 -17 -63 -50l-35 34q35 41 78 60q41 19 96 19q92 0 143 -52
q50 -53 50 -145v-313h-42l-8 52q-25 -31 -62 -47q-36 -16 -86 -16zM236 37q65 0 103 31q39 30 39 80t-39 81q-39 30 -103 30t-102 -30t-38 -81q0 -50 38 -80q37 -31 102 -31z" />
    <glyph glyph-name="adieresis.aalt" horiz-adv-x="510" 
d="M155 649q-16 0 -27 11t-11 27q0 17 11 28q10 10 27 10t27 -10q11 -11 11 -28q0 -16 -11 -27t-27 -11zM355 649q-16 0 -27 11t-11 27q0 17 11 28q10 10 27 10t27 -10q11 -11 11 -28q0 -16 -11 -27t-27 -11zM230 -11q-84 0 -134 44q-51 43 -51 115t51 115q51 42 136 42
q43 0 83 -14q37 -15 63 -42v64q0 69 -36 109q-37 40 -108 40q-42 0 -75 -15q-35 -17 -63 -50l-35 34q35 41 78 60q41 19 96 19q92 0 143 -52q50 -53 50 -145v-313h-42l-8 52q-25 -31 -62 -47q-36 -16 -86 -16zM236 37q65 0 103 31q39 30 39 80t-39 81q-39 30 -103 30
t-102 -30t-38 -81q0 -50 38 -80q37 -31 102 -31z" />
    <glyph glyph-name="agrave.aalt" horiz-adv-x="510" 
d="M265 587l-133 153h73l113 -153h-53zM230 -11q-84 0 -134 44q-51 43 -51 115t51 115q51 42 136 42q43 0 83 -14q37 -15 63 -42v64q0 69 -36 109q-37 40 -108 40q-42 0 -75 -15q-35 -17 -63 -50l-35 34q35 41 78 60q41 19 96 19q92 0 143 -52q50 -53 50 -145v-313h-42
l-8 52q-25 -31 -62 -47q-36 -16 -86 -16zM236 37q65 0 103 31q39 30 39 80t-39 81q-39 30 -103 30t-102 -30t-38 -81q0 -50 38 -80q37 -31 102 -31z" />
    <glyph glyph-name="amacron.aalt" horiz-adv-x="510" 
d="M122 633v48h265v-48h-265zM230 -11q-84 0 -134 44q-51 43 -51 115t51 115q51 42 136 42q43 0 83 -14q37 -15 63 -42v64q0 69 -36 109q-37 40 -108 40q-42 0 -75 -15q-35 -17 -63 -50l-35 34q35 41 78 60q41 19 96 19q92 0 143 -52q50 -53 50 -145v-313h-42l-8 52
q-25 -31 -62 -47q-36 -16 -86 -16zM236 37q65 0 103 31q39 30 39 80t-39 81q-39 30 -103 30t-102 -30t-38 -81q0 -50 38 -80q37 -31 102 -31z" />
    <glyph glyph-name="aogonek.aalt" horiz-adv-x="510" 
d="M374 -217q-42 0 -66 21q-24 22 -24 62q0 34 23 65q22 30 79 69l-8 52q-25 -31 -62 -47q-36 -16 -86 -16q-84 0 -134 44q-51 43 -51 115t51 115q51 42 136 42q43 0 83 -14q37 -15 63 -42v64q0 69 -36 109q-37 40 -108 40q-42 0 -75 -15q-35 -17 -63 -50l-35 34
q35 41 78 60q41 19 96 19q92 0 143 -52q50 -53 50 -145v-313q-53 -44 -73 -73q-21 -29 -21 -56q0 -41 41 -41q29 0 52 18v-52q-19 -13 -53 -13zM236 37q65 0 103 31q39 30 39 80t-39 81q-39 30 -103 30t-102 -30t-38 -81q0 -50 38 -80q37 -31 102 -31z" />
    <glyph glyph-name="aring.aalt" horiz-adv-x="510" 
d="M255 558q-44 0 -74 31q-31 31 -31 74q0 44 31 75q30 30 74 30q43 0 74 -30q31 -31 31 -75q0 -43 -31 -74t-74 -31zM255 598q27 0 46 19t19 46t-19 46t-46 19t-46 -19t-19 -46t19 -46t46 -19zM230 -11q-84 0 -134 44q-51 43 -51 115t51 115q51 42 136 42q43 0 83 -14
q37 -15 63 -42v64q0 69 -36 109q-37 40 -108 40q-42 0 -75 -15q-35 -17 -63 -50l-35 34q35 41 78 60q41 19 96 19q92 0 143 -52q50 -53 50 -145v-313h-42l-8 52q-25 -31 -62 -47q-36 -16 -86 -16zM236 37q65 0 103 31q39 30 39 80t-39 81q-39 30 -103 30t-102 -30t-38 -81
q0 -50 38 -80q37 -31 102 -31z" />
    <glyph glyph-name="atilde.aalt" horiz-adv-x="510" 
d="M81 602q0 55 27 89t70 34q25 0 45 -11q16 -9 42 -31q23 -19 33 -25q13 -9 31 -9q54 0 54 76h45q0 -55 -27 -89t-70 -34q-24 0 -43 11q-20 11 -43 31q-19 16 -34 26q-14 8 -31 8q-54 0 -54 -76h-45zM230 -11q-84 0 -134 44q-51 43 -51 115t51 115q51 42 136 42
q43 0 83 -14q37 -15 63 -42v64q0 69 -36 109q-37 40 -108 40q-42 0 -75 -15q-35 -17 -63 -50l-35 34q35 41 78 60q41 19 96 19q92 0 143 -52q50 -53 50 -145v-313h-42l-8 52q-25 -31 -62 -47q-36 -16 -86 -16zM236 37q65 0 103 31q39 30 39 80t-39 81q-39 30 -103 30
t-102 -30t-38 -81q0 -50 38 -80q37 -31 102 -31z" />
    <glyph glyph-name="l.aalt" horiz-adv-x="285" 
d="M225 -6q-63 0 -97 39q-36 39 -36 108v619h50v-617q0 -51 21 -76t66 -25q22 0 39 4l7 -46q-23 -6 -50 -6z" />
    <glyph glyph-name="lacute.aalt" horiz-adv-x="280" 
d="M49 727l113 103h83l-133 -103h-63zM220 -6q-62 0 -97 39q-36 39 -36 108v549h50v-547q0 -51 21 -76t66 -25q22 0 39 4l7 -46q-22 -6 -50 -6z" />
    <glyph glyph-name="lcaron.aalt" horiz-adv-x="285" 
d="M225 -6q-63 0 -97 39q-36 39 -36 108v619h50v-617q0 -51 21 -76t66 -25q22 0 39 4l7 -46q-23 -6 -50 -6zM189 564l59 196h52l-72 -196h-39z" />
    <glyph glyph-name="uni013C.aalt" horiz-adv-x="285" 
d="M225 -6q-63 0 -97 39q-36 39 -36 108v619h50v-617q0 -51 21 -76t66 -25q22 0 39 4l7 -46q-23 -6 -50 -6zM134 -200l46 150h61l-66 -150h-41z" />
    <glyph glyph-name="ldot.aalt" horiz-adv-x="322" 
d="M225 -6q-63 0 -97 39q-36 39 -36 108v619h50v-617q0 -51 21 -76t66 -25q22 0 39 4l7 -46q-23 -6 -50 -6zM277 290q-19 0 -32 13t-13 32q0 20 13 33q13 12 32 12t33 -12q12 -14 12 -33t-12 -32q-13 -13 -33 -13z" />
    <glyph glyph-name="lslash.aalt" horiz-adv-x="285" 
d="M225 -6q-63 0 -97 39q-36 39 -36 108v196l-107 -71v60l107 71v363h50v-337l107 71v-60l-107 -71v-220q0 -51 21 -76t66 -25q22 0 39 4l7 -46q-23 -6 -50 -6z" />
    <glyph glyph-name="zero.pnum" horiz-adv-x="548" 
d="M274 -10q-107 0 -162 76q-56 76 -56 218v122q0 142 56 219q56 75 162 75t162 -75q56 -77 56 -219v-122q0 -142 -56 -218q-55 -76 -162 -76zM274 40q80 0 124 63q42 62 42 181v122q0 119 -42 182q-44 62 -124 62q-81 0 -123 -62q-43 -62 -43 -182v-122q0 -120 43 -181
q42 -63 123 -63z" />
    <glyph glyph-name="one.pnum" horiz-adv-x="487" 
d="M63 0v50h192v578l-192 -71v53l242 90v-650h172v-50h-414z" />
    <glyph glyph-name="two.pnum" horiz-adv-x="522" 
d="M61 0v30q0 50 24 92q23 40 59 72q29 26 93 74q58 44 91 73q34 30 58 70q23 41 23 88q0 69 -42 110q-43 40 -115 40q-61 0 -101 -32q-40 -34 -56 -99l-50 12q21 82 74 126q52 43 133 43q63 0 110 -25q48 -27 73 -70q26 -47 26 -105q0 -60 -26 -107q-27 -49 -64 -81
q-34 -31 -100 -80q-72 -52 -109 -91q-38 -40 -44 -90h354v-50h-411z" />
    <glyph glyph-name="three.pnum" horiz-adv-x="529" 
d="M246 -11q-78 0 -134 37q-57 36 -78 100l46 19q18 -51 61 -78t105 -27q84 0 133 43q48 44 48 119q0 48 -24 86t-67 60q-44 21 -99 21q-29 0 -46 -4v38l188 237h-316v50h386v-42l-182 -229q61 -6 110 -35q48 -30 75 -77t27 -105q0 -62 -29 -111q-28 -49 -82 -75
q-52 -27 -122 -27z" />
    <glyph glyph-name="four.pnum" horiz-adv-x="570" 
d="M374 0v215h-344v58l335 417h61v-425h124v-50h-124v-215h-52zM86 265h288v358z" />
    <glyph glyph-name="five.pnum" horiz-adv-x="527" 
d="M245 -10q-63 0 -116 27q-54 27 -84 74l44 28q23 -38 64 -58q40 -21 92 -21q79 0 128 48t49 125q0 73 -46 119q-46 45 -122 45q-72 0 -136 -40l-32 20l29 333h332v-50h-284l-21 -238q57 26 112 26q64 0 113 -27q52 -30 79 -77q28 -49 28 -111q0 -65 -29 -115
q-30 -51 -82 -79q-51 -29 -118 -29z" />
    <glyph glyph-name="six.pnum" horiz-adv-x="554" 
d="M277 -10q-62 0 -114 31t-82 85q-31 52 -31 117q0 69 29 132q31 66 107 164l133 171h64l-222 -285q49 38 116 38q63 0 117 -30q52 -30 84 -81q31 -52 31 -114t-31 -114q-32 -53 -84 -83q-53 -31 -117 -31zM277 40q49 0 91 24q41 24 65 65t24 89t-24 88q-23 39 -65 64
q-43 23 -91 23t-88 -22t-63 -62q-24 -39 -24 -86q0 -50 24 -92q22 -42 63 -66q40 -25 88 -25z" />
    <glyph glyph-name="seven.pnum" horiz-adv-x="519" 
d="M101 0l327 640h-393v50h454v-47l-333 -643h-55z" />
    <glyph glyph-name="eight.pnum" horiz-adv-x="598" 
d="M299 -10q-68 0 -119 24q-51 23 -80 69q-28 43 -28 102q0 63 33 109q31 45 90 68q-46 21 -72 62t-26 96q0 82 55 131t147 49t147 -49t55 -131q0 -56 -25 -96q-26 -41 -73 -62q59 -23 91 -68q32 -47 32 -109q0 -59 -28 -102q-29 -45 -79 -69q-53 -24 -120 -24zM299 384
q69 0 109 36q41 36 41 97q0 59 -41 97q-40 36 -109 36t-109 -36q-41 -38 -41 -97q0 -61 41 -97t109 -36zM299 40q78 0 127 41q48 41 48 108q0 66 -48 107q-47 40 -127 40t-127 -40q-48 -41 -48 -107q0 -67 48 -108q49 -41 127 -41z" />
    <glyph glyph-name="nine.pnum" horiz-adv-x="554" 
d="M171 0l222 285q-49 -38 -116 -38q-63 0 -116 30q-54 30 -85 82q-31 50 -31 113t31 115q31 51 85 83q53 30 116 30q62 0 114 -31q51 -31 83 -84q30 -54 30 -118q0 -72 -28 -132q-29 -63 -108 -164l-133 -171h-64zM277 297q47 0 88 23q40 22 64 61q23 40 23 86q0 49 -23 92
q-24 42 -64 67q-40 24 -88 24q-49 0 -90 -24q-42 -24 -66 -64t-24 -90q0 -48 24 -88t66 -63q41 -24 90 -24z" />
    <glyph glyph-name="zero.dnom" horiz-adv-x="353" 
d="M176 -6q-64 0 -97 42q-33 40 -33 120v67q0 79 33 121q33 41 97 41q63 0 98 -41q33 -42 33 -121v-67q0 -80 -33 -120q-34 -42 -98 -42zM176 38q42 0 64 30q21 30 21 89v65q0 58 -21 90q-22 30 -64 30q-41 0 -62 -30q-22 -31 -22 -90v-65q0 -59 22 -88q21 -31 62 -31z" />
    <glyph glyph-name="one.dnom" horiz-adv-x="354" 
d="M55 0v43h103v280l-103 -36v45l148 53v-342h96v-43h-244z" />
    <glyph glyph-name="two.dnom" horiz-adv-x="352" 
d="M51 0v17q0 44 27 74q28 31 78 65q49 33 70 57q23 26 23 59q0 32 -21 52q-23 18 -59 18q-34 0 -53 -16q-20 -17 -29 -50l-45 11q14 48 46 73q32 26 81 26q57 0 91 -31q35 -32 35 -83q0 -34 -15 -61q-17 -29 -38 -45q-21 -17 -58 -43q-31 -21 -55 -41q-18 -17 -26 -39h198
v-43h-250z" />
    <glyph glyph-name="three.dnom" horiz-adv-x="353" 
d="M163 -6q-46 0 -79 21q-34 19 -46 56l41 17q9 -24 31 -37t53 -13q41 0 67 20q24 20 24 56t-27 58q-28 22 -73 22q-15 0 -27 -2v32l93 112h-165v44h228v-33l-93 -112q50 -8 80 -41t30 -80q0 -54 -37 -87t-100 -33z" />
    <glyph glyph-name="four.dnom" horiz-adv-x="353" 
d="M218 0v107h-192v49l186 224h51v-230h64v-43h-64v-107h-45zM72 150h146v176z" />
    <glyph glyph-name="five.dnom" horiz-adv-x="353" 
d="M164 -6q-39 0 -70 16q-34 18 -49 44l39 23q11 -18 33 -29q20 -10 47 -10q40 0 66 23q24 23 24 60q0 35 -24 57q-23 22 -63 22q-39 0 -73 -21l-27 14l17 187h200v-43h-158l-9 -103q24 9 50 9q59 0 96 -34t37 -87q0 -55 -38 -91q-37 -37 -98 -37z" />
    <glyph glyph-name="six.dnom" horiz-adv-x="353" 
d="M176 -6q-36 0 -67 18q-30 16 -49 47q-18 30 -18 66q0 38 17 74t62 91l73 90h54l-113 -139q15 7 41 7q38 0 70 -17q29 -15 50 -46q18 -29 18 -63q0 -36 -18 -64q-21 -32 -50 -47q-32 -17 -70 -17zM177 37q38 0 64 25q26 26 26 60q0 35 -26 59q-27 24 -64 24q-36 0 -62 -23
q-26 -24 -26 -58q0 -35 26 -61t62 -26z" />
    <glyph glyph-name="seven.dnom" horiz-adv-x="353" 
d="M67 0l184 336h-209v44h263v-40l-187 -340h-51z" />
    <glyph glyph-name="eight.dnom" horiz-adv-x="353" 
d="M177 -6q-61 0 -97 30q-37 30 -37 80q0 32 17 58q17 25 46 38q-24 14 -35 35q-13 20 -13 49q0 45 32 74q32 27 87 27q54 0 87 -27q32 -29 32 -74q0 -57 -49 -85q31 -14 47 -37q16 -25 16 -58q0 -50 -36 -80t-97 -30zM177 219q33 0 53 17t20 45t-20 45q-19 16 -53 16
t-53 -16q-20 -17 -20 -45t20 -45t53 -17zM177 37q38 0 63 20q24 19 24 51q0 30 -24 50q-23 19 -63 19q-41 0 -63 -18q-24 -19 -24 -51t24 -51q23 -20 63 -20z" />
    <glyph glyph-name="nine.dnom" horiz-adv-x="353" 
d="M105 0l113 139q-15 -7 -41 -7q-37 0 -69 17q-31 16 -50 46q-19 28 -19 63q0 36 19 65q19 30 50 46q32 17 69 17q35 0 67 -17q31 -18 49 -48t18 -66q0 -40 -16 -73q-17 -36 -63 -92l-73 -90h-54zM176 175q38 0 63 24q25 22 25 57q0 37 -25 62t-63 25t-63 -25
q-27 -26 -27 -60q0 -35 27 -59q25 -24 63 -24z" />
    <glyph glyph-name="zero.numr" horiz-adv-x="353" 
d="M176 305q-64 0 -97 42q-33 41 -33 120v67q0 79 33 121q33 41 97 41q63 0 98 -41q33 -42 33 -121v-67q0 -79 -33 -120q-34 -42 -98 -42zM176 349q42 0 64 30q21 30 21 89v65q0 59 -21 90q-22 30 -64 30q-41 0 -62 -30q-22 -31 -22 -90v-65q0 -59 22 -88q21 -31 62 -31z
" />
    <glyph glyph-name="one.numr" horiz-adv-x="354" 
d="M55 312v43h103v280l-103 -36v45l148 53v-342h96v-43h-244z" />
    <glyph glyph-name="two.numr" horiz-adv-x="352" 
d="M51 311v17q0 44 27 74q28 31 78 65q49 33 70 57q23 26 23 59t-21 52q-23 18 -59 18q-34 0 -53 -16q-20 -17 -29 -50l-45 11q14 48 46 73q32 26 81 26q57 0 91 -31q35 -32 35 -83q0 -34 -15 -61q-17 -29 -38 -45q-21 -17 -58 -43q-31 -21 -55 -41q-18 -17 -26 -39h198v-43
h-250z" />
    <glyph glyph-name="three.numr" horiz-adv-x="353" 
d="M163 306q-46 0 -79 21q-34 19 -46 56l41 17q9 -24 31 -37t53 -13q41 0 67 20q24 20 24 56t-27 58q-28 22 -73 22q-15 0 -27 -2v32l93 112h-165v44h228v-33l-93 -112q50 -8 80 -41t30 -80q0 -54 -37 -87t-100 -33z" />
    <glyph glyph-name="four.numr" horiz-adv-x="353" 
d="M218 311v107h-192v49l186 224h51v-230h64v-43h-64v-107h-45zM72 461h146v176z" />
    <glyph glyph-name="five.numr" horiz-adv-x="353" 
d="M164 305q-39 0 -70 16q-34 18 -49 44l39 23q11 -18 33 -29q20 -10 47 -10q40 0 66 23q24 22 24 60q0 34 -24 57q-23 22 -63 22q-39 0 -73 -21l-27 14l17 187h200v-43h-158l-9 -103q24 9 50 9q59 0 96 -34t37 -87q0 -55 -38 -91q-37 -37 -98 -37z" />
    <glyph glyph-name="six.numr" horiz-adv-x="353" 
d="M176 305q-36 0 -67 18q-30 16 -49 47q-18 30 -18 66q0 38 17 74t62 91l73 90h54l-113 -139q15 7 41 7q38 0 70 -17q29 -15 50 -46q18 -28 18 -63t-18 -64q-21 -32 -50 -47q-32 -17 -70 -17zM177 348q38 0 64 25q26 26 26 60q0 35 -26 59q-27 24 -64 24q-36 0 -62 -23
q-26 -24 -26 -58q0 -35 26 -61t62 -26z" />
    <glyph glyph-name="seven.numr" horiz-adv-x="353" 
d="M67 311l184 336h-209v44h263v-40l-187 -340h-51z" />
    <glyph glyph-name="eight.numr" horiz-adv-x="353" 
d="M177 305q-61 0 -97 30q-37 30 -37 80q0 32 17 58q17 25 46 38q-24 14 -35 35q-13 20 -13 49q0 45 32 74q32 27 87 27q54 0 87 -27q32 -29 32 -74q0 -57 -49 -85q31 -14 47 -37q16 -25 16 -58q0 -50 -36 -80t-97 -30zM177 530q33 0 53 17t20 45t-20 45q-19 16 -53 16
t-53 -16q-20 -17 -20 -45t20 -45t53 -17zM177 348q38 0 63 20q24 20 24 51t-24 50q-23 19 -63 19q-41 0 -63 -18q-24 -20 -24 -51t24 -51q23 -20 63 -20z" />
    <glyph glyph-name="nine.numr" horiz-adv-x="353" 
d="M105 311l113 139q-15 -7 -41 -7q-37 0 -69 17q-31 16 -50 46q-19 28 -19 63q0 36 19 65q19 30 50 46q32 17 69 17q35 0 67 -17q31 -18 49 -48t18 -66q0 -40 -16 -73q-17 -36 -63 -92l-73 -90h-54zM176 486q38 0 63 24q25 22 25 57q0 37 -25 62t-63 25t-63 -25
q-27 -25 -27 -60t27 -59q25 -24 63 -24z" />
    <glyph glyph-name="glyph481" 
d="M-129 360q-19 0 -32 13t-13 32q0 20 13 33q14 12 32 12q20 0 32 -12q13 -13 13 -33q0 -19 -13 -32q-12 -13 -32 -13z" />
    <glyph glyph-name="glyph482" horiz-adv-x="86" 
d="M43 290q-19 0 -32 13t-13 32q0 20 13 33q13 12 32 12t33 -12q12 -14 12 -33t-12 -32q-13 -13 -33 -13z" />
    <glyph glyph-name="glyph483" 
d="M-122 564l59 196h52l-72 -196h-39z" />
    <glyph glyph-name="uni0308.aalt" 
d="M-268 739q-17 0 -28 11q-10 10 -10 27q0 18 10 28t28 10q17 0 27 -10q11 -11 11 -28q0 -16 -11 -27t-27 -11zM-68 739q-17 0 -28 11q-10 10 -10 27q0 18 10 28t28 10q17 0 27 -10q11 -11 11 -28q0 -16 -11 -27t-27 -11z" />
    <glyph glyph-name="uni0307.aalt" 
d="M-70 737q-17 0 -29 12q-11 11 -11 28q0 16 11 29q13 11 29 11q17 0 28 -11q12 -12 12 -29t-12 -28q-10 -12 -28 -12z" />
    <glyph glyph-name="gravecomb.aalt" 
d="M-93 727l-133 103h83l113 -103h-63z" />
    <glyph glyph-name="acutecomb.aalt" 
d="M-226 727l113 103h83l-133 -103h-63z" />
    <glyph glyph-name="uni030B.aalt" 
d="M-361 727l113 103h78l-133 -103h-58zM-221 727l113 103h78l-133 -103h-58z" />
    <glyph glyph-name="uni0302.aalt" 
d="M-340 727l118 103h74l118 -103h-67l-88 77l-88 -77h-67z" />
    <glyph glyph-name="uni030C.aalt" 
d="M-222 727l-118 103h67l88 -77l88 77h67l-118 -103h-74z" />
    <glyph glyph-name="uni0306.aalt" 
d="M-165 721q-60 0 -97 31q-38 32 -38 78h45q0 -28 24 -45q26 -17 66 -17t65 17q25 16 25 45h45q0 -46 -38 -78q-37 -31 -97 -31z" />
    <glyph glyph-name="uni030A.aalt" 
d="M-130 668q-42 0 -71 28q-29 29 -29 67t29 67q29 28 71 28t70 -28q30 -28 30 -67t-30 -67q-28 -28 -70 -28zM-130 708q26 0 42 16q18 16 18 39t-18 39q-16 16 -42 16t-43 -16q-17 -17 -17 -39t17 -39q17 -16 43 -16z" />
    <glyph glyph-name="tildecomb.aalt" 
d="M-377 722q0 50 27 82q27 31 70 31q24 0 44 -9q24 -13 43 -28q17 -13 33 -22q13 -7 31 -7q54 0 54 66h45q0 -50 -27 -82q-27 -31 -70 -31q-25 0 -44 9q-18 9 -42 27q-19 15 -34 23q-13 7 -31 7q-54 0 -54 -66h-45z" />
    <glyph glyph-name="uni0304.aalt" 
d="M-295 753v48h265v-48h-265z" />
    <glyph glyph-name="glyph495" 
d="M-208 649q-17 0 -28 11q-10 10 -10 27q0 18 10 28t28 10q17 0 27 -10q11 -11 11 -28q0 -16 -11 -27t-27 -11zM-68 649q-17 0 -28 11q-10 10 -10 27q0 18 10 28t28 10q17 0 27 -10q11 -11 11 -28q0 -16 -11 -27t-27 -11z" />
    <glyph glyph-name="glyph496" 
d="M-272 587l92 153h58l92 -153h-51l-70 116l-70 -116h-51z" />
    <glyph glyph-name="glyph497" 
d="M-145 585q-53 0 -84 40q-31 38 -31 115h45q0 -108 70 -108q33 0 51 27q19 25 19 81h45q0 -75 -32 -115q-31 -40 -83 -40z" />
    <glyph glyph-name="glyph498" 
d="M-307 602q0 50 21 82q22 31 56 31q20 0 37 -9q18 -12 37 -29q17 -15 25 -21q10 -7 22 -7q37 0 37 66h42q0 -51 -22 -82q-21 -31 -55 -31q-21 0 -37 10q-17 9 -37 28q-13 12 -26 21q-10 7 -21 7q-37 0 -37 -66h-42z" />
    <glyph glyph-name="glyph499" 
d="M-255 633v48h225v-48h-225z" />
    <glyph glyph-name="acute.aalt" horiz-adv-x="256" 
d="M30 727l113 103h83l-133 -103h-63z" />
    <glyph glyph-name="breve.aalt" horiz-adv-x="330" 
d="M165 721q-60 0 -97 31q-38 32 -38 78h45q0 -29 25 -45q25 -17 65 -17t66 17q24 17 24 45h45q0 -46 -38 -78q-37 -31 -97 -31z" />
    <glyph glyph-name="caron.aalt" horiz-adv-x="370" 
d="M148 727l-118 103h67l88 -77l88 77h67l-118 -103h-74z" />
    <glyph glyph-name="circumflex.aalt" horiz-adv-x="370" 
d="M30 727l118 103h74l118 -103h-67l-88 77l-88 -77h-67z" />
    <glyph glyph-name="dieresis.aalt" horiz-adv-x="336" 
d="M68 739q-16 0 -27 11t-11 27q0 17 11 28q10 10 27 10q18 0 28 -10t10 -28q0 -17 -10 -27q-11 -11 -28 -11zM268 739q-16 0 -27 11t-11 27q0 17 11 28q10 10 27 10q18 0 28 -10t10 -28q0 -17 -10 -27q-11 -11 -28 -11z" />
    <glyph glyph-name="dotaccent.aalt" horiz-adv-x="140" 
d="M70 737q-18 0 -28 12q-12 11 -12 28t12 29q11 11 28 11q16 0 29 -11q11 -13 11 -29q0 -17 -11 -28q-12 -12 -29 -12z" />
    <glyph glyph-name="grave.aalt" horiz-adv-x="256" 
d="M163 727l-133 103h83l113 -103h-63z" />
    <glyph glyph-name="hungarumlaut.aalt" horiz-adv-x="256" 
d="M30 727l113 103h83l-133 -103h-63z" />
    <glyph glyph-name="macron.aalt" horiz-adv-x="325" 
d="M30 753v48h265v-48h-265z" />
    <glyph glyph-name="ring.aalt" horiz-adv-x="260" 
d="M130 668q-42 0 -70 28q-30 28 -30 67t30 67q28 28 70 28t71 -28q29 -29 29 -67t-29 -67q-29 -28 -71 -28zM130 708q26 0 43 16q17 17 17 39t-17 39q-17 16 -43 16t-42 -16q-18 -16 -18 -39t18 -39q16 -16 42 -16z" />
    <glyph glyph-name="tilde.aalt" horiz-adv-x="407" 
d="M30 722q0 50 27 82q27 31 70 31q25 0 45 -9q21 -12 42 -28q17 -13 33 -22q13 -7 31 -7q54 0 54 66h45q0 -50 -27 -82q-27 -31 -70 -31q-25 0 -43 9q-18 8 -43 27q-19 15 -34 23q-13 7 -31 7q-54 0 -54 -66h-45z" />
    <glyph glyph-name="uni03060301" 
d="M-458 777l113 153h73l-133 -153h-53zM-435 585q-59 0 -97 44t-38 111h45q0 -50 25 -78q24 -30 65 -30t66 30q24 28 24 78h45q0 -67 -38 -111t-97 -44z" />
    <glyph glyph-name="uni03060300" 
d="M-467 777l-133 153h73l113 -153h-53zM-435 585q-59 0 -97 44t-38 111h45q0 -50 25 -78q24 -30 65 -30t66 30q24 28 24 78h45q0 -67 -38 -111t-97 -44z" />
    <glyph glyph-name="uni03060309" 
d="M-456 736l-2 64q89 10 89 70q0 26 -16.5 40.5t-46.5 14.5q-60 0 -73 -55l-47 12q28 86 120 89q48 2 79.5 -26.5t31.5 -74.5q0 -40 -25 -67t-69 -35l-1 -32h-40zM-435 585q-59 0 -97 44t-38 111h45q0 -50 25 -78q24 -30 65 -30t66 30q24 28 24 78h45q0 -67 -38 -111
t-97 -44z" />
    <glyph glyph-name="uni03060303" 
d="M-609 792q0 54 27 89q27 34 70 34q25 0 45 -11q16 -9 42 -31q23 -19 33 -25q14 -9 31 -9q54 0 54 76h45q0 -55 -27 -89t-70 -34q-24 0 -43 11q-20 11 -43 31q-19 16 -34 26q-14 8 -31 8q-54 0 -54 -76h-45zM-435 585q-59 0 -97 44t-38 111h45q0 -50 25 -78q24 -30 65 -30
t66 30q24 28 24 78h45q0 -67 -38 -111t-97 -44z" />
    <glyph glyph-name="uni03020301" 
d="M-269 674l113 153h73l-133 -153h-53zM-570 587l113 153h64l113 -153h-57l-88 119l-88 -119h-57z" />
    <glyph glyph-name="uni03020300" 
d="M-278 674l-133 153h73l113 -153h-53zM-570 587l113 153h64l113 -153h-57l-88 119l-88 -119h-57z" />
    <glyph glyph-name="uni03020309" 
d="M-267 633l-2 64q89 10 89 70q0 26 -16.5 40.5t-46.5 14.5q-60 0 -73 -55l-47 12q28 86 120 89q48 2 79.5 -26.5t31.5 -74.5q0 -40 -25 -67t-69 -35l-1 -32h-40zM-570 587l113 153h64l113 -153h-57l-88 119l-88 -119h-57z" />
    <glyph glyph-name="uni03020303" 
d="M-594 758q0 54 27 89q27 34 70 34q25 0 45 -11q16 -9 42 -31q23 -19 33 -25q14 -9 31 -9q54 0 54 76h45q0 -55 -27 -89t-70 -34q-24 0 -43 11q-20 11 -43 31q-19 16 -34 26q-14 8 -31 8q-54 0 -54 -76h-45zM-570 587l113 153h64l113 -153h-57l-88 119l-88 -119h-57z" />
    </font>
</defs>
</svg>
